<svg xmlns="http://www.w3.org/2000/svg" viewBox="0 0 661.79 655.04"><defs><style>.cls-1{fill:#d9cead;}.cls-2{fill:#bdd3f9;}.cls-3{fill:#cde4fd;}.cls-4{fill:#d6e8fd;}.cls-5{fill:#ea088b;}.cls-6{fill:#919395;}.cls-7{fill:#e0d6bd;}.cls-8{fill:#e4e0d4;}.cls-9{fill:#eeece3;}.cls-10{fill:#fcd278;}.cls-11{fill:#fefefe;}.cls-12{fill:#bea793;}.cls-13{fill:#fefefd;}.cls-14{fill:#e4e0d3;}.cls-15{fill:#fdfdfc;}.cls-16{fill:#233560;}.cls-17{fill:#bbb6a8;}.cls-18{fill:#bab8aa;}.cls-19{fill:#dcecfe;}.cls-20{fill:#a6c5fa;}.cls-21{fill:#f3f8fd;}.cls-22{fill:#ebf3fd;}.cls-23{fill:#e3effe;}.cls-24{fill:#231f20;}.cls-25{fill:#e0edfd;}.cls-26{fill:#e9f2fd;}.cls-27{fill:#f0f6fc;}.cls-28{fill:#fafbfe;}.cls-29{fill:#fdfdfe;}.cls-30{fill:#880047;}.cls-31{fill:#9a0059;}.cls-32{fill:#024fa8;}.cls-33{fill:#fefdfd;}.cls-34{fill:#034ca2;}.cls-35{fill:#0352ad;}.cls-36{fill:#0255b1;}.cls-37{fill:#fdfcfd;}.cls-38{fill:#fdf9fc;}.cls-39{fill:#908d94;}.cls-40{fill:#3761ac;}.cls-41{fill:#223e78;}.cls-42{fill:none;}.cls-43{fill:#02437e;}.cls-44{fill:#037fe2;}.cls-45{fill:#0472db;}.cls-46{fill:#414042;}.cls-47{fill:#f8f8f8;}.cls-48{fill:#c6b09c;}.cls-49{fill:#333132;}.cls-50{fill:#b9bbbe;}.cls-51{fill:#c6b19d;}.cls-52{fill:#b99b5a;}.cls-53{fill:#aeafaa;}.cls-54{fill:#aeafab;}.cls-55{fill:#babcbf;}.cls-56{fill:#a2c1e3;}.cls-57{fill:#afafa9;}.cls-58{fill:#a7a69f;}.cls-59{fill:#afafab;}.cls-60{fill:#b8babb;}.cls-61{fill:#faa52b;}.cls-62{fill:#b99b5b;}.cls-63{fill:#efc165;}.cls-64{fill:#ecba54;}.cls-65{fill:#b0b0ab;}.cls-66{fill:#faf5e8;}.cls-67{fill:#fbc759;}.cls-68{fill:#bc311a;}.cls-69{fill:#e0d8cd;}.cls-70{fill:#bf8636;}.cls-71{fill:#e1af4e;}.cls-72{fill:#fbc85e;}.cls-73{fill:#ecbb56;}.cls-74{fill:#fac861;}.cls-75{fill:#0371cf;}.cls-76{fill:#0456ac;}.cls-77{fill:#0252a7;}.cls-78{fill:#024c9e;}.cls-79{fill:#e1eefe;}.cls-80{fill:#0365c0;}.cls-81{fill:#026dca;}.cls-82{fill:#035db5;}.cls-83{fill:#0369c6;}.cls-84{fill:#025ab0;}.cls-85{fill:#024ea2;}.cls-86{fill:#0262bc;}.cls-87{fill:#0276d5;}.cls-88{fill:#0479da;}.cls-89{fill:#8e9092;}.cls-90{fill:#959599;}.cls-91{fill:#96989b;}.cls-92{fill:#017cde;}.cls-93{fill:#9a9c9f;}.cls-94{fill:#99999c;}.cls-95{fill:#02499e;}.cls-96{fill:#024699;}.cls-97{fill:#024ca3;}.cls-98{fill:#f5f9fe;}.cls-99{fill:#f7fafd;}.cls-100{fill:#989a9c;}.cls-101{fill:#a1a2a5;}.cls-102{fill:#033c74;}.cls-103{fill:#024079;}.cls-104{fill:#02386e;}.cls-105{fill:#023569;}.cls-106{fill:#0198fd;}.cls-107{fill:#0195f9;}.cls-108{fill:#eb0f8f;}.cls-109{fill:#ec1d95;}.cls-110{fill:#01479b;}.cls-111{fill:#0197fc;}.cls-112{fill:#4479c6;}.cls-113{fill:#343132;}.cls-114{fill:#242122;}.cls-115{fill:#010101;}.cls-116{fill:#ded8ca;}.cls-117{fill:#353231;}.cls-118{fill:#fafaf7;}.cls-119{fill:#eeece2;}.cls-120{fill:#faf9f6;}.cls-121{fill:#c7b19c;}.cls-122{fill:#fdfdfd;}.cls-123{fill:#f6961d;}.cls-124{fill:#fcfaf3;}.cls-125{fill:#2a5593;}.cls-126{fill:#f3831a;}.cls-127{fill:#2b2300;}.cls-128{fill:#f3e9d5;}.cls-129{fill:#fddf4f;}.cls-130{fill:#f9ae35;}.cls-131{fill:#ced1d2;}.cls-132{fill:#bec2c4;}.cls-133{fill:#fbfbfb;}.cls-134{fill:#fcfbfb;}.cls-135{fill:#fcfcfc;}.cls-136{fill:#2e5094;}.cls-137{fill:#302f32;}.cls-138{fill:#242020;}.cls-139{fill:#717375;}.cls-140{fill:#6f7173;}.cls-141{fill:#6c6e70;}.cls-142{fill:#57585a;}.cls-143{fill:#75777a;}.cls-144{fill:#535455;}.cls-145{fill:#c6deac;}.cls-146{fill:#91a482;}.cls-147{fill:#afb0ab;}.cls-148{fill:#707274;}.cls-149{fill:#58595b;}.cls-150{fill:#6d6f71;}.cls-151{fill:#f4c35c;}.cls-152{fill:#ca923f;}.cls-153{fill:#fcd177;}.cls-154{fill:#efe6cf;}.cls-155{fill:#c8b19a;}.cls-156{fill:#eeebe0;}.cls-157{fill:#eb3523;}.cls-158{fill:#fcc75a;}.cls-159{fill:#c68b37;}.cls-160{fill:#ebb850;}.cls-161{fill:#f9c65f;}.cls-162{fill:#e6ddc9;}.cls-163{fill:#ecba53;}.cls-164{fill:#fcfbf8;}.cls-165{fill:#eee9db;}.cls-166{fill:#fdfbf7;}.cls-167{fill:#eeebde;}.cls-168{fill:#024193;}.cls-169{fill:#eaf2fd;}.cls-170{fill:#f0f6fd;}.cls-171{fill:#bbbcbd;}.cls-172{fill:#e71c44;}.cls-173{fill:#edebe2;}.cls-174{fill:#f6f6f3;}.cls-175{fill:#c50918;}.cls-176{fill:#8d8e91;}.cls-177{fill:#0198fc;}.cls-178{fill:#c7b19e;}.cls-179{fill:#c7b19d;}.cls-180{fill:#bbbcbf;}.cls-181{fill:#e8e0b8;}.cls-182{fill:#383d50;}.cls-183{fill:#2a2930;}.cls-184{fill:#272429;}.cls-185{fill:#2f303b;}.cls-186{fill:#363a4b;}.cls-187{fill:#323443;}.cls-188{fill:#313340;}.cls-189{fill:#2e2e38;}.cls-190{fill:#262225;}.cls-191{fill:#353849;}.cls-192{fill:#2c2b33;}.cls-193{fill:#2a282e;}.cls-194{fill:#54d16f;}.cls-195{fill:#42a853;}.cls-196{fill:#2e913d;}.cls-197{fill:#e2b04c;}.cls-198{fill:#434244;}.cls-199{fill:#d2c7af;}.cls-200{fill:#bd311a;}.cls-201{fill:#a8a9aa;}.cls-202{fill:#e3e3e5;}.cls-203{fill:#75787a;}.cls-204{fill:#e3e3e4;}.cls-205{fill:#737577;}.cls-206{fill:#efebe2;}.cls-207{fill:#ede8d9;}.cls-208{fill:#fdfaf6;}.cls-209{fill:#eebb54;}.cls-210{fill:#faa830;}.cls-211{fill:#eab855;}.cls-212{fill:#c68e3b;}.cls-213{fill:#edba53;}.cls-214{fill:#fdfcfa;}.cls-215{fill:#fdfcf9;}.cls-216{fill:#fac860;}.cls-217{fill:#efebde;}.cls-218{fill:#fdfaf4;}.cls-219{fill:#edbc56;}.cls-220{fill:#eeeade;}.cls-221{fill:#ecbb54;}.cls-222{fill:#e6be09;}.cls-223{fill:#897930;}.cls-224{fill:#fccf02;}.cls-225{fill:#f0f0f1;}.cls-226{fill:#eeeeef;}.cls-227{fill:#c0a00e;}.cls-228{fill:#dcb509;}.cls-229{fill:#333646;}.cls-230{fill:#f9fafa;}.cls-231{fill:#f7f7f7;}.cls-232{fill:#fdfefd;}.cls-233{fill:#e2af4b;}.cls-234{fill:#e4e0d2;}.cls-235{fill:#e5dac5;}.cls-236{fill:#e2b04f;}.cls-237{fill:#eeebe1;}.cls-238{fill:#4a4c56;}.cls-239{fill:#1d55a6;}</style></defs><g id="Layer_2" data-name="Layer 2"><g id="Layer_1-2" data-name="Layer 1"><path class="cls-1" d="M257.79,655l.11.07.1-.61a4.27,4.27,0,0,0,.8-1.49L658.47,429.28a.79.79,0,0,0,.09.22c.22.73.43,1.47.65,2.21l-.49-2.57.18-.1,1.28,0c.07-.32.15-.63.24-.95.51-4.29,1.62-8.51,1.32-12.88a33,33,0,0,0-1-3.4h0c-.9-2.25-1.93-2.06-5.86-1.37a10.28,10.28,0,0,0-1.42.89,12.66,12.66,0,0,1-1.27.84,4.63,4.63,0,0,1-1,.43,6.08,6.08,0,0,1-.76.69,9.1,9.1,0,0,1-2.23,1.21c-.53.22-1.06.42-1.59.63l-.7.31-.72.37h0a107,107,0,0,0-13,7.52,3.87,3.87,0,0,1-.56.44,8.34,8.34,0,0,1-1.64.81,11.91,11.91,0,0,0-1.7.79l-.35.23-.65.35c-10.25,5.53-20.37,11.3-30.42,17.21l-.55.32-.41.25c-4.64,2.89-9.51,5.38-14.12,8.3l-.3.12c-.4.14-.79.31-1.18.48-2.86,1.27-5.47,3-8.23,4.48-5.71,3-11.1,6.58-16.69,9.77q-2.19,1.26-4.44,2.41c-1.18.6-2.38,1.18-3.6,1.72a25.19,25.19,0,0,0-4.34,2.55l-1.39.81-1.62.93c-5.82,3.37-11.61,6.74-17.52,9.94h0l-1.57.85-.52.28c-2.09,1.1-3.83,2.76-5.85,4a10.58,10.58,0,0,1-1.34.69,7.79,7.79,0,0,1-1,.37c-4.31,1.86-8.21,4.49-12.27,6.81a19.65,19.65,0,0,1-2.12,1.57c-.64.43-1.3.83-2,1.19h0c-2.83,1.57-5.86,2.77-8.72,4.32-.82.48-1.64,1-2.47,1.42h0c-1,.58-1.95,1.15-2.94,1.71-6,3.41-12,6.75-18,10.2h0c-.56.31-1.1.63-1.66,1l-.92.53c-7.11,4.54-14.66,8.33-21.84,12.75a15,15,0,0,1-4.06,1.9,7.85,7.85,0,0,1-1.3.23,6,6,0,0,1-.61,0c-7.86,5.88-16.68,10.14-25.13,15-19,11-38.23,21.51-57.12,32.66-.66.38-1.31.77-2,1.16l0,0c-3.61,2-7,4.25-10.57,6.36h0c-.73.44-1.47.87-2.21,1.28-.37.22-.74.43-1.12.63a52.38,52.38,0,0,0-10.77,5.71h0l-1.86,1.23-.44.29c-.87.48-1.84.74-2.72,1.23-18.61,10.34-37,21-55.56,31.51a10.72,10.72,0,0,0-3.44,2.87,8.13,8.13,0,0,0-.52.78l0,0-.15.31a15.85,15.85,0,0,0-1.68,5,13,13,0,0,1-.54,5.08,12.46,12.46,0,0,0-.53,3.21,9.61,9.61,0,0,1-.44,4.55,2.6,2.6,0,0,1-.1.25l0,.09v0Z"/><path class="cls-2" d="M629.67,77.06l1.23,5a23.1,23.1,0,0,1,1.31,6.82c-.28,24.28,1,48.58.52,72.85-1.06,55.57-.12,111.14-.53,166.71a51.89,51.89,0,0,0,.16,6.48c.27,4.12-1.73,7-5.12,9-1.77,1-3.77,1.5-5.38-.53-1.39-2.39-.36-4.91-.36-7.36q.06-120.9,0-241.81c0-4.07-1.12-7.89-2.29-11.71-.4-5.59,3.27-8,7.69-9.83C627.82,74.12,628.75,75.59,629.67,77.06Z"/><path class="cls-3" d="M626.9,72.64a5.77,5.77,0,0,1-3.35,4.4c-1.67.83-3,1.83-2.85,4-3.55.34-3.07-3.75-5.34-4.83-4.22-5.19-9.64-8.76-15.63-11.56-6.14-3-11.48-7.38-17.72-10.21-3.06-1.4-6-2.95-7.79-6-1.41-3.79-4.25-7.64.49-11.16l14,7.64c2.49-.76,4.46.58,6.43,1.7,5.11,2.93,10.14,6,15.27,8.87a29.63,29.63,0,0,1,6.23,5.65C620.7,64.41,624.83,67.61,626.9,72.64Z"/><path class="cls-4" d="M558.44,27.21l2.3,1.48,14,8.56a13.07,13.07,0,0,0,1,10.77c-2,1.68-3.76.37-5.45-.52-3.51-1.83-6.79-4.06-10.16-6.12-5-3.14-11.14-4.77-14.47-10.3-.2-3.33-2-6.94,1.67-9.62C552.47,20.58,556.07,22.7,558.44,27.21Z"/><path class="cls-5" d="M452.86,140q-.15-36.45-.33-72.9c0-3.77.07-7.37,3.48-9.87a2.57,2.57,0,0,1,1.75-1.41,20.31,20.31,0,0,1,9.35,3q48.38,27.45,96.65,55.05c5.15,3,9.62,6.53,12.16,12.11a22.92,22.92,0,0,1,2.89,11.93c.17,25.72.08,51.43.07,77.14a15.68,15.68,0,0,1-1.77,7.67c-4,4.19-7.58,4.29-14.33.43-7-3.53-13.49-8.07-20.55-11.57-6.51-3.56-12.87-7.4-19.2-11.28-7.94-4.06-15.61-8.61-23.4-12.94a63.73,63.73,0,0,1-7.2-4.61c-.39-.17-.78-.35-1.18-.51-.57-.27-1.09-.64-1.67-.9-2.26-1.16-3.56.45-5,1.71a36.38,36.38,0,0,1-5.5,4.15,3.06,3.06,0,0,1-2.85,0c-2.85-2.22-2.6-5.63-2.88-8.61-.41-4.56-2.34-7.73-6.47-9.61-.4-.33-.79-.65-1.21-.94-3.37-2.07-6.82-4-9.33-7.21-4.52-5.87-5-12.6-4.54-19.57A8,8,0,0,1,452.86,140Z"/><path class="cls-6" d="M478.77,48.7A15.66,15.66,0,0,1,488,51.83c2.55,1.77,4,2,3.87-2-.23-6.24-.16-12.49-.21-18.73,0-.4,0-.8,0-1.19.78-5.59-.88-11.32,1-16.84,2.54,1.39,2.22,3.88,2.25,6.15.13,9.28,0,18.57.08,27.86,0,1.89-.33,4,1.51,5.77,1.59-1.71,1.12-3.59,1.15-5.29.1-6.3-.17-12.61.16-18.9.13-2.47,0-5.69,4.28-4.35.6,1.12.28,2.34.42,3.51-.17,10.12,1.2,20.22.18,30.34-1,1.77-.7,4-2,5.65-1.72,1.72-3.72,1.31-5.52.38C489,61,482.85,57.66,477,53.88c-1.26-.81-2.42-1.8-2.31-3.55l2.1-1.27A1.54,1.54,0,0,1,478.77,48.7Z"/><path class="cls-7" d="M257.79,655c0-.13.07-.27.1-.4a2.63,2.63,0,0,0,.15-.35,4.92,4.92,0,0,0,.3-1,5.24,5.24,0,0,0,.09-1.37,6.48,6.48,0,0,0-.51-2.15c.32-1,.64-2.07,1-3.1a5.86,5.86,0,0,0,0-4.88,21.09,21.09,0,0,0,1.74-3.28,4.24,4.24,0,0,0,.2-1.19,1.55,1.55,0,0,0,0-.21,2.59,2.59,0,0,0,0-.48,5.24,5.24,0,0,0-.56-1.5c-1-1.9-3-2.89-4.8-4.07-14.6-9.83-29.41-19.36-43.83-29.47l-1.06-.66c-.67-.43-1.34-.86-2-1.31h0c-5.87-3.88-11.43-8.22-17.69-11.5a5.13,5.13,0,0,1-1.45-.47h0a16.13,16.13,0,0,1-2-1.24h0c-.28-.18-.55-.37-.83-.54a7.68,7.68,0,0,0-.74-.41,5,5,0,0,0-1.54-.48c-.47.11-.93.22-1.38.35a14.91,14.91,0,0,0-8.4,5.23,6.32,6.32,0,0,0-.47.68,10.91,10.91,0,0,0-.8,1.37c0,1.6-.29,3.25-.46,4.88l0,.3,2.24,1.52,81.3,55,0,.09v0Z"/><path class="cls-8" d="M260.82,636.54q-24.16-16-48.33-31.95a9.37,9.37,0,0,1-1.61-1.86,19.68,19.68,0,0,1-2.78-4.13c-1.65-4.16-.08-7.33,4.58-8.83,12-3.85,24.14-7.51,36.24-11.16,5.25-1.59,10.53-3.08,15.76-4.77a5.2,5.2,0,0,0,4.05-5.5c0-3.33,0-6.67.07-10,.2-5.82,2.29-8.32,8.1-8.61,10.62-.53,21.22-1.35,31.82-2.09,8.78-.61,17.58-.9,26.33-1.94.66-.08-.17,0,.5,0,10.3-.8,12.3,2.11,8.06,10.74-6,12.23-11,25-16.79,37.31-1.14,2.42-3,4.4-4,6.88-13.68,7.84-27.38,15.64-41,23.53C274.78,628.21,267.4,631.7,260.82,636.54Z"/><path class="cls-9" d="M322.84,600.61c-1.29-2.69.54-4.75,1.51-6.92,6.33-14.11,12.66-28.22,19.15-42.26,1.77-3.84-.42-3.91-3.05-3.75-11.43.7-22.86,1.31-34.27,2.21-8.77.7-17.5,1.68-26.31,1.78-8.56.09-9,.53-9,9,0,13.68,0,13.63-13,17.51-15.13,4.54-30.23,9.22-45.37,13.75-2.74.82-4,2-2.84,5a36.41,36.41,0,0,1,1.19,5.84c-7.51-3.57-13.7-9.26-21-13.15-1-1.7-3.14-2.8-2.77-5.23.54-2.58,2.62-3.73,4.65-4.89,24.16-13.76,48.17-27.79,72.35-41.52,2.41-1.37,4.9-3.08,7.95-1.57,1.85,6.51,6.72,6.57,12.28,6.25,19.85-1.12,39.71-2.24,59.58-3.16a5.39,5.39,0,0,0,4.88-2.9,107.59,107.59,0,0,0,5.1-10.26c1.38-3.31.57-4.22-2.85-4.09-15.41.56-30.8,1.76-46.24,1.58-2.44,0-5.06.39-6.95-1.84-1-2.51,1-3.48,2.47-4.7,2-1.69,4.77-2.14,6.82-3.81a5.12,5.12,0,0,1,3.14-.75c6.2,1,12.22-.69,18.31-1.29a14.16,14.16,0,0,0,9.29-.14,8.16,8.16,0,0,1,2.94-.51c8.64-.12,17.27-.43,25.9-1,8.21-.53,9.79,2.17,6.21,9.44-9.83,20-19.15,40.25-29,60.22-2.42,4.9-4.33,10.07-8,14.25Z"/><path class="cls-9" d="M433.66,535.69a10.37,10.37,0,0,1-4.17,4.67q-39.93,22.42-79.75,45.06c-1.6-2.12-.5-4.14.31-6.1,3.9-9.52,8.36-18.79,12.74-28.09,5.65-12,10.94-24.18,16.76-36.12,2.26-4.64,5.4-6.49,10.52-6.59,15.07-.29,30.12-1.5,45.19-1.9,1.94-.06,4-.46,5.79.83a5.05,5.05,0,0,1,.7,4.75c-1.72,6.74-3.42,13.5-5.31,20.2A4.43,4.43,0,0,1,433.66,535.69Z"/><path class="cls-10" d="M433.66,535.69q3.48-14,6.95-28c-1.9-2-.5-4.18-.28-6.29q7.28-31.44,16.08-62.49a4.11,4.11,0,0,1,1.1-2.11c4.85-4,10.37-7,15.84-10,1.9-1.05,4-2.74,6.22-.33,1.36,5.89-.65,11.48-1.72,17.1-3.61,18.89-6.41,37.92-10.52,56.7-.35,1.9-.34,3.87-1.1,5.69-1.1,5.33-.69,11.09-4.48,15.65-7.85,5.86-16.95,9.64-25.1,15C435.37,537.49,434.14,537.63,433.66,535.69Z"/><path class="cls-11" d="M441.84,501.71l-1.23,6c-7.47,1.81-15.15,1.22-22.72,1.85-10.25.85-20.57.83-30.85,1.14-2,.06-3.38.62-4.3,2.64q-16.42,36.07-33,72.08c-4.28,3.32-9.19,5.6-13.88,8.24.51-5.58,3.74-10.11,6-14.95q14.85-31.29,30.17-62.36c2-4.06.79-5.15-3.12-4.63-10.54,1.39-21.21.31-31.75,1.77-2.72.38-5.63.88-8.29-.64.94-3.15,4-3.62,6.34-5a32.28,32.28,0,0,0,4.6-2.89,3.77,3.77,0,0,1,1.42-.59,20.09,20.09,0,0,1,2.33-.13c9.6-.63,19.15-2.16,28.81-1.66,2.7.14,4.2-1.39,5.38-3.65,3.69-7.06,6.75-14.42,10.66-21.37a5.83,5.83,0,0,1,1.6-1.82,30.84,30.84,0,0,0,5.91-3.54c1.62-1.15,3.55-1.86,5.6-.79,2.13,3.05.25,5.81-.95,8.37-2.66,5.71-5,11.59-7.91,17.17-1.63,3.07-1,4.84,2.69,4.63,12.07-.68,24.16-.77,36.22-1.53C435.1,499.81,438.9,498.32,441.84,501.71Z"/><path class="cls-9" d="M465.66,500.66c2.5-14.49,5-29,7.5-43.45,1.81-10.42,3.7-20.82,5.55-31.22,0-.23,0-.45.05-.68,1.61-3,4.73-4.08,7.39-5.74,1.31-.54,2.19-1.75,3.53-2.25,2.51-.41,4.52-3.55,7.51-1.38-1.7,7.48,4.21,11.22,8.14,15.66,4.16,4.71,8.12,9.64,12.68,14a11.77,11.77,0,0,1,3.54,11.31c-1.78,10.12-3.92,20.16-5.87,30.24a13.91,13.91,0,0,1-2.9,5.7l-12,6.87c-10.1,3.05-20.5,3.14-30.91,3A4.55,4.55,0,0,1,465.66,500.66Z"/><path class="cls-11" d="M512.78,492.84c2.21-11.87,4.28-23.76,6.7-35.58.88-4.31,0-7.38-3.15-10.62-7.21-7.29-13.76-15.23-20.88-22.61-3.63-3.75,1.24-5.45,1.33-8.22-.08-2.34,2-3.14,3.25-4.49,2.06-1.25,4.07-2.69,6.69-2.3,2.65,1.43,1.32,3.31.49,5-.71,1.48-1.84,2.72-2.64,4.16-.95,1.69-.09,2.79,1.05,3.87s2.33.94,3.48-.08c3.11-2.74,5.44-6.16,8.16-9.25,1.11-1.26.51-2.4-.32-3.55-1.05-1.46-2.26-2.88-1.93-4.91a5,5,0,0,1,5.34-3.51,8.78,8.78,0,0,1,4.17,2.59c10,10.49,21.09,19.74,31.16,30.1,5,5.11,5,7.23,0,12.56-4,4.23-7.54,8.84-11.73,12.88-1.33,1.27-2.74,2.73-.73,4.6,1.77,1.64,3,.24,4.3-.77,6.34-4.88,11.68-10.83,17.4-16.37,1.76-1.72,3.3-3.79,6-4.29a3.91,3.91,0,0,1,3.59,2.37c.75,2.43-.54,4.22-2.07,5.77-7.78,7.91-15.17,16.26-24.67,22.29l-3.81,2.35c-3.45,1.86-5.65-.29-7.69-2.52-2.85-3.14-5.4-6.58-9.23-9.67-1.56,5.86-2.21,11.37-3.26,16.8-.56,2.88-.61,6-3,8.18A14,14,0,0,1,512.78,492.84Z"/><path class="cls-10" d="M573.69,444.88l-2.89-2.37c-2.29.3-3.73-1.18-5.09-2.59-11.92-12.41-25.16-23.45-37-35.95-1.47-1.55-3.19-2.93-3.6-5.22a3,3,0,0,1,.3-1.47c3.05-3.24,6.62-5.49,11.18-5.83,6.4,1.64,10,7,14.65,11a4.27,4.27,0,0,1,.34,1.45c-2.17,8.71,0,14.13,7.23,19.26,6.39,4.53,13.75,6.3,21.13,8.15,2.91,1.15,5.81-1.32,8.72,0a3.58,3.58,0,0,1,2,.91,2,2,0,0,1,.4,1.36c-3.21,2.85.6,3.57,1.58,5.14,1.76,1.75,4.66,2.7,4.18,6-4,4.13-9.53,5.82-14.16,8.93C578.13,452.29,575.37,449.14,573.69,444.88Z"/><path class="cls-12" d="M648.72,400.69c2.79,2,5.42,4.22,8.4,5.81,3.88,2.06,4.39,4.79,2.7,8.43.7-5.08-3.08-2.69-5.18-3.1-2.16.74-4.11.27-6.19-.62-8-3.45-16.14-6.53-24.19-9.86a5.7,5.7,0,0,1-2.62-1.57,15.79,15.79,0,0,0-8.19-6.07c-3-1-5.8-2.63-6.37-6.3a7,7,0,0,1,2.12-6c2.26-1.35,4.44-.64,6.67.18,2.8,1,5.55,2.26,8.6,2.35a10.37,10.37,0,0,1,4.36,1.37c1,.62,1.78,1.65,2.9,2.16,3.47,2.3,7.16,4.26,10.39,6.92a13.66,13.66,0,0,0,1.67,1.14C645.68,397,648,398.11,648.72,400.69Z"/><path class="cls-9" d="M520.72,487.66c.5-9.86,3.27-19.32,4.7-29.89,4,4.35,7.74,7.53,10.74,11.48,2,2.57,3.87,5.51,7.72,5.62C536.42,479.62,529.07,484.54,520.72,487.66Z"/><path class="cls-9" d="M590.46,433.58a6.33,6.33,0,0,0,.44-.7,2.72,2.72,0,0,1,2.52-1.58,55.58,55.58,0,0,0,26.33-9.39,3.81,3.81,0,0,1,2.84-.75c2.28,1.62,5.43,2.31,6.15,5.64-10.41,6.37-20.85,12.67-31.91,17.89l-5.15-4.88c-.37-1.06-1-2.63-.33-3.17C594,434.57,590.65,434.6,590.46,433.58Z"/><path class="cls-9" d="M573.69,444.88a56.68,56.68,0,0,1,9,8.74q-15.9,8.82-31.8,17.65c-1,.57-1.91,1.38-3.18,1.25q11.32-11.46,22.63-22.91C571.69,448.22,573.46,447.09,573.69,444.88Z"/><path class="cls-13" d="M465.66,500.66l35.16-1c-4.06,2.88-8.21,5.59-13.06,7-6.49,2.86-13.37,2.14-20.16,2.19-1.88,0-3.81-.54-3-3.29C464.79,503.9,464.59,502.15,465.66,500.66Z"/><path class="cls-9" d="M646.7,416.63l-14,8.16c-4,.06-7.38-1.05-9.16-5.06-.14-4.2,1.58-7.79,3.79-11.22,1.51-1.13,3.14-.82,4.7-.24,4.15,1.54,8.2,3.36,12.31,5C645.75,413.84,646.94,414.81,646.7,416.63Z"/><path class="cls-9" d="M464.65,505.59c.4,1.37,1.26,1.54,2.65,1.49,6.82-.24,13.64-.28,20.46-.39a290.21,290.21,0,0,1-26,14.95A98.23,98.23,0,0,1,464.65,505.59Z"/><path class="cls-14" d="M624.57,399.8l30.07,12a3.56,3.56,0,0,1-3,1.95c-2,1.5-3.94.66-6.08,0-6.09-2-11.47-6-18.12-6.34-1.92-.67-2.54-2.32-3.09-4C623.92,402.15,623.44,400.91,624.57,399.8Z"/><path class="cls-15" d="M627.58,406.77c.86-2.78,2.52-1.17,3.88-.66,6.72,2.53,13.42,5.11,20.13,7.67a5.82,5.82,0,0,1-4.89,2.85,140.94,140.94,0,0,0-18.85-7.92l-.5-.33A1.29,1.29,0,0,1,627.58,406.77Z"/><path class="cls-15" d="M624.63,419.52c2.11,2.65,5.85,2.81,8.1,5.27a5.76,5.76,0,0,1-4,2c-2.2-1.53-5.59-1.65-6.13-5.16a1.7,1.7,0,0,1,.79-2.21A1.44,1.44,0,0,1,624.63,419.52Z"/><path class="cls-16" d="M659.21,431.71c-.22-.74-.43-1.48-.65-2.21a.79.79,0,0,1-.09-.22.57.57,0,0,1,.18-.53l.07.39Z"/><path class="cls-17" d="M258.89,646.57c0-1.62,0-3.25,0-4.88A3.48,3.48,0,0,1,258.89,646.57Z"/><path class="cls-18" d="M258.8,652.94a4.27,4.27,0,0,1-.8,1.49,1.34,1.34,0,0,1-.11.14c0-.37,0-.75,0-1.12,0-1.26,0-2.51,0-3.77a4.8,4.8,0,0,1,.69,1.11A3.16,3.16,0,0,1,258.8,652.94Z"/><path class="cls-19" d="M616.7,75l4,6a26.82,26.82,0,0,1,3,13q-.06,120.35-.07,240.67c0,3.13-.57,6.26-.87,9.4-.07,3.08-2.07,3.74-4.64,3.68a3.66,3.66,0,0,1-1.53-.75c-1.74-1.6-2-3.71-2-5.9-.07-4-.09-7.92,0-11.88.09-5.39.37-10.81-2.37-15.78,1.38-3.89.54-7.81.47-11.77-.22-11.9-.51-23.81.17-35.72a120.29,120.29,0,0,1-.05-17,120.17,120.17,0,0,1,.05-18c-.64-6.31-.21-12.63-.17-19-.59-5.67.37-11.36-.24-17,.26-7.32-.21-14.64.35-21.95-.61-6.66-.08-13.32.07-20a140.67,140.67,0,0,1-.07-20c-.49-7.25-.27-14.51-.07-21.77-.58-4.88.17-9.76,0-14.64a16.59,16.59,0,0,1,.35-6.8,24.7,24.7,0,0,0,1-8.84C614.07,78.62,614,76.2,616.7,75Z"/><path class="cls-20" d="M628.18,147v16.9c-1.84-5.62-1.4-11.26-1.36-16.9Z"/><path class="cls-21" d="M560.73,40l15,8,7,5c1.21,1.77,1.11,3.7.75,5.67a10.66,10.66,0,0,0-.23,4.32c.54,2.88.16,5.4-2.74,6.92-4.76,1-7.84-2.43-11.51-4.31-3-2.86-7.32-3.45-10.57-5.95-1.65-1.26-3.8-2-4.14-4.47,1.18-2.25.54-5,2-7.2,3.4-.58,5.75,1.74,8.15,2.77-1.88-1.91-5.81-1.54-7.28-4.83C557.24,43.3,558.16,41.16,560.73,40Z"/><path class="cls-22" d="M581.81,59.31c-.15-2.15-.21-4.3.9-6.28,6.74,2,11.78,7.06,18,10,4.34,5.86,2.36,11.94.64,18-2.14,1.65-4.15.74-6.16-.31-3.46-2.86-7.88-4.08-11.53-6.62-1.84-1.28-4.29-2.08-4.11-5,3.1-1.69,1.89-4.71,2.24-7.25C582.43,61,582.11,60.16,581.81,59.31Z"/><path class="cls-23" d="M600.66,81.17c-.49-6,1.2-12.09,0-18.14,6,3.08,12.06,6.12,16,12-1.71,3.42,0,7-.46,10.52-.19,1.6-.19,2.84-1.76,3.57C609.52,90.07,602.39,86,600.66,81.17Z"/><path class="cls-24" d="M71.9,527c9.44,5.44,18,15.53,27.44,21l73.4,49.69,2.24,1.52c-.06-2.54-.1-5.07-.15-7.6a5,5,0,0,0-.33-1.15c-1-2.4-3.52-3.24-5.56-4.45-15.83-9.42-31.81-18.59-47.77-27.8-14.51-8.38-28.89-17-43.55-25.15-.77-.43-1.55-1-2.35-1.36h0Z"/><path class="cls-25" d="M533.75,12.89c4.45,3.39,9.85,5.33,14,9.21-2.23,2.77.54,6.1-1,9-2.45,1.82-4.32-.1-6.32-1-2.26-1-4-2.94-6.34-3.78-2.78-1.84-6.29-2.79-7.65-6.34-.57-3.38-3-7,1.32-9.71Z"/><path class="cls-26" d="M527.74,10.22c-1.74,3.28.06,6.55,0,9.83-4.8,1.1-10.78-2.31-13.41-7.65C514,9.15,512.42,5.71,515.76,3,520.17,4.72,523.86,7.64,527.74,10.22Z"/><path class="cls-27" d="M515.76,3v10c-6.36.81-12.6-4-13.22-10.11a6.11,6.11,0,0,1,.26-.86c.3-1,.87-1.52,2-1.21l1.08-.59c3.52-.93,6.55.61,9.64,1.91A4.9,4.9,0,0,0,515.76,3Z"/><path class="cls-28" d="M534.75,25c4.5,1,7.59,4.81,12,6l14,9c-.46,2.22-1,4.4-3,5.81-1.55,1.14-2.64.09-3.77-.77-1.09-1.62-3-1.9-4.54-2.76,1.2.76,2.68,1,3.77,1.91.8,1.66,3.44,1.7,3.53,4-.75,2.24,3.73,5.95-1.92,6.8-1.87,1.32-3.39.09-5-.65a129.6,129.6,0,0,1-12-6.59c-2-1.2-3.93-2.43-4.45-4.94-1.56-5,.51-10-.25-15A2.91,2.91,0,0,1,534.75,25Z"/><path class="cls-29" d="M492.5,264.71q0-41.76-.07-83.5l7.74,4.36c3.21,7,1.78,14.42,1.43,21.64-.56,11.32-.16,22.63-.32,33.95,0,1.73.75,3.22,1.26,4.77.75,3.35,3.72,4.37,6.24,5.84,1.55.91,3.15,1.77,4.61,2.83,7.12,3.87,14.21,7.78,21.08,12.07,3.21,2.36,7.18,3.75,9.46,7.33.9,3.55,3,7.22-1,10.3-3.12,1.15-4.87-1.68-6.78-2.08,1.25,1,3.42,1.71,5.37,2.84,3.3,2.05,7.48,2.94,9.19,7.06-.11,2.48,0,5,0,7.44s-.6,5-3.24,6.23c-3.05.91-5.47-.68-7.91-2.07q-13.83-7.86-27.64-15.76a21.24,21.24,0,0,0-6.42-2.53c-3.69-.85-6.08-3.35-8.08-6.34-.44-1.2-1.44-2-2.06-3.12C493.28,272.5,490,269.33,492.5,264.71Z"/><path class="cls-30" d="M474.69,50.33l25.24,14.32c2.53-.92,4.54.49,6.52,1.62C523.76,76.12,541,86.09,558.38,95.8c6.67,4,13.65,7.53,20.3,11.59,4.56,2.78,9.12,5.69,9.79,11.78a3.14,3.14,0,0,1-.58,1.44c-4.41,2.6-8.5,6.22-14.28,4.43-5.72-8.66-15.33-11.93-23.7-16.78-28.43-16.45-57-32.59-85.62-48.78A45.74,45.74,0,0,0,457.83,57C463.25,54.24,467.88,49.51,474.69,50.33Z"/><path class="cls-31" d="M573.61,125c4.82-1.29,8.93-4.48,14-5.08,3.19.79,3.81,3.38,4.08,6.07.23,2.45.27,4.93.32,7.41a89.17,89.17,0,0,0,.33,25.11c1.4,9.8.6,19.77.37,29.67,0,6.4,0,12.82.19,19.22.16,5.92-2.44,9.67-7.65,12a30.65,30.65,0,0,0-5.54,3.22c-1.35.64-2.7,1.3-4,0a17.81,17.81,0,0,0,1.2-7.3q-.17-38.15-.23-76.27A37.34,37.34,0,0,0,573.61,125Z"/><path class="cls-32" d="M542.71,210c6.2,2.22,11.69,5.75,17.06,9.45a7,7,0,0,0,3,1.61c1.12,1.53.12,2.56-1,3.31-1.64,1.12-3,2.64-4.9,3.38-3.33,1.34-4.12,3.9-4.09,7.17,0,2.77.54,5.7-1.49,8.13a2.87,2.87,0,0,1-1.4.65,2.33,2.33,0,0,1-2.51-1.35,55.24,55.24,0,0,0,.3-8.91,4.93,4.93,0,0,0-2-4.31c-1.22-.87-2.43-2.27-3.92-1.76s-.81,2.32-1,3.58c-.64,5.66-2.1,6.51-7.54,4.32a5.8,5.8,0,0,0-2.85-.85c-1.58,3.1.8,7.23-2.68,9.7a2.11,2.11,0,0,1-2.25-1.63c-.83-5-4.23-4.11-7.53-3.41-3.61.76-6.74,2.83-10.21,3.9-2.45.77-5.36,2.71-7.41-.89,0-6.08,0-12.16,0-18.23.18-2,1.83-2.71,3.35-3.25,9.84-3.5,19.81-6.63,29.77-9.75A21.49,21.49,0,0,1,542.71,210Z"/><path class="cls-33" d="M553.84,196.53c-11.58-2.73-9.16-14.29-15.28-20.7,0,2,.13,4.09,0,6.12-.15,1.77.77,5-1.67,4.75s-6.11-1.27-6.1-5.28c0-5.82.11-11.64.16-17.47,0-1.83-.14-3.67,0-5.49.32-3.39-1.7-8.32,1.13-9.76,2.43-1.23,5.95,2.69,8.91,4.42,6,3.53,10.14,8.56,10.64,15.88.16,2.38.2,5.31-1.87,6.41-3.66,1.94-1.92,4.11-1.13,6.45C550.25,186.68,552.77,191.2,553.84,196.53Z"/><path class="cls-33" d="M509.1,134.23c7.54,2.45,11.27,6.71,12.33,14.32,1.47,10.63,4.27,21.08,6.53,31.76-6.29-1.5-7.77-2.65-8.73-8.19-.85-5-5.36-5.33-8.47-7.43-1.26-.86-1.54.64-1.84,1.5-.49,1.44-.54,4.17-2.86,2.25-2-1.68-7-1-5.48-6C503.45,153.06,506.24,143.7,509.1,134.23Z"/><path class="cls-34" d="M550.74,242.78a7.41,7.41,0,0,0,0-1.49c-1.91-9.68,1.68-16.07,11.24-19,.34-.11.5-.81.75-1.23,4.22,1.3,8.12,5.34,12.94,1.52l2.63-.79c.94-.29,1.83-.84,2.87-.53.36,6.29,5.55,11.47,4.19,18.17-3.12,3.78-7.5,4.33-12,4.64-3.62-.44-5.91-4.16-9.77-3.94-1.32,1.07-1.25,2.58-1.43,4.06-.53,4.52-2.47,5.62-6.62,3.62C553.38,246.8,551,245.75,550.74,242.78Z"/><path class="cls-35" d="M542.71,210c-10,3.22-19.9,6.51-29.89,9.61-3.9,1.21-7.54,3.43-11.82,3.29-1.66-4.45-.86-9.08-.47-13.54.26-3,3.68-3.79,6.27-3.95,6.39-.4,11.33-4.24,16.94-6.49A132.16,132.16,0,0,1,542.71,210Z"/><path class="cls-33" d="M483.76,137.85c.06,9.38,2.33,12.58,10.83,15.44,4.2,1.42,2.07,4.83,2,7.14-.14,2.85-2.53,1-3.74.57-13.19-4.29-21.38-24.15-15.21-36.62,1.83-3.71,4.65-5,8.61-3.76,4.24,1.38,7.48,4.19,10.57,7.29,2.28,2.28.53,4.31-.16,6.4-.35,1.09-1.18.94-1.91.28-.37-.33-.67-.75-1-1.07-2.09-1.79-4-4.9-7.08-3.6C483.12,131.41,483.94,135.25,483.76,137.85Z"/><path class="cls-36" d="M523.74,199c-.92,1.17.55,2.2.2,3.31-.25.77-.81,2.09-1.48,1.64-3.75-2.54-5.86.79-8.44,2.2a7.61,7.61,0,0,1-4.19,1.05c-7.28-.23-9.08,1.58-9.05,8.81,0,2.33.14,4.65.22,7v20c1.55,2,1.93,4.07-.25,6-1.14-1.28-.62-2.84-.62-4.27q0-29.5,0-59C508.19,189.74,516.13,194.06,523.74,199Z"/><path class="cls-37" d="M507.35,121.67c-11.22-2.47-17.54-12-15.45-22.73.93-4.77,4-6.34,8.39-4.22a20.31,20.31,0,0,1,3.76,2.4c1.8,1.43,4.33,3.11,2.25,5.59-1.86,2.2-2.83-1-4.12-1.72-2.71-1.56-4.35-1.19-5.2,1.89-1.22,4.42.83,9.12,5.33,11.82,2.46-3.93-5.27-5.35-2.17-9.16C508.23,108,508.27,108.06,507.35,121.67Z"/><path class="cls-37" d="M521.43,121.64c-2.11.42-3.57-3-5-.66-1.26,2.1.68,3.57,2.66,4.45,2.85,1.26,3.94,3.24,2.32,6.63-2.83-1.66-5.48-3.29-8.21-4.78a3.27,3.27,0,0,1-1.88-3.19c0-6.89,0-13.79,0-21.6,3.74,2.12,6.52,3.84,9.42,5.3,2.08,1,1.82,2.74,1.25,4.21-.86,2.23-2.06.2-3.08-.09-.86-.25-1.76-1.39-2.42.11s.22,2.52,1.56,3.13C520.92,116.45,522.76,118.23,521.43,121.64Z"/><path class="cls-38" d="M533.57,121.84c0,3.91.06,8.2-.05,12.47,0,1.31.48,3.51-1.63,3.39a3.38,3.38,0,0,1-3.34-3.61c.05-4.31-.08-8.62,0-12.92.06-2.33-.26-4.23-2.67-5.26-2.67-1.14-2-3.39-1.74-6.15,4.12,2.37,7.88,4.67,11.78,6.72a3.58,3.58,0,0,1,1.85,4.59C537,124,535.09,120.18,533.57,121.84Z"/><path class="cls-39" d="M490.92,180.28c-1,.85-2.06,1.63-3,2.56-2.36,2.4-3.41,1-4.16-1.36C485.82,179,488,177.64,490.92,180.28Z"/><path class="cls-40" d="M458.41,269.61c3.32,1.76,6.5,3.8,9.77,5.66.83.44,1.53,1.06,2.3,1.57,2,1.94,4.75,2.75,6.94,4.42a9.45,9.45,0,0,1,1.25.58c5.08,2.75,10,5.77,14.88,8.86,11.32,6.13,22.19,13,33.26,19.58,1.84,1.09,3.73,2.2,4.45,4.45,0,3.85-4,4.23-5.73,6.58-6.47,4.17-13.58,7-20.64,9.95-2.58,1.06-5.24.57-7.87,0-6.81-1.56-13.73-2.76-20.37-4.9-6.28-2-11.77-.68-17.1,2.44-20.21,11.81-40.61,23.29-61.05,34.7a20.9,20.9,0,0,0-9.1,9.57c-5.55,11.73-11.88,23.06-18,34.49a38.73,38.73,0,0,1-14.66,15.22C343,431,329.46,439.43,316,448c-13.12,8.37-24.65,18.17-30.5,33.2a5,5,0,0,1-1.38,2.06c-2.27,1.47-4.7,1.29-7.22.83-15.75-2.87-30.11-9.24-43.61-17.64-8.72-5.42-17.64-10.59-25.43-17.4-4.66-4.08-8.2-9.1-11.76-14.11a11.06,11.06,0,0,1-1.68-6.66c0-3.83,0-7.65.13-11.48.84-4.76,4.55-7.59,7.43-11,2.4-2.26,5.64-3.3,8-5.58,7.37-5.6,14.77-11.16,22.59-16.13a18.1,18.1,0,0,0,4.27-3.37c1.8-1.77,4.32-2.47,6.18-4.17,2.45-2.33,5.41-4,8.12-6,3.61-2.77,7.27-5.47,11-8,4.47-2.54,6.56-7.42,10.42-10.55a19.43,19.43,0,0,1,1.43-1.44c2.17-2.53,3.95-5.41,6.6-7.52a11.17,11.17,0,0,0,2.15-2.4c1.28-1.72,2.81-3.22,4.08-4.95,1.81-2.19,4.19-3.81,6-6,2.79-4.51,6.93-7.87,10.18-12,1.69-1.78,4.13-2.27,6.12-3.53,5.34-3,10.81-5.71,16.18-8.65,2.27-1.77,5.3-2,7.58-3.72,5.86-3.51,12.27-5.93,18.18-9.32,2.27-1.09,4.82-1.6,6.84-3.22,2.44-2.18,5.62-3.06,8.33-4.78,1.54-1.06,3.45-1.36,5-2.35,6.14-3.73,12.89-6.28,19.13-9.82a12.79,12.79,0,0,1,4.46-1.16,123.57,123.57,0,0,0,14.4.59c3.2-.12,6.25-.61,8.86-2.65a79.1,79.1,0,0,0,9.32-4.49,22.11,22.11,0,0,1,14.11-3.28,9.54,9.54,0,0,1,8.2,5.18l1,.43Z"/><path class="cls-41" d="M491.67,235.44c0,4.46-.09,8.91-.15,13.36Z"/><path class="cls-42" d="M491.52,248.8c0,.73,0,1.45,0,2.17"/><path class="cls-11" d="M534.75,25c1,6.16,0,12.3-.16,18.45a3,3,0,0,1-2.17.49c-9.61-4-18.21-9.83-27.25-14.89a7.46,7.46,0,0,1-3.85-4.3c-2.55.49-1.35,2.53-1.37,3.8-.11,9.61-.06,19.22-.06,29.17-5.16-1.11-7.52-3.31-7.33-8.81.41-11.93.07-23.89,0-35.83-.5-4.65,3.56-5.9,6.16-8.23,1.47-.22,2.06-2.17,3.77-1.93,3,5.18,8.16,7.6,13.22,10.11,3.81,2.66,7.63,5.29,12,7C529.68,22.28,533.16,22.31,534.75,25Z"/><path class="cls-43" d="M557.37,97.18Q532.26,83.08,507.16,69c-2.44-1.38-4.82-2.88-7.23-4.33.29-1.83-.3-3.76.63-5.52,2.07-1.51,3.75-.11,5.53.7,4.23,1.93,7.8,5.05,12.09,6.87,4.72,2.75,9.51,5.38,14.18,8.22,8.77,4.94,17.52,9.89,26.36,14.72,1.76,1.78,5.08,2.38,4.53,5.93C561.86,98.17,559.57,97.51,557.37,97.18Z"/><path class="cls-44" d="M501.32,24.77,532.78,43c-.84,3.17-3.83,3.41-6.17,4.31-5.17,2-10.21,4.78-16.11,3.6-5.28-4.27-6-10.83-8.14-16.62-.85-2.25-.81-4.82-1.65-7.14A2.28,2.28,0,0,1,501.32,24.77Z"/><path class="cls-45" d="M500.71,27.16C505,34.39,506.85,42.65,510.76,50c4.48,3.83,5.69,9.33,7.45,14.56.14,1.26.65,2.57-.49,3.67l-17.16-9.14Z"/><path class="cls-46" d="M71.27,529c.72-1.29,2.32-2,3.58-2.78,3.63-2.33,7.64-4,11.29-6.29.36-.22.71-.45,1.06-.69l.09,0c11-6.18,21.91-12.64,33-18.71l.17-.09c.26-.14.52-.27.77-.42,4.72-2.54,9.24-5.43,14-7.92.39-.22.79-.42,1.18-.62h0c4.63-2.6,9-5.57,13.85-7.84l1-.46.13-.08c13.21-7.63,26.26-15.53,39.82-22.55l.09-.05c.4-.22.79-.46,1.18-.7a11.36,11.36,0,0,1,3.83-1.74,8,8,0,0,1,.87-.08,1.6,1.6,0,0,1,.23,0,5.78,5.78,0,0,1,4,2.26c7.61,9.72,18.49,15.24,28.23,22.23,1.89,1.36,4.73,2,4.79,5.15a5.52,5.52,0,0,1-.17.53,4.39,4.39,0,0,1-.38.75c-.91,1.46-2.54,2.17-4,3-5.1,3-10.32,5.86-15.14,9.42,7.85-1.88,14-7.2,21.19-10.44.47-.21.93-.41,1.41-.6l.26-.11c2.19-1.1,4.27-.49,6.13.67,11.9,7.41,25.24,11.39,38.2,16.3a4,4,0,0,0,.66.18,5.08,5.08,0,0,0,1.73.1,48.82,48.82,0,0,0,4.87-1.22c1.79-.35,3.54-.94,5.37-.25a6.12,6.12,0,0,0,.5.39,4.94,4.94,0,0,0,.44.36,34.6,34.6,0,0,0,7.85,4.25c1.46.6,3.14,1,4,2.34a3.69,3.69,0,0,1,.58,1.44l-10,6.13a5.25,5.25,0,0,1-.22.63,6.16,6.16,0,0,1-2.72,3.2c-6.3,3.66-12.53,7.42-18.88,11a8.36,8.36,0,0,1-4,.82c-.42,0-.84,0-1.26.08l-83.22,47.88a2.26,2.26,0,0,1-.51.95,1.63,1.63,0,0,1-.54.37,2.69,2.69,0,0,1-1.63.05l-10.1,5.79-.8-.47-59.48-34.37L99.34,548c-9.43-5.44-18-13.53-27.44-19Z"/><path class="cls-47" d="M184.93,585.83l2.68-1.37c1.54,1.36,1.86,3.25,2.26,5.11C187.93,588.72,186,587.77,184.93,585.83Z"/><path class="cls-7" d="M88,520.74c-4.48,2.64-9,5.24-13.43,8h0a8.37,8.37,0,0,1-1.08.54c-.23.11-.47.21-.69.33a2.82,2.82,0,0,0-.38.21c-.34.21-.39-.34-.4-.68s0-.39-.11-.06l-.46-.3-11.76-7.58L0,482.69l4.84-17.45.09,0c2.14.33,3.85,1.58,5.6,2.74,24.32,16.12,48.52,32.44,73,48.36,1.32.86,2.84,1.56,3.79,2.84a4.65,4.65,0,0,1,.72,1.52Z"/><path class="cls-42" d="M71.27,529,1.9,482"/><path class="cls-48" d="M270.83,536.57l27.09-15.7c8.21,1.87,16.48.84,24.69.28,10.95-.75,22,0,32.88-1.35,3.14-.39,3.27,1.17,2.11,3.57-2.46,5.1-4.88,10.21-7.16,15.38-1.18,2.69-3.34,2.78-5.76,2.91q-34.35,1.77-68.69,3.7c-2.81.16-4-.81-4.09-3.57C271.85,540,272.31,538.08,270.83,536.57Z"/><path class="cls-49" d="M307.94,514.73c-3.36-1.35-6.82-2.53-10.05-4.16-1.33-.67-3.84-1-3-3.71a4,4,0,0,1,3.06-2.91c7.1-2,14-4.63,21.44-5.39,1.16,0,2.18.79,3.69.48-.12-5.21-.63-10.48.75-15.7a41.71,41.71,0,0,1,8.95-16.53,19.16,19.16,0,0,1,13.51-6.65c6,1.56,9.12,5.41,10,12.3a24.55,24.55,0,0,0,.68,4.83c.6,3.58-1.41,6.88-1.16,10.43-3.48,7.23-7.1,14.36-15,17.86l0,0c-3.57,2.44-7.44,3.76-11.66,2.2-2.6-1-4.49.25-6.5,1.33-4.05,2.17-7.9,4.87-12.8,4.72Z"/><path class="cls-50" d="M309.82,513.87c4.72-2.65,9.43-5.31,14.17-7.94,1.27-.7,2.67-1.89,4.09-.86,4.17,3,8.41,1.75,12.7.55-3.27,3.55-7.6,5.35-11.88,7.23A31.21,31.21,0,0,1,309.82,513.87Z"/><path class="cls-51" d="M409.23,517.67a16.92,16.92,0,0,1,3.06,0c2.33.59,5.8-1.89,6.88,1.51s-4.21,9.16-7.65,9.45c-7.6.64-15.21,1.27-22.8,2-3.53.32-5.14.11-3.54-4.43,2-5.73,5-8.35,11.23-7.68C401,519,405.62,517.26,409.23,517.67Z"/><path class="cls-9" d="M441.84,501.71c-16.07.66-32.13,1.4-48.2,2-6.05.21-6.34-.45-3.74-6.11q5.19-11.32,10.36-22.65c.45-1,1.35-2,.49-3.23-.31-2.73,2-3.19,3.66-4.21,2.92-1.3,5.11-4.67,9-3.17,2.25,2.81.45,5.43-.64,7.88-2.63,5.91-5.58,11.68-8.13,17.64-1.77,4.14-1.54,4.63,2.74,4.8,8,.3,15.95-.47,23.9.58,3.56.47,3.83-2.66,4.39-5,3.13-12.9,6.76-25.68,9.9-38.58.76-3.1,2.13-5.93,3-9a5,5,0,0,1,1.48-1.9c2.57-1,4.44-4.48,8-2.37-3.46,17.34-8.66,34.26-12.79,51.44C444.25,493.84,443,497.76,441.84,501.71Z"/><path class="cls-52" d="M478.71,426,458.9,437.44c-3.3-3.46.13-6.53.57-9.78,5.26-6.38,12.57-9.47,20-12.35a1.76,1.76,0,0,1,1.8.64c1.84,3.88.05,6.89-2.34,9.75Z"/><path class="cls-53" d="M460.82,427.65l-1.92,9.8-.91,1-7.18,3.38c-3.48-3.7-.13-6.91.75-10.3C454.09,428.87,456.46,425.87,460.82,427.65Z"/><path class="cls-9" d="M389.88,478c-3.64,7.81-7.31,15.6-10.9,23.44-1,2.19-2.38,3.46-4.94,3.28-10.46-.74-20.83,1.36-31.28.94,2-4.1,5.92-6,9.49-8.13,10.4-6.17,20.82-12.32,31.34-18.28C385.47,478.17,387.37,476.27,389.88,478Z"/><path class="cls-54" d="M389.88,478l-47.12,27.66-2-.06c4.56-4.27,8.72-8.82,11.21-14.7.52-1.24,2-2.08,3-3.11.55-2.61,2.76-3.59,4.75-4.73,9.76-5.59,19.57-11.11,29.27-16.81,2.2-1.29,4.42-3.19,7.3-1.47,2.17,5.8-2.11,8.75-5.38,12.14Z"/><path class="cls-55" d="M390.88,476.9c1.34-4.12,4.53-7.48,4.95-12,1.67-5.35,6.05-6.56,10.86-7.13,2.81,1.26,1.85,3.37,1.28,5.46s-2.31,3.58-3.07,5.58l-4.15,2.85Z"/><path class="cls-56" d="M495.41,492.69a54.67,54.67,0,0,1-14.6-3.19c-6.56-2.41-7.91-6.74-3.94-12.42a41.64,41.64,0,0,1,5.56-6.37c2.61-2.45,2.8-4.9,1.34-8-4.59-9.92-1.6-17.19,8.65-21.79,4.49-2,8.24-1,10.94,2.9,2.12,3.05,4.31,5.86,7.53,7.83,2.61,1.59,3.28,3.93,2.44,6.9a28.83,28.83,0,0,1-4.7,9.3c-2.42,3.28-2.49,6.74-1.14,10.4C511.55,489.16,508.86,492.83,495.41,492.69Z"/><path class="cls-57" d="M478.92,425.7c.59-3.21,1.19-6.42,1.78-9.63.32-2.43,1.94-3.27,4.14-3.42,5.14,1.62,2.61,5.17,2.06,8.23Z"/><path class="cls-58" d="M486.9,420.88c-1.35-1.31-1.27-2.91-.82-4.52.36-1.28.26-2.23-1.24-2.57-.19-3.57,2.66-3.67,5-4.37,2.18-.17,3.84.57,4.68,2.72.57,3.73-2.91,4.7-4.67,6.84Z"/><path class="cls-59" d="M489.84,419l4-6.49c2.42-2.1,4.75-2.13,7,.32l-4,3Z"/><path class="cls-49" d="M500.79,412.81l-7-.32a5.28,5.28,0,0,0-4.07-1.95,3.44,3.44,0,0,1-.9-1.24c-5.84-14.2-.94-26.1,8.11-37,2.94-3.55,7-5.44,11.49-6.42,3.95-.06,6.45,2.62,9.18,4.87a7.77,7.77,0,0,1,1.52,2.53c2.18,5.37,2.12,5.29,7.07,1.76,3-2.15,5.56-5.4,9.9-5,4.37,1.79,7.78,4.34,7.74,9.66-2.17,4.81-7,6-11.08,8.41A136.84,136.84,0,0,1,520.61,395a9.71,9.71,0,0,0-4.69,5.33c-1.24,3.22-3.79,5.65-6.07,8.21-.86.92-2.15.73-3.18,1.23Z"/><path class="cls-9" d="M525.68,398.85c15.12,14.48,30.67,28.5,45.12,43.66-7.21,8.72-15.71,16.15-24,23.73-2.88,2.61-4-.33-5.63-1.66-1.93-1.58-2.65-3.11-.48-5.32,5-5.08,9.65-10.52,14.71-15.53,3-3,3.06-5-.07-8.1-11.39-11.37-23.93-21.57-34.53-33.73a1.27,1.27,0,0,1-.32-1.39C521.75,398.58,523.39,397.69,525.68,398.85Z"/><path class="cls-9" d="M551.41,440.54c-.21.63-.23,1-.44,1.23-4.59,5-9.17,10-13.83,14.9-1.21,1.28-2.45.56-3.43-.5-3.82-4.12-7.59-8.29-11.43-12.4-1.23-1.33-.73-2.28.3-3.39,3.72-4,7.46-8,11-12.08,2.08-2.38,3.78-2.65,6-.15,3.12,3.42,6.55,6.57,9.8,9.88A23.21,23.21,0,0,1,551.41,440.54Z"/><path class="cls-9" d="M532.2,422.76a18,18,0,0,1-1.85,2.79c-3.34,3.46-6.85,6.76-10.12,10.29-2.77,3-4.36.66-6-1.15s-4.8-3.1-1.63-6.37a99.46,99.46,0,0,0,9-10.55c2.13-2.92,3.87-3.33,6.16-.48C529.21,419.06,531.47,420.15,532.2,422.76Z"/><path class="cls-9" d="M506.67,409.72l2.08-2c2.35-.94,3.61-4.27,6.9-3.12,1.23,2.72,5.51,4,5,6.86-.4,2.33-3.44,4.2-5.28,6.31a62.05,62.05,0,0,0-4.1,4.94c-3,4.3-5.45,3.29-8.36-.21-1.67-2-1.86-3.18-.3-5.47S507.54,413.34,506.67,409.72Z"/><path class="cls-60" d="M515.65,404.65c-2.29,1.06-4.27,2.81-6.9,3.12,2.29-3.34,4.93-6.47,6.47-10.28.87-2.17,2.66-3.19,4.75-3.85.89,0,1.17.57,1.27,1.32a11.73,11.73,0,0,0-.27,6c-.07.32-.14.64-.22,1C518.69,402.15,517.18,403.42,515.65,404.65Z"/><path class="cls-9" d="M550.6,402.65c-4-.8-6.17-4.22-9.11-6.52-1.55-1.23-3.17-2.37-4.76-3.56a1.78,1.78,0,0,1-.37-1.34c2-3.5,4.13-7,7.61-9.3,7.09,1.06,13,4.5,18.1,9.36.4,1.41-.31,2.4-1.26,3.3a8.81,8.81,0,0,1-2.26,1.77C555.12,397.47,554.41,402,550.6,402.65Z"/><path class="cls-61" d="M579.75,432.86c-9.84-1.38-19-4.33-26.12-11.71-5.4-5.62-6.33-11.93-2.92-17.38a3.36,3.36,0,0,1,3.09,2c2.28,12.21,9.39,18.63,23,20.73,1.19.5,2.45.82,3.61,1.42,1.25,1.28,3.11,2.41,2.35,4.52C582.26,433.76,580.86,433.3,579.75,432.86Z"/><path class="cls-62" d="M536.79,391.73c0,.28,0,.57-.06.85l-11,5.52c-2.91.74-4.58-.31-4.84-3.38l-.92-1.08,11.63-6.73C534.33,387.44,536.54,388.53,536.79,391.73Z"/><path class="cls-63" d="M579.75,432.86c5.67-1.48-.71-2.61-.12-3.94,2.79-2.86,6.13-1.48,9.33-1.24a3,3,0,0,1,1.28,1.2c.6,1.68-.32,2.78-1.47,3.8C585.75,432,582.8,434.78,579.75,432.86Z"/><path class="cls-64" d="M552.68,405.79l-2-2c0-.38-.07-.75-.11-1.12a16.83,16.83,0,0,1,7.23-7.78c1.77,1.47.79,3.2.46,4.87-.2,1.51-1.46,2.47-2,3.82a4.83,4.83,0,0,1-2.36,2.57A1.34,1.34,0,0,1,552.68,405.79Z"/><path class="cls-65" d="M520.89,394.72l4.84,3.37a6.33,6.33,0,0,1-.05.76L521,400.93C516.87,398.69,516.86,398.09,520.89,394.72Z"/><path class="cls-66" d="M590.46,433.58c5.19,1.15,1.35,4.05,1.22,6.23l-6.42-5.33C587.25,433.3,588.9,433.71,590.46,433.58Z"/><path class="cls-67" d="M588.77,432.68c.36-1.11.73-2.21,1.09-3.32,1.34-2.08,3-2.38,5-1,1.22,1.88.16,3.15-1.18,4.34l-2.83.14Z"/><path class="cls-68" d="M609.92,381.71l-1.62,6.14c-.23,1.75.77,3.57-.33,5.25-.56,1.19-1.31,2.26-2,3.39-.72,1.56-2.24,2.56-2.87,4.18-.58,1.18-1.66,2-2.37,3-.93,1.18-2.34,1.87-3.2,3.13-1,1.16-2.32,2.06-3.37,3.23a19.12,19.12,0,0,1-3.62,2.4c-2.25,1.21-4.49,1.56-6.7-.11-1.4-2.94,1.15-4.22,2.64-5.73A72.54,72.54,0,0,0,599.13,390c7.56-14.07,2.16-32.28-7.29-42.56-3.55-3.86-7.54-7-12.71-8.4-1.44-.4-2.92-.77-3.67-2.31,1.24-3.73,4.4-3.06,7-2.67a26.77,26.77,0,0,1,19.26,12.47c3.63,3.83,5.67,8.57,7.5,13.42,2.45,5,3.09,10.29,2.94,15.75C611.26,377.64,611.77,380.12,609.92,381.71Z"/><path class="cls-69" d="M610.55,375.63c1.1,2.1,3.55,1.88,5.18,3.07l9.5,7.06c-5.33-.5-10.24-2.57-15.31-4.05Z"/><path class="cls-70" d="M606.58,392.73c.57-1.63,1.15-3.25,1.72-4.88.86,2.29,3.15,2.65,5,3.6,3.61,1.88,7.23,3.72,9.52,7.3-3.54,2.17-6.24-1.32-9.45-1.42C610.58,396.54,607.59,396.08,606.58,392.73Z"/><path class="cls-71" d="M613.49,395.87c3.36.13,6.07,2.35,9.3,2.88l1.78,1.05,1.17,3c-1.53,2-1.53,2-5.44.54a9.65,9.65,0,0,1-3.61-2.4C615.74,399.17,612.84,398.63,613.49,395.87Z"/><path class="cls-64" d="M593.73,432.74c.33-1.27.66-2.54,1-3.81a2.57,2.57,0,0,1,.84-1.18c7-1.93,14.15-3.41,20.05-8.05a3.4,3.4,0,0,1,2.17-.57c1.66.7,3.5,1.25,3,3.7C613,429.67,603.89,432.6,593.73,432.74Z"/><path class="cls-72" d="M620.75,422.83l-3.06-2.92a2.79,2.79,0,0,1,1.79-2.77,3.7,3.7,0,0,1,1.4-.15,3.22,3.22,0,0,1,2.83,2.78l-1.1,1.87Z"/><path class="cls-73" d="M623.71,419.77l-3.17-2.31c-1.55-4,0-7.49,1.71-11,2.8-1.64,4.11.22,5.32,2.29l.28-.07c.16,4-1.68,7.34-3.22,10.81Z"/><path class="cls-74" d="M627.57,408.78c-1.42-1-2.77-2.23-4.72-2a3.5,3.5,0,0,1-2.29-1.56c-.63-1.1-1-2.2-.11-3.35,1.77.29,3.34,1.73,5.29.91.61,1.33,1.23,2.65,1.84,4C627.58,407.44,627.57,408.11,627.57,408.78Z"/><path class="cls-75" d="M562.84,94.82,557.63,91c2.59-3.42,6.83-3.74,10.37-5.12,7.18-2.81,14.69-4.73,22-7.2a7.63,7.63,0,0,1,5.71.28l4.94,2.17a90.54,90.54,0,0,0,13.82,7.93l.09,6.92c-.5.84-.7,2.29-1.57,2.41-5.89.78-10.2,6.09-16.47,5.69-.66,0-1.49-.27-1.93.14-3.21,3-7.27,2.39-11.1,2.8C575.7,104.54,568.4,101.14,562.84,94.82Z"/><path class="cls-76" d="M584.71,238.89c-1.49-4-2.73-8.11-4.58-11.94-1.22-2.54-.83-3.9,1.61-4.93a5.34,5.34,0,0,1,4.76-3.14,7.51,7.51,0,0,0,5.25-.5c6-2.83,12.36-4.46,18.56-6.67a4.45,4.45,0,0,1,4.27.22v19c-1.34,1.79-3.28,2.51-5.29,3.35-6.39,2.68-13.21,3.95-19.7,6.27a5.1,5.1,0,0,1-4.75-.21A1,1,0,0,1,584.71,238.89Z"/><path class="cls-77" d="M584.72,239.89l29.86-9v18a8.15,8.15,0,0,1-5.86,4c-4.05.72-7.66,2.84-11.65,3.76a9.1,9.1,0,0,1-5.32.13C587.28,252,584.32,246.66,584.72,239.89Z"/><path class="cls-78" d="M614.57,265.87q.1,22.56.18,45.11c0,1.38.49,3.23-2,2.84a2.41,2.41,0,0,1-.94-1.15c-4.66-12.39-9.63-24.66-14.51-37-.91-2.28-2.1-4.58-.86-7.14,4.31-3.06,9.61-3.05,14.41-4.59C612.34,263.48,613.58,264.7,614.57,265.87Z"/><path class="cls-79" d="M612.43,313a3.46,3.46,0,0,0,.28.82c3.46.8,4.25,2.63,4.2,6.39-.12,8.83-1.34,17.75.78,26.53-1.63.83-3.32.13-5,.22-2.94,1.1-4.84-.34-6.39-2.63a7,7,0,0,0-2.78-4.45,5.64,5.64,0,0,1-2.35-4.67c.51-6.73.29-13.46.4-20.18,0-1.95-.16-4,1-5.73C607,307.08,609.37,308,612.43,313Z"/><path class="cls-80" d="M614.57,133v20c-1.1,2.73-2.93,4.26-6.06,4.23-2.06,0-3.69,1.3-5.41,2.35-1.88,1.15-3.94,2.24-5.54-.52-.47-9.67-2.62-19.21-2-28.95.13-2.11-.24-4.3,1-6.23,3.15-2.5,3.36.44,4,2.27.76,2.13-.87,5.23,1.22,6.43,1.68,1,3.61-1.71,5.76-2C610.32,130.16,612.74,130.65,614.57,133Z"/><path class="cls-81" d="M583.73,106c1-1,1.93-1.85,3.47-1.26.74.28,2.08.87,2.18.72,3.84-6.2,12.43-.94,16.57-7.07,1.68-2.48,6.28.68,8.62-2.35q0,7.49,0,15c-1.82,4.08-5.89,4.47-9.43,5.7-3,1-6.15,1.26-9.23,1.89a3.15,3.15,0,0,1-2.57-1.39c-2.06-2.8-4.21-5.49-7.25-7.39C584.8,109,583.09,108.14,583.73,106Z"/><path class="cls-82" d="M614.57,172.94q0,11,0,22c-.24.44-.22,1.06-.49,1.39-3,3.63-12.53,4.39-16.47,1.36-1.22-2.1-1-4.42-1.08-6.7.74-2,.11-3.95,0-5.93.11-1.93.77-3.78.88-5.71,1.65-3.76,3-7.42,8.7-6.1C608.65,173.84,611.54,169.8,614.57,172.94Z"/><path class="cls-83" d="M595.73,117.85c1.19-2.12,3.4-1.74,5.28-2.15A75.88,75.88,0,0,0,614.58,111q0,11,0,22c-4-.28-7.91-1.91-11.39,2.27-1.61,1.93-4.6,1.75-4.54-2.51,0-3.25.94-6.65-.86-9.76C595.12,122.05,594.51,120.31,595.73,117.85Z"/><path class="cls-84" d="M598.83,197.91c2.9.45,5.91,1.86,8.16-1.67a2.5,2.5,0,0,1,3.54-.36c1.86,1.57,2.91.28,4.05-.93v17c-7.65,4-16.37,5.06-24.15,8.72-1,.48-2.92,1.61-3.71-.74.08-.21.17-.42.26-.64a29.42,29.42,0,0,0,3.4-3.39c4.91-2.42,6.89-6.31,6.34-11.76C596.5,201.89,596.36,199.37,598.83,197.91Z"/><path class="cls-85" d="M614.57,265.87c-4.23-1.38-7.55,2-11.54,2.24-2.08.1-4.16.88-6.31.76-3.27-1-3.59-3.94-4.5-6.52-.76-2.11-2.11-4.18-.5-6.48l22.86-7Q614.58,257.39,614.57,265.87Z"/><path class="cls-86" d="M614.57,172.94c-2.3,0-4.59-.18-6.15,2.12-.39.58-1.76,1.28-2,1.09-4.21-3.5-5.62.44-7.62,2.77a24.86,24.86,0,0,1-.08-19c4.31-4.53,10.74-4.25,15.84-7Z"/><path class="cls-87" d="M595.72,79c-10.27,4.09-21.35,5.78-31.29,10.89-1.95,1-4.52.8-6.8,1.15a256.83,256.83,0,0,1-26-14.8c-.32-3,2.12-3.37,4-4,9-3.17,18.2-5.83,27.33-8.62a9.11,9.11,0,0,1,6.67.48l9.93,5Z"/><path class="cls-88" d="M569.61,64.06c-12.83,3.56-25.77,6.76-38,12.18a68.37,68.37,0,0,1-13.88-8c-.32-1.08-.64-2.16-1-3.25a4.85,4.85,0,0,1,2.46-2.33c10.34-3.69,20.62-7.61,31.52-9.42L554.8,55Z"/><path class="cls-89" d="M556.72,48.2c-1.29-1.1-3.28-1.29-4-3.1-.18-1.63.48-1.82,1.72-1l3.33,1.74c4,3.19,9.51,4.24,12.79,8.72C565.27,53.84,561.63,49.6,556.72,48.2Z"/><path class="cls-90" d="M581.81,59.31c1.45.45,3,1.22,2.35,2.89-.48,1.26-1.55-.19-2.38-.36C580.93,61,580.68,60.14,581.81,59.31Z"/><path class="cls-91" d="M577.28,59.49a2.37,2.37,0,0,1-1.44-2.78,1.35,1.35,0,0,1,1.16-.27A2.22,2.22,0,0,1,577.28,59.49Z"/><path class="cls-92" d="M550.73,53.26c-1.7,3.07-5.09,2.88-7.79,3.77-8.67,2.84-17.45,5.35-26.19,8-2.08-5-4.72-9.7-6-15,7.73-1.13,14.7-4.62,22-7l1.81.46Z"/><path class="cls-93" d="M554.4,44.09l-1.72,1c-3.09-1.74-6.44-3.1-8.75-6.05C547.89,39.79,551.22,41.79,554.4,44.09Z"/><path class="cls-94" d="M538.92,35.39l-.76,1.34c-.45-.36-1.06-.64-1.32-1.11s-.15-1.36.67-1.29C538,34.36,538.41,35,538.92,35.39Z"/><path class="cls-46" d="M602.6,337.14a36.15,36.15,0,0,0,4.48,2.78c3.33,1.45,1.41,2.56-.08,3.78-1,3.14-3.29,4.13-6.3,4.07-4.81-5.66-10.25-10.41-17.89-11.68-2.42-.4-4.94-.75-7.26.6a2.5,2.5,0,0,1-1.12,1.57c-10.38,5.26-11.43,14.43-10.26,24.5.23,2,.5,3.93-.22,5.86A6.54,6.54,0,0,1,562,371a120.5,120.5,0,0,1-15.36,8.83,3.73,3.73,0,0,1-2.72.74,2.76,2.76,0,0,1-1.21-.74c-.35-4.59-4.69-6.13-7.06-9.17a2.6,2.6,0,0,1,.3-2.84c5.4-5.9,3.62-12.95,3.31-19.77-1-1.69-2.76-2.79-3.73-4.54a10.42,10.42,0,0,1-.47-2.35c-.81-4.69-.46-9.41-.33-14.12a22,22,0,0,0,.63-5.94,4.89,4.89,0,0,1,.37-1.41c.51-1.23,1.87-1.82,2.44-3.25-1.63-1.28-3.05.44-4.55.37a3,3,0,0,1-3-1.71Q513.93,305,497.2,294.88c-1.54-.92-3-2-4.48-3,1.14-5.35,5.92-6,9.92-7.51.87-.33,2,.11,2.94-.27,2.17-1.54,3.74.17,5.37,1.08Q528.68,295,546.34,305a17,17,0,0,1,8.36,2.76c6.07,3.71,12.38,7,18.46,10.71,4.81,2.54,9.47,5.37,14.17,8.1C592.5,330,599,331.48,602.6,337.14Z"/><path class="cls-95" d="M547.75,241.82l2,1.06a6.5,6.5,0,0,1,2,5.3,16.55,16.55,0,0,0,2.46,9.75c-.09,3-2.5,3.61-4.64,4.42-5.24,2-10.48,4-15.87,5.61-7.26-3.54-14.19-7.67-21.05-11.91-.22-2.93,2.08-4.34,4.06-4.76,6.12-1.3,11.51-5,17.91-5.22,2.39-.38,2-2.26,2.08-3.88.2-2.66.09-5.59,3.67-6.15C543.37,235.58,546.64,238.25,547.75,241.82Z"/><path class="cls-96" d="M533.72,268c-.8-2.35,1-3.17,2.53-3.33,6.34-.63,11.56-4.53,17.64-5.83,2.59-2,5.82,1.22,8.38-1.05,11.64-3.93,11-3.78,11,8.41,0,1.15,0,2.3-.1,3.45-.78,3.83-3.72,5.32-7,6.15a44.93,44.93,0,0,0-11.9,4.69c-5,0-8.55-2.68-11.48-6.44C539.73,272,536,271,533.72,268Z"/><path class="cls-97" d="M534.84,247.84c-7.65,2-15.37,3.87-22.17,8.21-4.1-2.19-8.37-4.07-11.92-7.18l.24-6c6.6-.9,11.92-5.44,18.61-6.3,6.33-.82,6.26-1.15,7.24,5.08a7.94,7.94,0,0,0,1.07,2.14C531.74,242.55,534,243.9,534.84,247.84Z"/><path class="cls-98" d="M572.66,320c-9.07-4.47-17.74-9.67-26.32-15,3.43-1.83,2.6-5.07,2.13-7.79a6.53,6.53,0,0,1,1.27-5.4c3.77-1.75,5.79,1.94,8.71,2.81,4,2.62,8.18,5.06,12.32,7.51,1.73,1,3.38,2.12,4.22,4.07C575.51,311,577.75,316.15,572.66,320Z"/><path class="cls-99" d="M542.73,274c4.13,1,7.16,4.11,11,5.56,7.35.62,12.86,4.58,17.69,9.77.65,4.1,2.67,8.54-2.58,11.3-4-.55-6.73-3.73-10.32-5.15-5.42-3.88-11.64-6.44-17-10.36a1.13,1.13,0,0,1,.26-1.29C545.26,280.87,542.46,277.29,542.73,274Z"/><path class="cls-100" d="M542.07,284.66a144.83,144.83,0,0,1,17,10,1.42,1.42,0,0,1-1.32,1.25l-8-4.06-9-5.95C540.62,284.85,541,284.35,542.07,284.66Z"/><path class="cls-101" d="M542.07,284.66l-1.34,1.21-10.85-6.14c.22-.42.44-.84.65-1.26,4.31.43,7.21,4.32,11.26,5.37A7.92,7.92,0,0,1,542.07,284.66Z"/><path class="cls-102" d="M598.73,159.94q0,9.5.08,19l-.21,6c-3.28-.56-2.86-3.24-2.93-5.43-.2-6.66,0-13.33-.11-20,0-1.6.42-4-1.57-4.28-4.61-.57-3.72-3.73-3.78-6.61-.1-5.15.24-10.31-.18-15.47-.49-4.44.31-9.11-2.43-13.13,0-.33.09-.65.13-1,1.76-2.24,3.91-3.57,6.89-2.94l1.11,1.81c.68,1.7,1.37,3.41,2,5.12Q598.26,141.45,598.73,159.94Z"/><path class="cls-103" d="M594.62,116c-2,1.63-3.86,3.67-6.89,2.94-3.74-7.06-10.64-10.21-17.11-13.92-4.46-2.56-8.84-5.25-13.25-7.88,1.65-1.18,4-.78,5.47-2.36L583.73,106C587.78,108.88,592.58,111,594.62,116Z"/><path class="cls-104" d="M590,133.09c1.46,5.39.44,10.89.63,16.33.09,2.51,0,4.25,3.4,2.93,2.86-1.1,3.82.19,3.72,3.31-.24,8-.09,16-.06,23.92,0,1.8-.37,3.69.88,5.29q0,3,0,6c-2.42-1.37-5.8,1.08-7.81-1.94C590.64,170.31,589.53,151.71,590,133.09Z"/><path class="cls-105" d="M590.78,188.93c2.37,1.6,6.11-2.32,7.81,1.94.08,2.35.16,4.69.23,7a40.78,40.78,0,0,0-.06,6.44c1,6.78-1.81,11.1-8.07,13.43-1,1.3-2.69,1.34-4,2.13h0l-5,2.11-3.45-.2a43.35,43.35,0,0,1,6-3.51c5.1-2,6.77-5.7,6.52-11C590.48,201.21,590.75,195.06,590.78,188.93Z"/><path class="cls-106" d="M534.84,247.84a26.25,26.25,0,0,0-6.93-4c-.06-4-1.74-9.35.21-11.63,3.09-3.63,5.87,3.53,10.63,2.41,0-2.55,0-5.6,0-8.65,0-.89-.13-2.62,1.13-2.19,3.58,1.25,7.28,2.72,9.54,5.92,1.65,2.34.17,10.51-1.69,12.14-2.46-1.92-5.34-5.06-8-4-2.3.9-1,5.12-.86,7.79C539.14,249.78,537.17,248.86,534.84,247.84Z"/><path class="cls-107" d="M561.68,258.86c-.22,2.11-.66,3.74-3.34,2.11a49.46,49.46,0,0,0-4.45-2.17c-4.25-1.94-4.32-5.63-4.1-9.53.12-2.12,0-4.26-.07-6.39l1-.1c2.87,1.64,6,5.23,8.59,4.37,3.57-1.16.85-5.76,1.61-8.76.28-1.07,0-2.63,2-1.64,1.47,4.32.8,8.83,1.16,13.25C563,252.89,565,256.59,561.68,258.86Z"/><path class="cls-108" d="M539.17,159.86c3,1.09,4.49,2.89,4.69,5.63.11,1.47.19,3.32-1.89,3.38-1.7.06-3.35-.69-3.37-2.83C538.58,164.09,538.17,162.09,539.17,159.86Z"/><path class="cls-109" d="M514.5,144.19,517,159.41C510.18,156.81,510.18,156.81,514.5,144.19Z"/><path class="cls-110" d="M561.68,258.86c.22-3.07-1.14-6.31,1-9.16,1.67-.94,3.19-.21,4.6.57,2.68,1.47,3.41.35,3.48-2.26.05-1.89,0-4,2-5.12,4-1.34,8.19-1.91,11.91-4,0,.34,0,.67,0,1q3.51,8,7,16,1,3,2,6c-.39.52-.55,1.37-1.14,1.55-4.75,1.48-6.31,4.74-6.17,9.55.06,1.85-.84,4.64-4,2.61-.8-2.89-.62-5.87-.71-8.83-.06-1.85-.19-3.71-2-4.8-1.24-.76-2.48-2.18-4-1.57s-.81,2.32-.9,3.57c-.16,2.13.07,4.35-1.71,6a1.23,1.23,0,0,1-1.34-.1c0-3.63,0-7.26,0-10.89,0-2.11-.76-2.78-2.67-1.42C566.8,259.15,564.41,260.06,561.68,258.86Z"/><path class="cls-111" d="M572.8,242.89c0,1.32,0,2.64-.16,3.94-.33,2.51,1.35,6.11-1,7.28-2.16,1.08-4.55-1.93-6.85-3.09a24.36,24.36,0,0,1-2.09-1.32c-1.24-4.34-1.85-8.66.21-12.95C566.48,238.36,570.08,239.92,572.8,242.89Z"/><path class="cls-112" d="M283.84,482.67c1.89-11,8.6-18.91,16.74-25.71,17.05-14.24,36.7-24.61,55.55-36.09,7.81-4.76,12.1-11.62,16.13-19.07,4.28-7.9,8.94-15.67,12.33-23.95,3.69-9.05,9.92-14.71,18.34-19.23,20.51-11,40.74-22.54,61-34a10.22,10.22,0,0,1,8-1.28c8.72,2.14,17.5,4,26.21,6.16a10.92,10.92,0,0,0,8.13-.87c6.07-3.1,12.32-5.87,18.49-8.77,3.09.13,7.07-3.7,8.91,2-1.23,5.2.45,10.4.12,15.61-2.93,13.76-13.85,23.24-28,24.92-7.33.88-12.71,5.47-17.05,11.18a46.83,46.83,0,0,0-8,17.05,25.57,25.57,0,0,1-11,15.48c-9.33,6.39-18.9,12.42-28.54,18.32-1.78,1.09-3.57,2-5.38,0-1.12-2.84-.5-5.79-.52-8.7,1.67-4.56,6.16-5.67,9.7-7.95,7.66-4.91,15.38-9.7,22.19-13.58-8.29,4.57-17.16,10.62-26.45,16-1.78,1-3.51,2.29-4.93-.43-.28-7.75,0-15.51-.12-21.86,0,7.13,0,15.65,0,24.18-.78,2.25-2.85,3.14-4.64,4.2-11.6,6.9-22.94,14.21-34.57,21.06-1.77,1-4.11,4.39-6.3.19q0-11.25,0-22.48c-.34-2.28,2.08-2.73,2.84-4.28,2.17-2.33.8-3.55-1.3-4.88-1.72-1.09-4.69-1.23-4.14-4.49,13.69-5.42,25.58-14.06,38.21-21.37,5.71-3.31,5.65-3.42,3.42-9.85-1.48-4.25-2.84-8.53-4.3-12.78-.92-2.68-2.31-3.49-4.79-1.8s-5.41,2.55-7.84,4.33c-13.12,4.83-19.8,15.49-24.94,27.55-3,4.55-4.1,9.13-.24,13.8-1.58,3.16-5.09,2.4-7.56,3.74-2.15.36-4.2.77-2.08,3.61,1.55,3.2,4.47,3.43,7.5,3.64,2,.14,4.5-.75,5.21,2.33,0,7.78,0,15.56,0,23.33.77,3-1.49,4.09-3.41,5.35-4.78,3.13-9.83,5.82-13.55,8.24,3.18-2.14,7.69-4.54,12-7.26,1.8-1.13,3.89-2.32,5.59.36a30,30,0,0,1,0,9.73,49.74,49.74,0,0,1-19.24,11,10.87,10.87,0,0,1-11.54-2.91c-9.9-10.41-21.75-7.12-30.07-.78-5.83,4.45-11.07,9.56-16.84,14.05a45.34,45.34,0,0,1-22.36,8.94c-2.28.3-4.68.4-6.66-1.29C284.11,483.12,284,482.9,283.84,482.67Z"/><path class="cls-9" d="M191.91,461.74c-13.08,8.05-26.51,15.49-40,22.8-2.66-1-3.52-3.38-4.34-5.74-6.62-19-13.72-37.75-20.53-56.65-2.42-6.73-1.51-8.88,5.16-11.49,21.65-8.47,43.31-16.9,65.12-25,10.18-3.76,21.18-3.68,31.88-4.85,2.91-.32,6.25-2.13,8.87,1l-27.23,19.66c-10.42,3.63-21.42,4.33-32.17,6.32-.82.15-1.63.36-2.43.56-6.72,1.67-7.21,2.53-4.18,8.78,6,12.42,12.29,24.7,18.36,37.1C191.55,456.62,193.39,458.86,191.91,461.74Z"/><path class="cls-113" d="M276.71,357.73c8.69-10.47,17.4-20.91,26-31.42,1.41-1.71,2.4-2.27,4.37-.6a275.46,275.46,0,0,0,47.87,32c1.31,2,3.51,3,5.29,4.5,7.64,6.34,8.19,16.19,1.25,23.25a27.3,27.3,0,0,1-21.86,8c-19.16-1.25-36.8-7.44-52.15-19.18C282.11,370.14,277.26,365.22,276.71,357.73Z"/><path class="cls-11" d="M243.91,377.77l-5.85,4.1-2.4.09c-25.07,1.15-48.49,8.66-71.37,18.55-10.52,4.54-21.34,8.39-32.13,12.26-4.12,1.49-5.25,3.21-3.6,7.62,7.79,20.82,15.25,41.76,22.8,62.66l.54,1.49L137,492.92a4.93,4.93,0,0,1-1.78-.86c-1.47-1.14-2-3-2.64-4.74-8.25-24-16.79-48-25.2-72a20.45,20.45,0,0,1-1.45-7.29c.08-.17.17-.33.25-.49h0a1.09,1.09,0,0,1,.08-.15l14.48-8.23a1.07,1.07,0,0,1,0-.31,2,2,0,0,1,.35.1l.09,0a6,6,0,0,1,3.16,3.69c1.27,4.08,3.71,3.68,6.93,2.4,18.54-7.35,37.2-14.38,56.14-21.55-5.54-1.71-10.77-3.69-16-5.67-2.14-.81-4.57-1.33-5.13-4.14a1.59,1.59,0,0,1,.07-.2,3.58,3.58,0,0,1,.11-.35h0l9.17-5.22a2,2,0,0,1,.16-.61h.72l.14,0a75.66,75.66,0,0,1,21.64,6.84c10.17,4.71,20.42,3.32,30.78,2,3.29-.43,6.6-.67,9.89-1.1,1.59-.22,3.5-.34,4.43,1.18A3.89,3.89,0,0,1,243.91,377.77Z"/><path class="cls-114" d="M276.71,357.73C290,380.31,312,387.22,336,391c8.59,1.34,16.23-.41,22.81-5.76,7.41-6,7.51-13.57,1.22-20.82-1.81-2.08-5.28-3-5-6.68,8.73,3.53,17.26,7.67,26.63,9.37,2.37.43,2.44,1.46,1.3,3.41q-13.1,22.27-26,44.63c-2.34,1.07-4.17-.52-6.09-1.26-20.87-8.09-41.1-17.48-59.74-30-7-4.71-13.8-9.76-19.1-16.49-.59-.76-1.52-1.36-1.11-2.55A29,29,0,0,1,276.71,357.73Z"/><path class="cls-9" d="M175.8,367.36a2,2,0,0,0-.16.61,2.28,2.28,0,0,0,0,.68c6.43,2.2,12.82,4.54,19.3,6.58,6.87,2.18,13.4,5.77,21.09,4.6,7.34-1.11,14.76-1.74,22.14-2.66,1.46-.18,2.92-.56,4.3-.14a3.89,3.89,0,0,1,1.4.74L252,371.9c.16-.76.32-1.51.46-2.27a16.36,16.36,0,0,0,.21-6.05A151.85,151.85,0,0,1,251,347.8c-.85-11.5-2.19-13-13.6-13.63a9.22,9.22,0,0,1-1.47-.25l-.25-.07h0a2.92,2.92,0,0,0-.92-.08Z"/><path class="cls-56" d="M441.25,262.62c-5.16-.85-9.13,2.22-13.44,4.13-3.16,1.4-6.28,2.86-9.42,4.3h0a11.78,11.78,0,0,1-4.86.23,11.19,11.19,0,0,1-2.46-.74c-9.79-4.22-19.47-8.68-28.83-13.8a8.21,8.21,0,0,1-3.65-3.3,2.32,2.32,0,0,1-.15-.71.17.17,0,0,1,0-.07l27.44-15.6a4.62,4.62,0,0,1,.47.19c5.88,2.8,12,5.62,15.44,11.71l4,2.83,13.49,9.42h0Z"/><path class="cls-112" d="M267.59,369.93a23.77,23.77,0,0,1-1.7,2.32q-10.56,11.6-21.16,23.16c-9.11,9.9-18.39,19.65-27.29,29.73-2.11,2.38-3.39,2.05-5.23.37-1.36-1.24-2.57-2.63-4-3.8-5.82-4.8-5.67-4.95.33-9.81,16.13-13,32.1-26.27,48.13-39.42,1.93-1.58,3.8-3.24,5.82-4.68C265,366,266.45,367.44,267.59,369.93Z"/><path class="cls-112" d="M267.79,456.39c10.55-5.67,20.13-10.88,29.76-16,13.35-7.07,26.84-13.88,40.07-21.15,5.23-2.87,10-3.06,15.53.22-8.65,4.76-17,9.45-25.42,14-14.27,7.62-27.3,17.05-39.91,27.08-2.61,2.07-4.74,2.36-7.67.94C276.46,459.69,272.56,458.33,267.79,456.39Z"/><path class="cls-11" d="M191.91,461.74c-7.85-15.92-15.58-31.91-23.65-47.72-1.77-3.46-.62-4.76,2.23-6.07,4.46-2,9.32-2.25,14-3.12,7.16-1.33,14.36-2.38,21.53-3.63,1.66-.29,3.26-.74,4.79.33l-7.72,5.34a25.39,25.39,0,0,1-11.59,3.87c-3.28.35-3.84,1.91-2.48,4.71,1.86,3.82,4,7.49,5.33,11.58-.22,2.23.58,4.43.24,6.66-.73,2.16-1.86,4.17-2.44,6.38-.67,1.18-.46,2.55-.77,3.8a5.64,5.64,0,0,0,0,4.18c.94,2.34,2.63,4.16,4.13,6.12,1.07,1.4,2.54,2.74,1.52,4.82Z"/><path class="cls-115" d="M414.91,276.8c18.93,10.4,37.22,21.88,55.68,33.06,7.65,4.64,15.19,9.45,22.58,14.6-12.2-3.29-24.75-4.6-35.56-12.64-16.79-12.48-34.82-23.22-52.8-34C407.89,274.75,411.49,276.71,414.91,276.8Z"/><path class="cls-11" d="M288.09,336.88l-4.25,4.95a4.4,4.4,0,0,1-2.55.66h-.06a8.26,8.26,0,0,1-1.48-.22h0a28,28,0,0,0-3-.68c-2.83-1.23-5.68-2.43-8.73-1.77-.29.06-.58.14-.88.23s-.56.21-.85.34c-2.92.56-4,1.95-3.62,5.21.54,4.42,1.32,8.82,1.55,13.29a12.66,12.66,0,0,1-.06,2.4A5.4,5.4,0,0,1,263,364a69.58,69.58,0,0,1-11,7.87c-.18-.51-.35-1-.5-1.54-2.06-6.75-1.88-13.85-2.5-20.77-1-11.39-.61-11.41-11.92-13.81a11.64,11.64,0,0,1-2.22-1,2.92,2.92,0,0,1-.13-.46,2,2,0,0,1,0-.59l6.27-3.69a5.86,5.86,0,0,1,.93.09h.18c13.86,0,27.46,2.7,41.22,3.68a5.55,5.55,0,0,1,3.83,1.58A4.68,4.68,0,0,1,288.09,336.88Z"/><path class="cls-9" d="M333.61,303.61l-7.48,3.33c-1.16-.18-2.5.5-3.43.06h0c-7.64-3.63-13.48.8-19.38,4.15,2.2.62,4.89.62,6.21,2.87a5.37,5.37,0,0,1,.58,1.53L304,319.12c-1,.28-1.94.66-2.92.88a6.35,6.35,0,0,1-2.82.07c-6.43-1.41-12.79-3-19.14-4.77a5.44,5.44,0,0,1-3.59-2.43,6.38,6.38,0,0,1-.05-1.21c0-.17,0-.34.05-.5l31.64-18.69h0l.89.17h0c7.37,1.48,14.25,4.5,21.35,6.81,1.4.44,3,.92,3.73,2.23A3.56,3.56,0,0,1,333.61,303.61Z"/><path class="cls-9" d="M367.1,286.05l-8.37,4.49a18,18,0,0,1-5.19,1h0c-1.73.11-3.48.05-5.23,0a43.08,43.08,0,0,0-5.45.1h0a18.5,18.5,0,0,0-2.42.4c-6.2-1.27-12.54-2.25-17-7.53l.06-.34c0-.1.05-.2.08-.3l25.29-14.38a.77.77,0,0,1,0-.15l.18,0,.09,0c5,3.62,9.86,7.53,14.59,11.54a9.84,9.84,0,0,1,3,3.32A4.5,4.5,0,0,1,367.1,286.05Z"/><path class="cls-10" d="M304,319.12l-10.18,11.67c-.8.11-1.59.38-2.39.48a4,4,0,0,1-1.49-.07c-10-2.53-20.23-4.31-30.11-7.41a4.76,4.76,0,0,1-1.69-1,2.38,2.38,0,0,1-.7-1.3s0,0,0,0l17.67-10.05a2.86,2.86,0,0,1,.38.26l.17.13a223,223,0,0,0,26.53,6.94Z"/><path class="cls-9" d="M293.84,330.79l-5.75,6.09-1.89-.25c-7.1-.92-14.19-1.9-21.3-2.68-8.08-.88-16.18-1.53-24.28-2.29a5.86,5.86,0,0,1,0-.61,1,1,0,0,1,.25-.81l.18-.16a5.86,5.86,0,0,1,.93.09h.18l15.25-8.68h.79c10.41,2.47,20.83,4.93,31.23,7.45a12.78,12.78,0,0,1,3.34.95A3.77,3.77,0,0,1,293.84,330.79Z"/><path class="cls-9" d="M418.38,271.05c-4.86,4.21-10.67,2.4-16.15,2.5a73.37,73.37,0,0,1-7.37-.58,28.21,28.21,0,0,1-3.92-.88,42.48,42.48,0,0,1-6.37-2.49s0,0,0,0c-3.08-1.46-6.05-3.18-9.06-4.8-1.52-.81-3.06-1.6-4.62-2.31a4.77,4.77,0,0,1-2.77-3.28,2.92,2.92,0,0,1,0-.66l0-.18.15.08,10.08-5.73.08,0,.42.09c11.66,5.83,23.18,12,35.33,16.81.66.26,1.33.49,2,.71h0C416.92,270.58,417.65,270.8,418.38,271.05Z"/><path class="cls-10" d="M351.94,294l-18.33,9.6c-.63-.36-1.27-.69-1.91-1h0c-6.67-3.29-14.07-4.58-20.86-7.52-1.22-.53-2.48-1-3.72-1.43a3.23,3.23,0,0,1,0-.44,3.45,3.45,0,0,1,.08-.75h0l.89.17h0l15.09-8.58.27.1.13.05,16.4,6.33c2.68.57,5.65.18,8.27,1a7.45,7.45,0,0,1,2.39,1.23A7.89,7.89,0,0,1,351.94,294Z"/><path class="cls-112" d="M193,434.61l0-7.66c.94-1.73-.74-3.09-.65-4.69.14-2.57.69-4.9,3.74-5.52-2.64,14.81,4.5,25.07,15.66,33.38,19.86,14.77,40.54,27.86,65.6,32a34,34,0,0,0,6.43.53l0,.07c1.68,2.87.43,5.13-1.51,7.25-2.16,1.17-4.18.22-6.23-.41-23.42-7.24-44.35-19.4-64.62-32.81-7.15-4.74-11.91-11.94-17.34-18.41A5.8,5.8,0,0,1,193,434.61Z"/><path class="cls-116" d="M390.79,274l-18.92,9.73c-.61-.3-1.22-.61-1.82-.93-7-3.67-13.39-8.14-17.62-15.18a.64.64,0,0,1-.08-.14l11.18-6.36h0a2.57,2.57,0,0,1,.13-.76l.11,0,.71.24h0a106.85,106.85,0,0,1,11,4.2,74.73,74.73,0,0,1,9.06,4.8s0,0,0,0c1.65,1,3.25,2.13,4.81,3.32C389.86,273.27,390.33,273.64,390.79,274Z"/><path class="cls-117" d="M287.54,389.85c.82.34,1.76.67,2.64,1.11a133.15,133.15,0,0,1,18.14,10.26c1.4,1,4.73,1.72,3.23,4-1.36,2-4.16,4.58-7.15,3-7.75-4.08-15.28-8.59-22.89-13-1.12-.64-2-1.49-.43-2.58A17.85,17.85,0,0,1,287.54,389.85Z"/><path class="cls-118" d="M262.05,458.88l11,4.57c2.29.94,4.63,1.79,6.87,2.84,1.61.76,4.56.91,3.26,3.77-1.18,2.57-2.48,5.68-6.62,4.16-5.56-2.05-11.24-3.8-16.79-5.9-1.44-.56-4.46-.55-3.55-3.11S258.8,459.83,262.05,458.88Z"/><path class="cls-119" d="M263,364c-1-6.84-2-13.68-2.91-20.53-.6-4.39.2-4.87,7.18-4.48a2.89,2.89,0,0,1,1.11,1.76c-.07,3,1.54,5.23,3,7.58.92,1.47,2.62,2.6,2.31,4.69C270.45,357,267.73,361.51,263,364Z"/><path class="cls-120" d="M210.51,440.62c-.49-.38-1.17-.83-1.76-1.38-3.27-3.06-6.44-6.25-9.81-9.2s-1.44-5.71.14-8.39c.93-1.58,2.26-.81,3.36.11,3.58,3,7.14,6,10.75,8.9,2.71,2.19,1.2,4.48.2,6.69C212.82,438.6,212.78,440.43,210.51,440.62Z"/><path class="cls-112" d="M270.84,364.82c7.73,9.61,17.53,16.74,28,23a325.25,325.25,0,0,0,58.05,27.29c-1.17,2.45-2.88.84-4.24.41-3.63-1.14-7.19-2.51-10.78-3.79h0c-7.05-3.33-14.12-6.63-21.15-10-15-7.23-29.5-15.44-42.26-26.3C275.13,372.58,271,370.05,270.84,364.82Z"/><path class="cls-121" d="M310.09,315.54c-3-2.17-6.88-2.17-10.26-3.72,9.53-9.23,15.87-10.37,26.3-4.88C321.11,310.4,315.48,312.75,310.09,315.54Z"/><path class="cls-112" d="M396.49,278.76,311.25,322l-.7-1.39,85.18-43.3C396,277.76,396.24,278.26,396.49,278.76Z"/><path class="cls-112" d="M341.86,411.73c-1,3.09-4.06,3.88-6.42,5.11-24.78,12.89-49.66,25.6-74.51,38.35a18.46,18.46,0,0,1-2.19.8l-.6-1.25,83.73-43Z"/><path class="cls-9" d="M196.15,416.74c-2.4,3-1.75,6.9-3.09,10.21-2.28-4.19-4.46-8.45-6.87-12.57-2-3.45-.47-4.84,2.76-5.37,4.71-.78,9.44-1.43,14.16-2.14C200.71,410.11,197.69,412.9,196.15,416.74Z"/><path class="cls-112" d="M463.06,322.14,387,365.49l-.77-1.35,76.11-43.3Z"/><path class="cls-122" d="M348.88,269.32a.77.77,0,0,0,0,.15c0,.13,0,.27,0,.41a4.63,4.63,0,0,0,2,3.29l14.84,11.72,1.46,1.16,4.77-2.31c-.38-.42-.77-.84-1.17-1.24-5.44-5.6-12-9.87-18-14.78a2.34,2.34,0,0,0-.24-.09,1,1,0,0,0-.2-.07Z"/><path class="cls-15" d="M394.86,273l-4.07,1a22.22,22.22,0,0,1-2.3-.61c-5.2-1.65-9.68-4.91-14.67-7-3.45-1.47-6.51-3.84-10.29-4.59a3.42,3.42,0,0,1,0-.64h0a2.57,2.57,0,0,1,.13-.76l.11,0,.71.24h0l3.59-2,0-.18.15.08a3,3,0,0,1,.51.36l23.6,12.82Z"/><path class="cls-123" d="M267,340.84c.09-.61.18-1.22.26-1.83,3.66-5,6.39-.05,9.5.87,1.61,1.49,4.63,1.19,5.12,4.08l-7,7.88C270.46,349.48,268.45,345.35,267,340.84Z"/><path class="cls-112" d="M250.7,462.7l-34.17-20.58c.31-.53.63-1.06.94-1.6l34.15,20.62C251.31,461.66,251,462.18,250.7,462.7Z"/><path class="cls-112" d="M248.38,466.93l-34.23-20.64.92-1.53,34.34,20.61Z"/><path class="cls-112" d="M219.44,436.41,253.76,457c-.31.51-.61,1-.92,1.55L218.54,438Z"/><path class="cls-124" d="M351.94,294c-4.28-.12-8-2.06-11.92-3.48a52.51,52.51,0,0,1,18.71,0Z"/><path class="cls-125" d="M532.77,321.91a3,3,0,0,0-4-1.6c-1.39.5-2.79.75-4-.45l5.88-4.78,2.53.72c2.7.27,3.51,1.91,3.17,4.38a2.22,2.22,0,0,1,0,.68,4.55,4.55,0,0,1-1.28,1.27A2.12,2.12,0,0,1,532.77,321.91Z"/><path class="cls-126" d="M267,340.84l7.92,11L273.69,353C270.39,349.55,266.44,346.43,267,340.84Z"/><path class="cls-127" d="M414.91,276.8c-3.32.87-6.91-.95-10.1,1.05l-2.42-1.18C406.66,276,410.82,275.41,414.91,276.8Z"/><path class="cls-128" d="M281.87,344l-5.12-4.08,7.09,1.95Z"/><path class="cls-129" d="M373.76,166.94c-.07.33-.13.66-.2,1,1.88,5.47-.78,16.16-4.91,19.68l-3.5,8.27a7.66,7.66,0,0,1-.67,5.75,99.35,99.35,0,0,1-10.26,16.31,12.25,12.25,0,0,1-5.63,3.84l-1,1.05c0,4-3.63,5-5.76,7.33-.61.39-1.16.85-1.76,1.26-7.52,6-15.69,10.48-25.66,10.59-1.22.09-2.45,0-3.68.1-5.79-.39-11.4-1.38-16.13-5.11-5.44-5.35-11-10.5-13.82-18-6-15.84-5.9-31.91-1.82-48,5.68-22.34,16.28-41.76,35.62-55.38,8.62-6.07,17.86-10.24,28.85-8.23a26.69,26.69,0,0,0,5,0c3,0,5.31,1.55,7.77,2.88,1.2.81,2.3,1.75,3.46,2.62,3,2.9,6.19,5.71,8.42,9.34.72,1.29,1.81,2.33,2.5,3.64,1.44,4.55,5.11,8.72,2.49,14,.08.32.16.64.25,1,4.05,3,2.77,7.64,2.84,11.45C376.24,157.22,377.48,162.58,373.76,166.94Z"/><path class="cls-130" d="M348.79,109c-22.76-2.7-38.23,9.09-50.89,26a97.25,97.25,0,0,0-19.72,57c-.32,13.47,2.15,26.77,11.43,37.77,1.95,2.32,4.93,3.45,6.31,6.24-3.81,2.23-6.25-1-9.19-2.3l-1.3-.58c-.62-.35-1.24-.7-1.85-1.07a62.54,62.54,0,0,1-8.9-8.16,20.56,20.56,0,0,1-1.21-1.87c-6.22-7.63-9-16.56-10.06-26.19-.06-.54-.12-1.07-.21-1.61-1.14-8.43-.16-16.7,1.9-24.87.15-.5.28-1,.38-1.52,2.08-9.21,5-18.13,9.72-26.36a11.89,11.89,0,0,1,.59-1.31c2.77-4.24,3.66-9.89,9.12-12.09l1-1.25c1.82-6.25,6.32-10,11.83-12.89.73-.4,1.45-.81,2.17-1.22,3-5.65,7.87-7.86,14.08-7.54h0c4.16-4.66,9.9-4,15.11-3.84,3.69.08,8.07-.14,10.76,3.64l1,.34C344.49,104.34,347.71,104.43,348.79,109Z"/><path class="cls-8" d="M39,445.78l-.27.18-.79.53-.09,0L4.92,465a1.85,1.85,0,0,0,0,.23,3.61,3.61,0,0,0,.05.54c.91,1.68,2.52,2.57,4,3.58C28,482,47,494.83,66.09,507.32c6.6,4.31,12.77,9.39,20,12.62.62.28,1.24.54,1.87.78h0q16.81-8.81,33-18.74.15-1,.21-2c.38-7.07-3-12.94-6.87-18.64h0a3.23,3.23,0,0,0-.59-.22,2,2,0,0,0-.35-.08,2.12,2.12,0,0,0-.44,0h-.16a5.44,5.44,0,0,0-2.38.7c-10.41,6.11-21.79,7.87-33.59,7-10.1-.76-19.64-3.46-27.16-10.77-6.61-6.42-6.57-14.61-.15-21.2a31.08,31.08,0,0,1,10.35-6.78c1.72-.72,3.47-1.42,4.54-2.83a4.12,4.12,0,0,0,.53-.88,5.24,5.24,0,0,0,.45-1.45c-.3-4.2-1.43-8-5-10.67h-.63a.06.06,0,0,1,0,0L44,443l.2-.19Z"/><path class="cls-131" d="M189.86,443.63c.12-1.36-.27-2.84,1-3.91,2.65-1.06,4.06.89,5.38,2.48,17.42,21,40.85,32.81,65.62,42.46,5.25,2,10.59,3.91,15.91,5.79,2,.72,4.08,1.47,5.22,3.55.46,2.8,1.38,5.5,1.87,8.3-.24,2.62,1,6-3.27,6.6-13.25-4.25-26.4-8.77-38.36-16.1-1.63-1-3.2-2.44-5.33-1.13-1.65-1-4.46-.76-4-3.91-2.55-3.38-6.43-5-9.85-7.12-9.84-6.18-19.2-12.92-27-21.65L189,448.72C190,447.16,188.79,445.19,189.86,443.63Z"/><path class="cls-9" d="M137,492.92A125.72,125.72,0,0,1,121,502c-.18-.53-.37-1.06-.56-1.59q-3.24-9.31-6.51-18.65a3.59,3.59,0,0,1-.2-.64,3.48,3.48,0,0,1,0-1.59c.38-1.3,1.52-2.29,2.36-3.37,4.91-6.25,4.57-13-.88-18.72a30.89,30.89,0,0,0-9.46-7.09,10.15,10.15,0,0,1-4.12-2.84,4.22,4.22,0,0,1-.39-.61,4.48,4.48,0,0,1-.31-.62c-.87-3.69.94-7.13.94-10.8,0-6-.37-11.87-2.69-17.51-.74-1.8-1.48-3.72-1.1-5.79.17-.34.35-.66.54-1a8.71,8.71,0,0,1,.7-1.05l.51.89,6.15-3.5.14,0a7.67,7.67,0,0,1,.76.19q13.58,38.87,27.16,77.72c.7,2,1.51,4,2.3,5.95C136.61,491.93,136.81,492.42,137,492.92Z"/><path class="cls-132" d="M281.56,508.9c2.08-2.11,1-4.78,1.3-7.21-1-2.32-.27-4.76-.48-7.14a3.46,3.46,0,0,1,.44-1.53,7,7,0,0,1,3.18-2.24c10.09-2.74,19.68-7.3,30.23-8.42a7,7,0,0,1,5,3.67c.57,4.61,2.43,9.37-1.57,13.44-6.31,3.28-13.45,3.81-20.07,6.06-1.55.52-3.15.89-4.72,1.33C290.36,507,286.36,510.59,281.56,508.9Z"/><path class="cls-133" d="M202,512c-7.55,4.35-14.74,8.41-21.83,12.62-3.51,2.09-4.83-1.5-8.32-2,8.23-4.68,15.41-8.81,22.63-12.85C196.85,508.4,196.91,508.51,202,512Z"/><path class="cls-134" d="M163.86,534.17,143.7,545.73c-4.38,2.51-4.38,2.5-9-1.58,7.39-4.21,14.67-8.41,22-12.5C159.86,529.91,161.36,533,163.86,534.17Z"/><path class="cls-135" d="M233.9,487.76c1.14,1.49,3.71,1.52,4,3.91-6.72,3.91-13.51,7.72-20.13,11.79-3.63,2.23-5.27-.83-8.13-2.33Z"/><path class="cls-136" d="M44.15,442.84,44,443a11.45,11.45,0,0,1-4.81,2.71h0l-.09,0Z"/><path class="cls-137" d="M489.75,409.71c0,.28,0,.55,0,.83l-4.92,3.25-4.14,2.28-19.88,11.58-8,4.39a22.62,22.62,0,0,1-8.26,6.86c-8.42,4.52-16.38,9.86-24.93,14.16-4.32,1.85-7.65,6-12.94,5.6a64.07,64.07,0,0,0-10.87,6.25q-18,10.2-36,20.39c-1.58.89-3.24,1.65-4.86,2.47-2.49-3.63.28-6.8.87-10.16-.28-1.45.62-2.27,1.6-3.06,7.94-6.12,17.36-9.71,25.78-15,17-10.63,34.37-20.57,51.43-31.07,1.13-.45,1.9-1.44,3-2,11.51-6.55,22.47-14,34-20.59,2.84-1.63,5.51-3.77,9-3.88C484.35,403.73,488.07,405.5,489.75,409.71Z"/><path class="cls-50" d="M329.84,496.73c-1.42-1.08-1.1-2.61-1.06-4.07,2.24-2,.73-4,0-6-.07-3,2-3.31,4.76-3.5-1.77-2.49-3-4.94-.68-7.46,5.44.87,5.54-4.42,8-7,1.11-1.11,2.49-1.08,3.91-.94,3,2.76,1.18,5.72.46,8.25,1.07-1.94,2.39-4,5.47-2.2a123.6,123.6,0,0,0-.93,12.76c-1.15,1.14-2.59,2.14-2.08,4.13a7.08,7.08,0,0,1-2.82,4.77,3.53,3.53,0,0,1-1.91-.13c-2.85-.72-1.74,2.13-2.75,3.05-.61.66-.69,1.73-1.65,2.11a4.7,4.7,0,0,1-3.55,1,2.81,2.81,0,0,1-1.38-2.44C334.37,494.88,331.45,496.93,329.84,496.73Z"/><path class="cls-138" d="M319.67,499.47l.23-13.22c-.95-3.05,0-5.82,1.21-8.59,3.26-7.19,7.56-13.52,14.26-18,2.24-1.48,4.53-2.75,7.39-2.05,1.58.95,3.42,1.69,3.4,4-16.47,4.51-23.92,19.86-19.86,41.54C323.3,503.11,321.59,501.08,319.67,499.47Z"/><path class="cls-125" d="M346.16,461.63l-3.48-2.73c2.18-4.27,5.49-2.83,8.44-1.39,6.1,3,8.86,10.74,6.85,18.38l-2.16,1.72c-1.4-1.32-.75-3.09-1-4.65C354,467.62,351.88,463.25,346.16,461.63Z"/><path class="cls-139" d="M350.7,473.85c-3.22.36-4.25,3.92-7.19,4.95-.38-3.83,1.91-7.26,1.26-11C348.24,468.35,349.55,471,350.7,473.85Z"/><path class="cls-140" d="M340.86,468.74a35.7,35.7,0,0,1-2.3,10.3c-2.52-.34-2.93-3.87-5.74-3.34C335.07,472.88,337.1,469.82,340.86,468.74Z"/><path class="cls-141" d="M329.84,496.73a19,19,0,0,1,5.69-4.59c.51,3.39-1.57,6.36-.52,9.39C332.79,500.46,330.47,499.51,329.84,496.73Z"/><path class="cls-142" d="M343.92,494.63l.95.88a9.87,9.87,0,0,1-6.31,5c.15-.93.31-1.87.47-2.8C340.26,496.08,340.69,493.15,343.92,494.63Z"/><path class="cls-143" d="M328.74,486.66c.9,1.68,2.73.77,4.25,1.55-.72,2.15-2.56,3.22-4.21,4.45C329,490.65,327.73,488.66,328.74,486.66Z"/><path class="cls-144" d="M347.69,490.74c-1.1-.77-2.51-1.85-2-3.06.66-1.49,2.67-.69,4-1.07A5.58,5.58,0,0,1,347.69,490.74Z"/><path class="cls-145" d="M449.85,442.88c-4.31,17-8.68,34.07-12.86,51.14-.72,2.92-2.26,4-4.93,3.53-9.08-1.49-18.23-.54-27.34-.85-5.3-.18-5.49-.48-3.2-5.41q5.46-11.75,10.82-23.52c.46-1,1.3-2,.52-3.25-.36-1.5.59-2.3,1.62-3.07,9.2-5.86,18.7-11.24,28.14-16.72C444.76,443.48,446.91,441.37,449.85,442.88Z"/><path class="cls-146" d="M449.85,442.88c-11.81,6.37-22.92,14-35,19.86-1.63-4.74,2.12-7.56,3.94-11.07L452.83,432c-.82,3.22-2.16,6.33-2,9.75Z"/><path class="cls-54" d="M418.76,451.67c.26,4.25-2.54,7.41-3.94,11.07l-2,1.79-8,4.29c-1.67-2.67,1-4.46,1.43-6.72.22-1.16,1.75-2.11.37-3.44Z"/><path class="cls-131" d="M540.74,346.81c1.46,4.82,1.21,9.78,1.19,14.73,0,4.44-4.27,6-6.24,9.1-5.55,3.38-10.19,8.1-16.28,11.26-1-3.44-.92-6.82-2.64-9.65-.38-1.47-1.87-2.44-1.85-4.09.52-3.22,3.58-4.12,5.52-6,4.34-4.3,9-8.21,13.47-12.39C535.76,348,537.63,345.81,540.74,346.81Z"/><path class="cls-50" d="M494.92,384.69c.77-1.47,1.18-3.19,2.84-4,2.13,0,3.28,1.35,4.06,3.25-1.17-3.79.79-6.51,2.8-9.21,1.16-1.24,2.62-1,4.06-.82,2.1,1.59,1.35,3.85,1.19,5.91,1.67.29,3.25-1.77,4.65.22.14,1.44.56,2.86-.45,4.25s-4,2.63,0,4.35c1.14.49.05,3.21-.59,3.42-3.14,1.05-3.88,2.59-2.4,5.6.31.64-.86,2-1.35,3-.44.69-1.16.6-1.82.65-3.13-1.5-3.48.73-3.88,2.89a4.57,4.57,0,0,1-2.3,2.53c-1.31.64-2.61,2-3.95.06-.9-1.76,0-5.35-4-4-.93-.31-.91-1.23-1.26-1.92-1.35-2.66,2.88-5.07,1.86-5.57-3.1-1.54-1.67-3.36-1.34-5.27A4.21,4.21,0,0,0,494.92,384.69Z"/><path class="cls-138" d="M489.75,409.71c-3-2.2-6.87-3.32-9-6.75-2.52-6.27-.08-12.06,2-17.76,3.1-8.41,8-15.58,15.91-20.26,1.58-.94,3.17-1.83,5.1-1.7,2.4.22,4.66.62,5,3.65-13.28,5.81-19.07,16.6-20.46,30.45a22.31,22.31,0,0,0,1.34,9.2C490,407.61,490.88,408.62,489.75,409.71Z"/><path class="cls-147" d="M542.75,379.81h1a2.09,2.09,0,0,1,0,3,14.36,14.36,0,0,1-6.92,8.93,18.08,18.08,0,0,1-5.19-4.82Z"/><path class="cls-139" d="M514.52,380c-3.19,0-4,3.74-7.24,4.39-.55-3.72,1.8-7,1.4-10.52C512.2,374.41,513.16,377.4,514.52,380Z"/><path class="cls-148" d="M504.62,374.69l-2.08,10.55c-2.55-1.05-3.6-2.89-4.78-4.59A10.82,10.82,0,0,1,504.62,374.69Z"/><path class="cls-125" d="M508.79,366.89a9.09,9.09,0,0,0-5.06-2.22c2.76-3.46,6-3.47,10.59,0a3.54,3.54,0,0,1,1.07,3.27c.46,1.44.92,2.89,1.37,4.33C514.44,370,512,367.86,508.79,366.89Z"/><path class="cls-139" d="M493.76,402.79a12.4,12.4,0,0,1,5.74-4.93,30.32,30.32,0,0,1-1.76,8.92C496.05,405.81,494,405.2,493.76,402.79Z"/><path class="cls-149" d="M501.69,406.72l1.11-2.94c1.27-1.65,1.65-4.75,5-3l1.92-.11C507.53,403.34,505.31,406,501.69,406.72Z"/><path class="cls-150" d="M494.92,384.69l3.38,4.74L493,390Q494,387.36,494.92,384.69Z"/><path class="cls-15" d="M543.71,382.8c0-1,0-2,0-3l2-1c8.27-.33,8.27-.33,14-7.61a11.54,11.54,0,0,1,1-1.11l2.23-1.45c5.14,3.14,5.42,8.42,6,13.57-.43,2.47-2.93,2.24-4.45,3.28.35,1.8,2.34,3,1.66,5-1.14,1.78-2.52,2.67-4.54,1.23Z"/><path class="cls-151" d="M561.69,391.76l4.11-1.92a3.8,3.8,0,0,1,5-1.94,4.15,4.15,0,0,1,2.35,4.85c-1.06,1.84-3.36,1.33-4.77,2.52-1.89.9-3.72,2-6,1.73-1.55-.59-3.15-1.14-2.77-3.33Z"/><path class="cls-152" d="M559.63,393.67l3.3,2.12a1.6,1.6,0,0,1,.1,1.43c-1.53,2.22-3.39,3.72-6.32,2.85.37-1.73.74-3.47,1.12-5.2Z"/><path class="cls-153" d="M552.68,405.79l.8-.07a38.91,38.91,0,0,0,6.62,1c1.65,1.66,1.26,3.89,1.63,5.9,1.34,6.89,7,8.64,12.53,10.49a5,5,0,0,1,2.36,1.76,2.59,2.59,0,0,1,.14,2.86c-7.24-.27-13.4-3.37-18.86-7.75C553.46,416.42,552.06,411.39,552.68,405.79Z"/><path class="cls-154" d="M576.76,427.73l-1-1.93a28.46,28.46,0,0,1,17.6.17c1.14,4-2.86,1.37-3.68,2.85l-10,.1Z"/><path class="cls-124" d="M589.66,428.82l4.05-1.94a1.6,1.6,0,0,1,2.06-.34,1.42,1.42,0,0,1-.11,2l-.95.36a8.31,8.31,0,0,0-4.85.44A1.35,1.35,0,0,0,589.66,428.82Z"/><path class="cls-155" d="M556.71,400.07c2.09-1,3.59-3,6-3.36a2.33,2.33,0,0,1,3.26.56,2.94,2.94,0,0,1,.39,1.39c-.89,2.9-3,4.82-5.29,6.61a3.81,3.81,0,0,1-1.41.32,5.37,5.37,0,0,1-4.72-2.91Z"/><path class="cls-156" d="M555,402.68a6.32,6.32,0,0,1,5,2.14,1.39,1.39,0,0,1-.33,1.89,21.89,21.89,0,0,1-1.65,3.13,7.36,7.36,0,0,1-4.53-4.12Z"/><path class="cls-157" d="M572.62,392.56l-2-4c-2.54-1.32-2.83-3.62-2.66-6.12L563,368.65c-1.26-6.83-2.38-13.69-.17-20.51,2-6.22,5.65-10.77,12.72-11.45,14.19,1,21.21,11,25.9,22.42,8.38,20.39,1.35,36.32-17.73,52.51-1.41.86-2.17-.31-3.09-1-2.31-2.58-3.17-6-5-8.85a7.31,7.31,0,0,1-1.41-2.29c-.53-1.48-1.71-2.67-1.93-4.3A3,3,0,0,1,572.62,392.56Z"/><path class="cls-156" d="M599.76,402.59l2.18-3.24a5.79,5.79,0,0,1,6.92,1.1c3.61,3.31,7.51,6.51,4.62,12.27a3.5,3.5,0,0,1-1.34,1c-2.66.77-4.78-.36-6.74-2-1-.84-1.16-2.14-1.82-3.16C603,406.16,600,405.28,599.76,402.59Z"/><path class="cls-158" d="M604.75,407.73a3.17,3.17,0,0,1,.61,2.83,2.56,2.56,0,0,1-.41,2.7,4.17,4.17,0,0,1-1.19.74c-2.65-.19-3.31,1.87-4.15,3.73a6.26,6.26,0,0,1-3.93,2,3.19,3.19,0,0,1-2.09-.71c-2.27-3.41.63-6.91-.17-10.35l3.2-3C599.85,404.28,602.08,406.91,604.75,407.73Z"/><path class="cls-159" d="M581.81,409.72l1.91,1.9c2.39.26,4.77.42,7-.89,2.5,3.5,1.3,6.27-1.69,8.71-2.88,1-5.25-.63-7.45-1.92C578.63,415.81,578.88,413,581.81,409.72Z"/><path class="cls-160" d="M588.65,418.68a22.38,22.38,0,0,0,2-7.95,4.78,4.78,0,0,1,2.74-2.06c2.79.72,2.41,2.74,1.87,4.75-.48,1.75-1.08,3.47-1.62,5.21l-.39.66a3.28,3.28,0,0,1-2.88.76A2.51,2.51,0,0,1,588.65,418.68Z"/><path class="cls-161" d="M607.78,401.57c-1.89-.89-3.66-2.11-5.84-2.21.95-1.24,1.91-2.47,2.86-3.7,2.84-1.66,4.7.52,6.82,1.73,1.63,1.47,3.89,2.55,3.36,5.38C612.09,405.34,610.27,401.44,607.78,401.57Z"/><path class="cls-162" d="M610.77,398.6l-6-2.94a4.88,4.88,0,0,1,1.78-2.93l6.91,3.14,4.22,3.92C614.91,402.26,613.2,398.35,610.77,398.6Z"/><path class="cls-163" d="M604.75,407.73c-3.49,2.46-5.36-1.58-8.13-2l3.14-3.11C602.29,403.46,604.13,405,604.75,407.73Z"/><path class="cls-164" d="M610.77,398.6c2.59-1.23,4.55,1.23,6.94,1.18l2.75,2.1,1.26,2.9c-.93,3.63-3.29,1.31-5.11,1.24a3,3,0,0,1-2-3.23C613.85,400.94,612.2,399.87,610.77,398.6Z"/><path class="cls-165" d="M595.66,428.57l0-1.72c1-2.89,3.77-3,6.06-3.87,4.26,0,6.73-3.8,10.42-5a4,4,0,0,1,1.42-.21,3.05,3.05,0,0,1,2.81,2.86C610.56,426.08,603.26,427.71,595.66,428.57Z"/><path class="cls-166" d="M616.4,420.62l-2.81-1.89c-.53-2,.56-3.07,2.21-3.81,2.08-.17,3.87.08,3.86,2.8l-2,2.19Z"/><path class="cls-167" d="M619.66,417.72a5.93,5.93,0,0,0-3.88-1.94,2.29,2.29,0,0,1-.78-1.19c.45-3.23-.44-6.66,1.42-9.68,1.76-.62,3.57,1.28,5.3-.13.37.67.75,1.34,1.13,2a17.12,17.12,0,0,1-2.31,10.67C620.25,417.56,620,417.64,619.66,417.72Z"/><path class="cls-168" d="M571.72,269.87l1.34-.18c4.77-.85,7.55.7,9.65,5.36,2.34.75,1.85-1.1,2-2.25.31-2.91-1.24-6.65.71-8.53s5.47-1.67,8.31-2.4l3,7c4.85,12.09,9.82,24.14,14.47,36.31.91,2.39,3.22,4.85,1.24,7.82l-8.68-4.31c-2.7.87-4.68-.76-6.8-1.93-3.28-1.81-6.29-4.08-9.8-5.48-5.61-3.57-12.12-5.84-16.45-11.28-5.18-4.23-11.5-6.61-16.93-10.43a14,14,0,0,1,8.7-5C565.94,274,569.76,273.61,571.72,269.87Z"/><path class="cls-169" d="M587.71,299.93c5.91,1.89,10.86,5.54,16,8.76-.49,9.48,1,19-1.15,28.45a130.59,130.59,0,0,1-16-9.14c-2.09-8.53-1-17.15-.66-25.75A3.17,3.17,0,0,1,587.71,299.93Z"/><path class="cls-76" d="M586.72,219.91a7.58,7.58,0,0,1,4-2.13C589.94,219.57,588.44,219.94,586.72,219.91Z"/><path class="cls-40" d="M513.62,365.72c-3.16-1.69-6.37-2.82-9.89-1.05-13.91,6.39-19.64,18.32-22,32.51-.32,1.93.22,4-.95,5.78q-18.93,11.24-37.88,22.44c-1.55.92-3.19,1.7-4.78,2.54-2.67-.14-2.12-1.61-1.3-3.18a285.67,285.67,0,0,0,36.87-24.37c2.53-1.95,3.37-4.81,4.29-7.68,2.86-8.87,5.86-17.58,12.73-24.47,5.69-5.72,12.86-7.1,20.26-8.43,9.2-1.65,19.86-13.09,21-22.27,2.69.09,2.87,2.9,4.51,4.14.12.8.24,1.6.37,2.39a3.66,3.66,0,0,1-1.37,4c-6,5.28-11.47,11.09-17.77,16C516.47,365,515.27,365.94,513.62,365.72Z"/><path class="cls-170" d="M587.71,299.93c0,7.26,0,14.53,0,21.8,0,2.16,0,4.3-1.08,6.27-5-2-9.46-5.07-14-8,1.92-4.54.4-9.33,1.05-14,.67-2.35-1.56-2.36-2.65-3.3-.94-.82-3-.78-2.25-2.94,3.42-2.74.43-6.7,1.89-9.82C577,292.3,582.29,296.19,587.71,299.93Z"/><path class="cls-171" d="M513.62,365.72l23.18-21.65c1.88.1,3.78.17,3.94,2.74-7.51,5.39-13.69,12.3-20.81,18.14a47.79,47.79,0,0,1-4.54,3Z"/><path class="cls-172" d="M536.43,341.68c-3.84,1.16-3.39-2.34-4.51-4.14-.32-3.25-.57-6.5-1-9.74a7.7,7.7,0,0,1,1.83-5.89l1.93-.78c1.83,1.07,2.79,2.55,2.21,4.74Z"/><path class="cls-173" d="M560.77,370.1c-.89,3-1.91,6-2.65,9-.88,3.66-2.37,5.33-6.13,2.83a58.14,58.14,0,0,0-6.2-3.15Z"/><path class="cls-174" d="M536.37,320.18l-3.17-4.38c4.44-3.15,4.44-3.15,9.59.78Z"/><path class="cls-175" d="M536.91,325.87l-2.21-4.74,1.65-.27C536.9,322.49,538.1,324.05,536.91,325.87Z"/><path class="cls-176" d="M568.81,299.82a57.52,57.52,0,0,1,6.14,4c2.56,2.14.08,2-1.24,2.27l-16-10.18,1.32-1.25Z"/><path class="cls-177" d="M582.71,275.05a52.88,52.88,0,0,0-9.65-5.36c-.84-3.62-.34-7.29-.4-10.94,0-1.27-.21-2.76,2.13-2.07,6.14,1.8,9,5.32,8.89,11.68C583.64,270.6,584.5,273,582.71,275.05Z"/><path class="cls-40" d="M358,475.89c-1.54-1.84-.91-4.11-1.23-6.19-1.32-8.62-7.19-13.14-14.06-10.8-6.37.73-10.12,5.27-13.89,9.68-4.4,5.14-6.46,11.51-8.89,17.67l-4.07-2.6c-3.29-1-6.47-.49-9.64.59-5.94,2-12,3.78-18,5.59-1.75.53-3.44,1.23-5.31.66a1.81,1.81,0,0,1-1-1.07c.67-2.23,1.33-4.46,2-6.68,14.33,1.54,25.16-5.23,35.06-14.52,5.31-5,10.78-9.86,17.61-12.8,8.37-3.61,17.55-2.37,23.4,4.13,4.86,5.39,10.13,5.06,15.75,2.59,4.82-2.12,9.36-4.92,14-7.42.86-.64.45-1.81,1.07-2.56,6-5.72,13.66-8.78,20.4-13.31,5.52-3.72,11.31-7,17-10.51,2-1.2,3.89-2.67,6.46-2.07a2.45,2.45,0,0,1,1.11,3.2Z"/><path class="cls-113" d="M432.81,365.83c-.11-.13-.27-.23-.33-.38-1.73-4.84-5.37-10-4.64-14.45.77-4.75,7.76-5.79,12-8.57,4.56-3,9.42-5.6,14.15-8.37a8.48,8.48,0,0,0,2.45-.39c7.57-2.33,13.22,2.31,12.18,10.2-.72,5.54-3.81,9.83-7.95,13.4a44,44,0,0,1-21.36,10.05C436.88,367.75,434.62,367.79,432.81,365.83Z"/><path class="cls-113" d="M386,386.87c2.62-5.29,5.31-10.55,7.84-15.89,2.16-4.55,6.53-6.3,10.48-8.6,2.41-1.41,4.9-2.69,7.35-4,9.82,1.41,14.91,12.3,8.8,20.28-6.65,8.7-16.12,13.68-26.86,15.69C388.93,395.19,386.55,392.43,386,386.87Z"/><path class="cls-114" d="M386,386.87c4.56,6.95,4.59,7,12.8,4.07a56.11,56.11,0,0,0,17.78-10.57c6.58-5.64,5.78-14.46-1.43-19.35-1.22-.82-2.74-1.23-3.48-2.67,3-2.39,6.69-3.46,9.63-6C422.8,351,425,351,426,354.16c2.06,6.82,4.52,13.52,7.05,20.19.87,2.28.66,3.49-1.56,4.79-11.89,7-23.7,14.07-35.5,21.18a10.12,10.12,0,0,1-8.15,1,.68.68,0,0,1-.94-.38c-6.44-3.37-6.49-3.54-3.06-10.18C384.47,389.44,385.24,388.17,386,386.87Z"/><path class="cls-114" d="M432.81,365.83c13.24-.85,24.57-5.32,32-17.06,2.25-3.57,3.1-7.48.71-11.3s-5.91-3.71-9.72-2.79c-.53.12-1.21-.4-1.82-.62a23.91,23.91,0,0,0,2.07-1.37c5.55-4.65,10.93-4.43,16.57.05,2.71,2.15,6,3.56,8.93,5.44,4.64,3,4.81,6.78.26,9.69-14.13,9-28.37,17.89-42.52,26.9-2.2,1.4-3.5,1.47-4.23-1.34C434.37,370.87,433.55,368.36,432.81,365.83Z"/><path class="cls-40" d="M390.85,438.72q20.61-12.41,41.22-24.79c.84-.5,1.77-.84,2.66-1.26,1,.69,1,1.73.95,2.8-.8,2.61-3,3.89-5.07,5.23-11,7-22.17,13.5-33.22,20.3-2.1,1.29-4.3,3.49-7.18,1.42A3.47,3.47,0,0,1,390.85,438.72Z"/><path class="cls-40" d="M386.85,401l.95.38c1.41,2,3.83,2.36,5.85,3.26,4.19,1.86,4.63,4.11,1.33,7.21-3.83,1.77-7.88,1.07-11.79.73s-5.1-3.24-5-6.82a2.69,2.69,0,0,1,.42-1.7C380.75,401.31,384.23,402.28,386.85,401Z"/><path class="cls-40" d="M436.8,410.73l31.07-18.67c.85-.51,1.66-1.1,2.55-1.55s2-1,2.63.11-.42,1.9-1.24,2.42c-4.91,3.07-9.87,6.06-14.79,9.12-6.75,4.19-13.48,8.42-20.22,12.63A2.74,2.74,0,0,1,436.8,410.73Z"/><path class="cls-40" d="M436.8,410.73v14a3.47,3.47,0,0,0,1.3,3.18l-2.38,1.53-1-2.76c-3.61-3.63-2-7.26,0-10.89q0-1.57,0-3.15V380.05l2.07,0Z"/><path class="cls-40" d="M389.74,443.79c-6,3.52-11.91,7.07-17.9,10.53-1.4.81-3.18,3.24-4.47,1.15s1.65-2.85,3-3.74c6.38-4.1,12.86-8.05,19.31-12.06A3.56,3.56,0,0,1,389.74,443.79Z"/><path class="cls-125" d="M471.68,373.83c-.48.14-.94.31-1.43.42-2,.45-3.63,3.77-5.85,1.69-2-1.83.25-7.48,3.17-9.14,1.12-.64,2.29-1.2,3.46-1.81,1.8,2.57-.74,5.78,1.73,7.94C472.81,373.73,472.59,374.2,471.68,373.83Z"/><path class="cls-125" d="M463.83,378.06c1.18,8.68.63,9.6-6.66,11.7C456.31,381.69,456.31,381.69,463.83,378.06Z"/><path class="cls-125" d="M479.11,368.63c-.65-9-.6-9.07,6.51-11.45C486.91,365.25,486.77,365.5,479.11,368.63Z"/><path class="cls-125" d="M471.68,373.83l1.08-.9a3.59,3.59,0,0,1,.36-.32c4.71-3,5.59-3.14,5.59-1.88,0,3.15,2,7-2.52,9-1.32.58-2.56,1.32-4.51,2.34Z"/><path class="cls-125" d="M378.83,404.77c.89,6.43,5.21,7.55,10.71,7,1.79-.17,3.62,0,5.44,0a4.52,4.52,0,0,1-4.15,2c-.35.62-.7.63-1.07,0-5.05-.49-10.95,1.44-14-4.88C376.35,407.22,376.34,405.09,378.83,404.77Z"/><path class="cls-40" d="M389.76,413.83l1.07,0q0,12.46,0,24.91c0,1.35,0,2.7,0,4,3.19,3.33,2.48,6.65,0,10l-1.13,2,0-10.94c0-1.37,0-2.74,0-4.12Q389.74,426.76,389.76,413.83Z"/><path class="cls-125" d="M442.52,380.87c.86-5.13,4.16-5.85,7.24-7.85C449.34,377.65,445.87,378.33,442.52,380.87Z"/><path class="cls-125" d="M424.13,392.38c-1.23-.11-1.42-.89-1.18-1.42,1.16-2.53,3.55-3.67,5.9-4.69.74-.32,1.09.76.85,1.31C428.57,390.15,425.94,391,424.13,392.38Z"/><path class="cls-125" d="M378.83,404.77c-.87,1.5-.84,3.65-3,4.18-1.73-3.19-1.93-5.51,2.85-4.94C378.69,404.27,378.76,404.52,378.83,404.77Z"/><path class="cls-9" d="M165.86,373.53h.49l.47,0c7.93,4.18,16.72,6.18,26,9.93-9.37,3.64-17.83,7-26.31,10.21-12.1,4.66-24.31,9.08-36.29,14-4.31,1.78-6.44,1.37-7.33-3.39a22.48,22.48,0,0,0-2-4.57,1.41,1.41,0,0,1-.2-.61,1.07,1.07,0,0,1,0-.31,2,2,0,0,1,.35.1l18.18-10.34h0l.65-.08,2.89-1.79c0-.06,0-.12.05-.18h0l4.84-2.77h0l.19,0,1.87-1,.17-.28Z"/><path class="cls-178" d="M233,345.75c3.37.32,6.74-1.28,7,3.87.22,4.89-2.19,6-6.19,6.12q-4,.11-7.94.41c-2,.15-4.85,1.63-4.69-2.06.12-2.76-2.17-7.14,3.64-7.4C227.72,346.56,230.66,346,233,345.75Z"/><path class="cls-179" d="M220.89,368.8c-.59-3.74.94-5.05,4.38-5a89.61,89.61,0,0,0,9.38-.77c2.41-.25,4.53-.06,4.17,3.14-.29,2.59,1.66,6.41-3.45,6.63-3.13.14-6.26.46-9.37.89C221.92,374.22,219.8,373,220.89,368.8Z"/><path class="cls-180" d="M281.87,489.42l1,.37c1.37,1.29,1,2.6,0,3.92l0,.07c-.34.6-.66.59-1,0-25.72-7.14-49.3-18.85-71.2-33.94-6.17-4.25-10.5-10.54-15.59-16-1.36-1.45-2.43-3.16-4.22-4.15-1-2.43.77-3.71,2.2-5.11a3,3,0,0,1,.81.55c19,25,45.91,38,74,49.17C272.47,486.18,277.19,487.73,281.87,489.42Z"/><path class="cls-181" d="M189.86,443.63c0,1.74.46,3.58-.9,5.09C188.9,447,188.52,445.14,189.86,443.63Z"/><path class="cls-182" d="M295.87,228.69c-8.14-6.16-11.41-15.05-12.68-24.54-2.84-21.38,2.15-41.16,13.57-59.38a2.77,2.77,0,0,1,2,2.56c0,6.91,1.05,13.86-.65,20.7a2.61,2.61,0,0,1-1.36,1.32c.06,0-.36-.08-.36-.08s-.09.41-.08.4c1.23.15,1.38,1.15,1.65,2.07a16,16,0,0,1,.69,2.4c.13,16.79,1.25,33.58-.63,50.34C297.86,226.2,297.55,227.78,295.87,228.69Z"/><path class="cls-183" d="M352.81,205.91c-2.92,6.48-7.69,11.46-13,16-1.1.66-2.12,2-3.51,1.26s-.94-2.44-.46-3.57c1.69-3.94-1.8-7.78-.06-11.67,2.32-3.66.06-8,1.73-11.74,1.09-1.74,2.4-3.37,4.71-2.74,2.1.58,2.26,2.62,2.56,4.33.07-6,.07-6-4.87-5.22-2.08-.37-2.17-2-2.57-3.66-2-8.37-1.94-16.88-1.92-25.4,1.26-6.36,6.14-10.77,8.88-16.35.79-1.61,1.72-3.17,2.49-4.81.92-1.35,1.71-2.88,3.72-2.73a2.38,2.38,0,0,1,1.23,1.15c.35,13.44.24,26.89.24,40.33A236.71,236.71,0,0,0,352.81,205.91Z"/><path class="cls-184" d="M352.81,205.91c-1.73-.82-2.83-1.74-2.82-4.1.07-15.43.11-30.87-.27-46.29a74.14,74.14,0,0,1,1-15.77c-1.26-1.24-.52-2.72-.53-4.11.14-4.56-1.88-8.92-1.29-13.5.3-2.37.2-5.28,4.1-4.24a10.56,10.56,0,0,1,5.59,5.12c1,2.57,2.12,5.07,2.34,7.88.06.8.78,1.83.26,2.38-3.56,3.78-1.11,7.81-.65,11.74a74.74,74.74,0,0,1,.27,9.46c-.08,9.14-.21,18.31.72,27.39.36,3.54-2,6.6-.89,10C358.74,197,356.56,201.88,352.81,205.91Z"/><path class="cls-185" d="M319.87,120.12a31.46,31.46,0,0,1,14.94-5.93c1.47,2.07,1.19,4.42,1.1,6.74-.47,12.1.56,24.16,1,36.23-1,5.17-3.75,8.67-9,10-2.23.55-4,2.33-6.48,2.26-2.83-1.2-3.1-3.76-2.95-6.25.64-10.59.16-21.19.25-31.79C318.76,127.54,320.61,124,319.87,120.12Z"/><path class="cls-186" d="M295.87,228.69c1.52-19,1.24-37.95.57-56.94,0-.28.32-.56.49-.84a2.74,2.74,0,0,1,1.46-.65c3.17.41,6.74-.08,8.37,3.76.29,10.36.27,20.72.65,31a1.89,1.89,0,0,0,2.22.51c1.77-.81,3.54-1.14,4.85.72,1.21,1.7.62,3.45-.19,5.14-1,2.07-2.11,4.08-3.26,6.08s-2.57,4-.64,6.31c.4,4.56,1.57,8.61,6.62,10.14C309,236,302.06,233.89,295.87,228.69Z"/><path class="cls-187" d="M319.87,120.12c.72,1.41,1.95,2.21,3.93,2.95-3.14,2.21-3,5.29-3,8.44.15,9.29.38,18.59.17,27.88-.07,3.23-1.37,6.44.53,9.54,1.18,3.82-1.51,4.71-4.17,4.85a16.66,16.66,0,0,1-10.69-2.64c-1.55-2.91.28-5.77.2-8.7-.26-8.56.19-17.14-.47-25.69a11.61,11.61,0,0,1,2.48-7.75A35.58,35.58,0,0,1,319.87,120.12Z"/><path class="cls-188" d="M317,234l-.49,0c-8-.2-8.82-1.39-6.65-9.73a7.42,7.42,0,0,1,.41-1.88c.26-1.16,4.45-1.73.53-3.65-.77-.38.25-1.72.67-2.59,1.32-2.79,3.07-5.38,3.83-8.42.34-1.59.81-3.19-.25-4.71a8.51,8.51,0,0,0-.7-1.16c-2.05-8.46-3.5-16.91,0-25.37a4.41,4.41,0,0,1,5.36,1.4c1.64,2,3.93,2.91,6,4.25,2,3.79.16,8.26,2.18,12,.21,4.58-3.39,7.77-4.34,11.94-.29,1.24-1.44,2.23-1.07,4,3.2-.21,6.29.12,6.33,4.48-1.63,5.13-.34,10.37-.57,15.55A21.25,21.25,0,0,1,317,234Z"/><path class="cls-189" d="M326.88,193.93c-3.54-3.31-2.88-7-1-10.84,2-5.54,4.22-11,6.62-16.32.71-1.59,1.93-3.15,4.16-2.89.76,8.22,1.5,16.44,2.28,24.65.11,1.13.38,2.25.58,3.38.67,1.62-.48,1.45-1.42,1.47-.59,0-1.91-1.19-1.62.41.9,5.06-.19,10.13.4,15.17-.2,4.48,3.3,8.92-.62,13.69l3.56-.76a32.69,32.69,0,0,1-11.58,8.22c-3.24-4.23-3.41-12.05-.34-16.1C328.69,207.26,329.34,200.52,326.88,193.93Z"/><path class="cls-190" d="M360.66,191.92c-1.34-.38-1.68-1.31-1.7-2.63-.26-17.26,1.27-34.58-2-51.71-.52-2.7-.11-4.7,4.72-4-5.39-3.26-2.43-7.19-3.08-10.53,7.37,8,9.61,17.9,10.12,28.29A85,85,0,0,1,360.66,191.92Z"/><path class="cls-191" d="M308.87,129c-1.29.84,5,2.24-.21,3-.31.05-.53,2.39-.39,3.62,1.06,9.48.3,19,.61,28.47a8.34,8.34,0,0,1-2.18,6.34c-2,1.94-4.28.25-6.41.47a5.92,5.92,0,0,1-3.43-2.1q0-12-.1-24A53.69,53.69,0,0,1,308.87,129Z"/><path class="cls-192" d="M335.71,157c-2.08-5.79-1.12-11.91-1.71-17.85-.75-7.53-.39-15.18-.39-22.78,0-.71.78-1.42,1.2-2.13,3.78-.18,7.6-1,11.29.64.09,7.35-.24,14.69-.49,22-.07,2-.19,3.93.8,5.75C344,148.27,342.08,154.25,335.71,157Z"/><path class="cls-193" d="M345.68,143c-1.77-.67-2.8-2-2.45-3.84,1.13-5.93.41-11.91.58-17.87.07-2.44,1.24-4.38,2.29-6.42A11.13,11.13,0,0,1,353,117.9c-2.68,2.38-3.7,11.12-.94,13.38,2.49,2.05.86,2.83-.22,4.13-.39,1.48-1.57,2.49-2.23,3.81-.69,1.07-1.46,2.08-2.24,3.08A2,2,0,0,1,345.68,143Z"/><path class="cls-194" d="M203.8,309.58l-1,.46A11.85,11.85,0,0,1,198,315c-5.27,2.84-10.42,5.89-15.59,8.92-1.74,1-3.46,2.08-5.6,1.16l-1.92,1.07c-1.75,4.72-6.4,4.25-10,5.63l-3.75,0c-1.4-.52-3.06-.65-3.68-2.39-1.55-2.15-1.69-4.61-1.69-7.13,0-19.27-.05-38.54,0-57.8a20.89,20.89,0,0,1,2-9.63c2.69-5.39,7-9.1,12.18-12.07,15.27-8.79,30.37-17.89,45.64-26.69a16.29,16.29,0,0,1,8-2.55c5.12,2.18,5.74,3.36,4.45,8.42V223a82.08,82.08,0,0,1,0,25.94c0,.65,0,1.29,0,1.93a82.86,82.86,0,0,1,0,26v1.1c2.57,13.53-.13,21-12.86,26.7a14.56,14.56,0,0,0-3.66,2.35C209.08,308.19,206.87,310.17,203.8,309.58Z"/><path class="cls-195" d="M160,254a45.56,45.56,0,0,0-2.08,14.7c.13,17.61.07,35.22,0,52.84a27.33,27.33,0,0,0,1,8.35c-4.94,1.06-6.85.15-10-4.72l-1-.53c-2.59-1-3.06-3.25-3.11-5.66a74.32,74.32,0,0,1,.3-12.83,15.52,15.52,0,0,0,0-2.81c-.73-6.94-.29-13.89-.31-20.83a7.75,7.75,0,0,1,1.6-4.6,2.08,2.08,0,0,0,0-1,7.69,7.69,0,0,1-1.6-5.08c.33-6.7-1-13.48.9-20.12a11.33,11.33,0,0,1,1.49-2.26L148,249a6.21,6.21,0,0,0,.86-.16C154,248,157.62,249.66,160,254Z"/><path class="cls-196" d="M160,254l-11.13-5.12c.08-.61.15-1.21.23-1.82.76-4.24,3.42-6.87,7.06-8.92,4.44-2.5,8.87-5,13.25-7.67,1.69-1,3.42-2.06,5.55-1.41l1-.31c1.48-4.44,5.74-4.32,9.15-5.59l1.87-1.18a129.44,129.44,0,0,0,15.91-9.17L204,212c7.25-5.33,13-.84,19,2.8-12.31,5.46-23.27,13.34-35,19.81-4.79,2.63-9.38,5.65-14.16,8.3C168.53,245.8,163.5,248.92,160,254Z"/><path class="cls-157" d="M84.76,465.24a40.89,40.89,0,0,1-5.23,4.31,9.61,9.61,0,0,1-1,.57s0,0,0,0c-3.58.18-4.35-2.95-5.93-5.09a19.82,19.82,0,0,1-1.93-3.92,10.9,10.9,0,0,0-.6-1.18,1.4,1.4,0,0,0-.09-.17c-.87-1.05-1.16-2.44-2-3.47l0,0a3.54,3.54,0,0,1-.42-.69c-.53-1-.77-2.08-1.23-3.09a5.87,5.87,0,0,0-.55-1l-.08-.12-.13-.2a9.93,9.93,0,0,1-.66-1.14c0-.1-.1-.2-.14-.3a6.07,6.07,0,0,1-.25-2.7,17.92,17.92,0,0,0,.09-2.07l-4.65-10.51c0-.12-.06-.25-.1-.37a.06.06,0,0,0,0,0c0-.19-.09-.37-.14-.56v0C58.12,428,56,422.62,55.76,416.79a37.27,37.27,0,0,1,2-14.05c-.67-5.26,3.12-7.18,6.84-9.16A10.26,10.26,0,0,1,67,393.3h1.58c11-1,18.23,5.45,24,13.41C106.42,425.7,103.16,449,84.76,465.24Z"/><path class="cls-197" d="M64.51,445c.56,1.51,1.13,3,1.69,4.55-.32,2.28-2.31,2.68-4,3.31a27,27,0,0,0-10.39,7.56c-3.77,4.17-3.69,9.24-.1,13.52,4.72,5.64,11,8.63,17.93,10.05a56,56,0,0,0,30.45-1.77c2.5-.89,5-1.69,7-3.58,1.5-1.37,3.37-2.19,5.52-1.33,1.71,1.4,1.17,3,.32,4.53-6,5.18-13.37,7.37-21,8.32-14.34,1.79-28.27.7-40.52-8.1-11.64-8.36-11.61-21.47.17-29.71C55.69,449.53,60.21,447.43,64.51,445Z"/><path class="cls-163" d="M113,481.84c-.11-1.42.13-2.92-1-4.1a1.48,1.48,0,0,1-.57-1.21c1.18-3.17,3.84-5.76,3.45-9.55-.69-6.56-5.51-9.7-10.4-12.79-.68-.42-1.49-.68-2.23-1-1-.66-2.24-1.16-2.81-2.39-.28-2.11.34-3.64,2.64-4.09a37.16,37.16,0,0,1,13.62,8c7.85,7.63,8.08,16.67.6,24.54-.8.84-1.58,1.7-2.36,2.54Z"/><path class="cls-198" d="M213.87,464.12c7.16,4.57,13.5,8.69,19.93,12.66,2.2,1.36,1.76,3.3,1.72,5.25s-.7,2.5-2.42,1.4c-6-3.83-12-7.64-17.93-11.51C212.42,470.13,213.89,467.51,213.87,464.12Z"/><path class="cls-199" d="M281.84,493.77a6.54,6.54,0,0,1,1,0l0,7.91C281.06,499.23,282.17,496.41,281.84,493.77Z"/><path class="cls-200" d="M102.1,446.67l-1.92,4a3.29,3.29,0,0,1,.1,2.68c-.49,1.86-2.29,2.85-3,4.56-.66,1.33-1.91,2.16-2.76,3.33-2.7,3.35-5.61,6.53-9.4,8.6-2.32,1.26-5,3-7.15-.58C84.18,462.85,91,457,95,448.69c6.79-14.13,3.85-32.91-7-44.43-5.57-5.94-11.56-10.49-20.25-9.64.26-2.12,1.93-2.52,3.57-2.75,7-1,18.34,1.32,21.52,11l1,1.09,5.22,7.95C104.47,423.1,106.11,434.64,102.1,446.67Z"/><path class="cls-201" d="M282.86,493.71l0-3.92,26.43-8.64c2.85-.93,4.63,1,6.57,2.5Z"/><path class="cls-202" d="M342.73,484.13c-.66,2.24-1.31,4.73-4.22,4.75-1.76,0-1.76-1.78-1.6-3.09.26-2.19.81-4.52,3.45-4.81C342.29,480.77,342.67,482.47,342.73,484.13Z"/><path class="cls-203" d="M343.92,494.63c-2.21.12-3.26,2.08-4.89,3.11.39-2.07.79-4.13,1.22-6.41C342.41,491.75,343,493.36,343.92,494.63Z"/><path class="cls-204" d="M506.45,389.94c-.79,1.82-1,4.37-3.64,4.62-2.11.2-2.15-1.67-2.05-3.15.15-2.31,1-4.32,3.68-4.38C506.05,387,506.52,388.35,506.45,389.94Z"/><path class="cls-205" d="M507.77,400.76c-2.23.06-3.26,2.1-5,3,.38-2.07.77-4.13,1.17-6.29C506.14,397.92,506.9,399.4,507.77,400.76Z"/><path class="cls-206" d="M567.92,382.48a18.56,18.56,0,0,1,2.66,6.12l-4.78,1.24c-.75-.61-1.48-1.26-2.26-1.81-1.49-1.06-3-2-1.93-4.27,1-2.15,2.46-.89,3.71-.6A2.3,2.3,0,0,0,567.92,382.48Z"/><path class="cls-207" d="M566,397.86l-3.24-1.15a3.52,3.52,0,0,1,.21-.92l4.78-1.94c1,.58,2.36.88,2.38,2.45C569.25,398.24,568,399.1,566,397.86Z"/><path class="cls-208" d="M569.8,395.84a2.29,2.29,0,0,1-2.09-2,9.53,9.53,0,0,1,4.92-1.29c.32.7.65,1.4,1,2.1C572.64,396,571.59,397.13,569.8,395.84Z"/><path class="cls-209" d="M602.74,424.64l-7,2.21-2,0c-6-.13-12.06.58-18-1.08-.69-.35-1.37-.71-2-1.07-5.2-3.37-10.42-6.73-14-12,0-2,0-4,0-6l.33-1.89.78-.13a3.34,3.34,0,0,1,4.1.53c2.12,2.75-.71,7,2.93,9.32,1.24,1.33,2.28,2.93,4.4,3,6.13,2.71,12.47,4.27,19.22,3.57a20,20,0,0,0,6-.75c1.8-.29,3.45-1.41,5.38-.91C606.72,421.21,605,422.93,602.74,424.64Z"/><path class="cls-210" d="M559.67,412.75a75,75,0,0,1,14,12C567.36,422.68,561.79,419.74,559.67,412.75Z"/><path class="cls-211" d="M569.8,395.84l3.81-1.18,2.06,3.94a8.14,8.14,0,0,1-4.21,3.61c-1.54.56-3,1.69-4.77.93-1.65-1.25-1.05-2.94-.87-4.55a5.88,5.88,0,0,1,.14-.73Z"/><path class="cls-212" d="M565.82,398.59c2.44,1,.4,2.89.9,4.28.53,1.86-.38,2.73-2.11,3l-3.84-1.21C561.33,401.72,563.68,400.25,565.82,398.59Z"/><path class="cls-33" d="M574.05,362c.36-3.25.86-6.5,4.34-7.85,3.21-1.25,5.93.29,8.1,2.49,4.58,4.63,7,10.16,5.45,16.73-1.21,5.2-5.46,6.88-9.92,3.94C576.59,373.77,574.51,368.27,574.05,362Z"/><path class="cls-213" d="M588.65,418.68l2.28.18c-.23,1.9-1.64,2.41-3.18,2.34-6.67-.31-13.17-1.11-17.19-7.53-2.31-6.2.13-11,6.44-12.71l4.81,8.76C580.67,416.37,580.67,416.37,588.65,418.68Z"/><path class="cls-214" d="M577,401c-2.75,3.49-7.87,5.93-5.26,11.81.9,2.19,1.52,4.34-1,5.94-2.18.22-2.94-1.59-4.07-2.86-2.51-6.07.84-10.56,4.07-15.08a7.42,7.42,0,0,1,5-2.16Z"/><path class="cls-163" d="M616.42,404.91c1,3.37,1.7,6.73-.66,9.89-2.28.89-3.38.11-3.28-2.34,1.06-4.76-1.21-8.09-4.7-10.89,2.56-1.11,4.52,1.13,6.86,1.22Z"/><path class="cls-215" d="M604.65,412.7l.72-2.14,6.27,2.22c1.33,2.31-.06,3.35-1.95,4.16C606.79,417,603.78,417.14,604.65,412.7Z"/><path class="cls-216" d="M609.72,415.79a3.84,3.84,0,0,0,1.92-3l.84-.32a3.93,3.93,0,0,0,3.28,2.34c0,.32,0,.65,0,1l-2.19,3-.84.08c-1.51.11-2.78-.23-3.42-1.79A1.32,1.32,0,0,1,609.72,415.79Z"/><path class="cls-217" d="M609.72,415.79c-.05.3-.11.59-.18.88-.55,4.28-4.39,3-6.87,4.08l-5,1a3,3,0,0,1-2.13-3.08l3.21-1.68a10.47,10.47,0,0,1,5.1-4.11,6.57,6.57,0,0,0,.77-.16C605.35,415.34,607.49,415.65,609.72,415.79Z"/><path class="cls-218" d="M595.57,418.65c1.73.31,2.18,1.53,2.13,3.08-1.83,1.22-3.87,1-5.91.88-1-2.13.39-2.94,2-3.69l-.07-.29Z"/><path class="cls-219" d="M603.88,412.86c-.94,2.31-2.84,3.43-5.1,4.11C599.15,414,599.67,411.12,603.88,412.86Z"/><path class="cls-220" d="M593.74,418.92l-2,3.69c-7.38.64-14.57.24-21.07-3.9l1-5.94c5.23,5.73,11.76,7.33,19.19,6.09Z"/><path class="cls-221" d="M602.67,420.75l6.87-4.08,3.21,2.14a19.25,19.25,0,0,1-10,5.83C602.83,423.34,605.55,422,602.67,420.75Z"/><path class="cls-112" d="M390.84,452.74l0-10,43.9-26.95q0,5.44,0,10.89-19.71,12-39.42,24A11.55,11.55,0,0,1,390.84,452.74Z"/><path class="cls-222" d="M296.86,168.77l3.26,1c-.42,1.06-1.36,1.12-2.29,1.2l-.44-.11-.46,0-2.84-1.17c-.38-.88-.17-1.25.82-.92Z"/><path class="cls-223" d="M294.91,168.82l-.82.92-2.65-1.2A2.67,2.67,0,0,1,294.91,168.82Z"/><path class="cls-224" d="M297.83,171l2.29-1.2,6.58.61c3.39.51,6.79.91,10.15,1.56,2.68.52,4-.59,4.67-3,.9-2.17,3-3.68,4.84-3.63,6,.16,7.17-4.56,9.35-8.35,3.68-4.41,7.42-8.78,10-14l1.16-1c1-.15,1.58,0,1.13,1.22l-11.34,20.7a22.13,22.13,0,0,0-4.87,10.52c-.54,3.73-2.79,6.57-5.91,8.69-3,.17-6,.21-6.71-3.76-.44-2.54-3.34-.71-4.19-2.44-3.37.11-6.92.76-9-3C303.66,171.77,300.28,172.69,297.83,171Z"/><path class="cls-225" d="M336.85,209c-2.07.65-2.06-.66-2.05-2.11,0-4.83,0-9.66,0-14.48,0-2.06-.63-5.27,2.3-5,2.41.21.86,3.17.9,4.93.23,1.27,1.63,2.27.87,3.76C337.36,200.22,340,205,336.85,209Z"/><path class="cls-226" d="M338.89,196l-.87-3.76c.54.07,1.17.48,1.47-.37a28.41,28.41,0,0,1,3.2-2.3c2.68-1.43,4.09-.43,4.16,2.51s-.06,5.95,0,8.91c.06,1.89-1.08,3.05-2.56,3s-.92-1.82-1-2.89,0-2.31,0-3.46.51-2.91-.9-3.6C340.56,193.15,340,195.3,338.89,196Z"/><path class="cls-227" d="M349,139a8.21,8.21,0,0,1,2.85-3.61c.6,1.7-.92,2.85-1.12,4.34a2.71,2.71,0,0,0-.82.35C349.27,140,349.16,139.51,349,139Z"/><path class="cls-228" d="M349,139l.91,1.08L348,143.18,346.84,142Z"/><path class="cls-229" d="M306,173.88a29.2,29.2,0,0,1,9,3c-1.39,6.57.52,13.17-.11,19.75a6.06,6.06,0,0,0,2,5.31,39.53,39.53,0,0,1-10.09,4.93,3.32,3.32,0,0,1-1.78-2.8q0-14.25.11-28.5C305.07,175,305.65,174.44,306,173.88Z"/><path class="cls-230" d="M306.73,206.88c2.94-2.52,5.18-6.46,10.09-4.93l0,0c1,1.95.59,4,.27,6l-5.75,10.81c2.46.6,3.81-2.15,6.46-2.31.16,5.55-5.59,5-7.91,7.82l-3.77,1.69c-.83-3.54,1.79-5.59,2.94-8.11s2.74-5.21,4.07-7.84c.59-1.17,1.4-2.78.27-3.65-1.49-1.15-2.55.55-3.64,1.44-.9.72-1.15,2.73-3,1.74C305.46,208.75,306.7,207.76,306.73,206.88Z"/><path class="cls-231" d="M326.88,193.93c1.47-.44,3.34-2.49,3.48,1.28.13,3.41-.47,6.76,1.43,10.3.71,1.33-.78,6.44-3.92,8.5-2.31-5-5.05-1.08-8.42.08C320.24,206.33,324.71,200.52,326.88,193.93Z"/><path class="cls-229" d="M317.07,207.89c.18-2,.46-4-.27-6C318.39,203.85,318.18,205.85,317.07,207.89Z"/><path class="cls-232" d="M205.68,296.07c-3.42,0-6.49-1.31-9.48-2.77-9.75-4.77-16.74-12.37-21.85-21.78-3.39-6.23-2.58-12.14,2-17.55,3.25-3.89,7.39-3.53,9.88.82,3.88,6.73,3.94,6.79-1.46,12.9a2.8,2.8,0,0,0-.31,3.91A35.59,35.59,0,0,0,197.11,284c3.34,2,4.11-1,5.29-2.64,2.17-2.94,4.5-3.64,7.66-1.73,3.52,2.15,8.47,3.14,7.1,9.09C216.39,292,210,296.1,205.68,296.07Z"/><path class="cls-14" d="M94,459.73l2.21-3c3.07-1.71,5.29,0,7.31,2a22.35,22.35,0,0,1,3.87,4.36,4.23,4.23,0,0,1,.93,2.27c.63,4.8-1.35,8.38-5.07,11.24-10.51,8.1-32,8-42.38-.19-4.3-3.41-5.87-8.27-4.15-12.83a12.44,12.44,0,0,1,12.42-7.93l2.13,3.27a7.24,7.24,0,0,1-1.8,4c-2.83,3.72-2.33,6.49,1.47,9.12,5.62,3.88,17.9,3.65,23.33-.44,2.64-2,3.52-4.39,1.57-7.33C95,462.84,93.86,461.55,94,459.73Z"/><path class="cls-197" d="M69.17,455.6c-2.56,1.52-5.35,2.77-7.64,4.63-5,4.06-4.89,9.87,0,14.1,9.44,8.14,31.85,8.17,41.33.06,3-2.57,4.61-5.64,3.82-9.68,4.66.21,3.74,4.18,4.66,6.91-.71,5-4.19,7.8-8.38,9.64-13.9,6.11-27.87,6.28-41.78-.08-6.09-2.79-10-7.41-9.88-14.23.1-6.6,4-11,9.93-13.68a36.79,36.79,0,0,1,6-2.35Z"/><path class="cls-233" d="M94,459.73c2.92,2,5.87,4.16,5.19,8.32s-4.06,5.89-7.53,7.22a27,27,0,0,1-16.17.78c-4.5-1.08-8.8-2.85-10.15-7.77s3.17-6.74,5.93-9.41c2.39,3.35,3.51,7.52,6.66,10.39,4.3,1.24,7.13-1.34,10-3.89C90,463.51,92,461.61,94,459.73Z"/><path class="cls-234" d="M67.24,450.92c-.8,2.45-3.3,2.59-5.08,3.64-11.95,7-12.19,18.59-.09,25.16,13.21,7.16,26.81,6.85,40.2.2,3.41-1.7,6.46-4.12,7.75-8a.93.93,0,0,1,1.38-.13c1.6,1.56,1.13,3.39.66,5.21,0,.26,0,.52,0,.78-15.9,10.72-32.87,11.31-50.53,5.32a6.86,6.86,0,0,1-.93-.35C53.86,479.42,47,475.94,47,467.19S53.93,455,60.64,451.73c1.79-.86,3.7-1.46,5.56-2.18C66.55,450,66.9,450.46,67.24,450.92Z"/><path class="cls-33" d="M86.62,427.66c-.34,3.15-.58,6.5-4,8s-6.27,0-8.57-2.38c-4.45-4.69-6.94-10.19-5.3-16.77,1.23-4.92,5.19-6.52,9.59-3.94C84,415.88,85.94,421.44,86.62,427.66Z"/><path class="cls-156" d="M112.06,477a11.33,11.33,0,0,1-1.22-5.42c-1.39-5-1.28-10.72-6.84-13.63a6.22,6.22,0,0,1-2-3.24,2.92,2.92,0,0,1,1-2.85,25.37,25.37,0,0,1,9.61,5.86C118.8,463.89,118.63,470.88,112.06,477Z"/><path class="cls-235" d="M103,451.82c0,.93,0,1.86,0,2.79-2.16,1.19-3.19,0-3.91-1.86.37-.69.73-1.39,1.1-2.09Z"/><path class="cls-236" d="M99.08,452.75l3.91,1.86,2,2c.74,1.46,2,2.66,2.44,4.24.35,1.23.79,2.69-1.34,2.83-2.53-3.4-5.59-6-9.86-7Z"/><path class="cls-237" d="M570.72,400.77q-2,7.55-4.07,15.08c-3.27-2.79-3.66-6.16-2-10l2.11-3Z"/><path class="cls-238" d="M323,208.69a23.2,23.2,0,0,1,3.49-7.68C326.76,204.31,327.8,207.44,323,208.69Z"/><path class="cls-163" d="M106.1,463.66c1.22-2.6-1.23-4.63-1.1-7.07,5.71,3.52,7,8.76,5.84,15l-.82.34c-.83-2.52-.94-5.37-3.33-7.17C106.5,464.36,106.3,464,106.1,463.66Z"/><line class="cls-42" x1="174.98" y1="599.22" x2="172.74" y2="597.7"/><path class="cls-239" d="M226.24,640.09c-1.85-1.33-3.75-2.6-5.7-3.78Z"/><polygon class="cls-7" points="260.9 637.04 260.87 637.23 260.67 638.42 259.83 643.45 259.44 645.78 258.61 650.79 258.43 651.83 258.19 653.28 258.04 654.22 258 654.43 257.9 655.04 257.79 654.97 256.61 654.17 256.38 654.01 174.97 598.89 172.77 597.4 102.54 549.86 90.7 541.84 90.69 541.83 84 537.3 83.93 537.25 78.37 533.49 74.78 531.06 72.67 529.63 72.02 529.19 71.79 529.03 71.41 528.78 69.64 527.58 0.9 481.04 4.9 467.04 85.31 520.44 86.82 521.44 182.9 585.24 184.31 586.18 186.31 587.51 188.27 588.81 259.57 636.16 260.86 637.02 260.9 637.04"/><polygon class="cls-24" points="184.9 586.04 182.9 605.04 83.9 538.04 86.9 521.04 184.9 586.04"/><path class="cls-1" d="M658.56,429.5a.79.79,0,0,1-.09-.22l.25-.14.49,2.57C659,431,658.78,430.23,658.56,429.5Z"/><path class="cls-1" d="M257.79,655l.11.07.1-.61a4.27,4.27,0,0,0,.8-1.49l-.46.26-.15.08-.29.17-1.29.72-.38.21Z"/><path class="cls-8" d="M39,445.78l-.27.18.36-.21h0L44,443l.2-.19Z"/><path class="cls-8" d="M59.9,434l-.06,0-.08.05a.06.06,0,0,0,0,0c0-.19-.09-.37-.14-.56Z"/><path class="cls-9" d="M120.75,399.19a1.07,1.07,0,0,1,0-.31,2,2,0,0,1,.35.1Z"/><line class="cls-42" x1="165.86" y1="373.53" x2="149.99" y2="382.56"/><path class="cls-9" d="M242.12,330.17l-1.54.88-4.9,2.8h0l-.91.51-58.09,33-1,.58a2,2,0,0,1,.16-.61l58.94-33.59,6.27-3.69a5.86,5.86,0,0,1,.93.09Z"/><path class="cls-9" d="M308.12,292.63l-1,.59-31.56,17.94,31.64-18.69h0Z"/><path class="cls-42" d="M348.88,269.32a.77.77,0,0,0,0,.15l.2-.11,3.17-1.8"/><path class="cls-9" d="M363.78,260.35l.71.24-.95.54a2.57,2.57,0,0,1,.13-.76Z"/><path class="cls-9" d="M368.27,258.44l-.18.1,0-.18Z"/><path class="cls-42" d="M377.9,152c0,43.08-23.92,90-67,90-64-18-46-70-36-97,10-13,9.59-51.58,52-44C354.9,106,376.9,113,377.9,152Z"/></g></g></svg>