<svg xmlns="http://www.w3.org/2000/svg" viewBox="0 0 1091.85 715.86"><defs><style>.cls-1{fill:#dcebf5;}.cls-2{fill:#09a2cc;}.cls-3{fill:#d7e7f3;}.cls-4{fill:#2b2161;}.cls-5{fill:#292f61;}.cls-6{fill:#bcd0e8;}.cls-7{fill:#bed2e9;}.cls-8{fill:#52c6a2;}.cls-9{fill:#ac4589;}.cls-10{fill:#3761ac;}.cls-11{fill:#fefefe;}.cls-12{fill:#262626;}.cls-13{fill:#444198;}.cls-14{fill:#c5daed;}.cls-15{fill:#4479c6;}.cls-16{fill:#78c6c6;}.cls-17{fill:#c65c9d;}.cls-18{fill:#1c1d1c;}.cls-19{fill:#2a375e;}.cls-20{fill:#feac96;}.cls-21{fill:#c2c1c1;}.cls-22{fill:#febe02;}.cls-23{fill:#bdd1e8;}.cls-24{fill:#fdad98;}.cls-25{fill:#bfd2e9;}.cls-26{fill:#bdd1e9;}.cls-27{fill:#a23675;}.cls-28{fill:#92d7c8;}.cls-29{fill:#2e2e45;}.cls-30{fill:#cde0f0;}.cls-31{fill:#5d89fe;}.cls-32{fill:#0d110c;}.cls-33{fill:#eff9fc;}.cls-34{fill:#c1c1c1;}.cls-35{fill:#e0b4b8;}.cls-36{fill:#25a8df;}.cls-37{fill:#1ba5d8;}.cls-38{fill:#bdd0e8;}.cls-39{fill:#5e8bfe;}.cls-40{fill:#4776eb;}.cls-41{fill:#2d211c;}.cls-42{fill:#c3d8ed;}.cls-43{fill:#31261f;}.cls-44{fill:#392f28;}.cls-45{fill:#49433d;}.cls-46{fill:#adb6bf;}.cls-47{fill:#76d2b5;}.cls-48{fill:#dbe8f3;}.cls-49{fill:#fdab96;}.cls-50{fill:#9e3879;}.cls-51{fill:#d3c4ce;}.cls-52{fill:#cb98b8;}.cls-53{fill:#febe00;}.cls-54{fill:#e5e5e5;}.cls-55{fill:#dceaf4;}.cls-56{fill:#2e221d;}.cls-57{fill:#99d4d4;}.cls-58{fill:#dff0ec;}.cls-59{fill:#2a5593;}.cls-60{fill:#fdac97;}.cls-61{fill:#9c80c4;}.cls-62{fill:#689cdf;}.cls-63{fill:#6da0e0;}.cls-64{fill:#6fa1e1;}.cls-65{fill:#6b9ee0;}.cls-66{fill:#679cdf;}.cls-67{fill:#73a3e1;}.cls-68{fill:#71a2e1;}.cls-69{fill:#7e7e7e;}.cls-70{fill:#7d7d7d;}.cls-71{fill:#bec0c2;}.cls-72{fill:#d1d3d4;}.cls-73{fill:#e0e1e2;}.cls-74{fill:#f7f8f8;}.cls-75{fill:#ededee;}</style></defs><g id="Layer_2" data-name="Layer 2"><g id="Layer_1-2" data-name="Layer 1"><path class="cls-1" d="M579.46,40.72c.91,1.74,1.25,3.44,4.11,1.53A260.64,260.64,0,0,1,642.91,13c14-4.9,28.43-7.8,43-10.35C696.71.79,707.69.29,718.54,0c12-.28,24.11.93,36.14,2.45A219.8,219.8,0,0,1,799.14,13a245.38,245.38,0,0,1,77.38,43.42c27.71,23,48.85,51,64.14,83.42a230.22,230.22,0,0,1,20.63,72.43A267.37,267.37,0,0,1,963.16,248c-.29,14.1-2.18,28-4.21,42-2.38,16.33-2.25,32.7-1,49.15a250.16,250.16,0,0,0,7.53,43c7.06,27.42,19.81,52,37,74.45,14.52,18.95,30.15,37.07,43.27,57.08a251.57,251.57,0,0,1,36.16,86.93c4.59,21.93,5,44.21,4,66.46-.45,10-2.37,20-4.26,29.95-.81,4.24-.3,5.93,4.21,5.81,1.54,0,3.1.85,5.93,1.7-5.74,2.65-10.81,2.48-15.7,3.08a1.62,1.62,0,0,1,0-1.66c1-3.4-1.75-2.42-3.2-2.6-9.58-1.22-19.26-1.5-28.87-1.79-12.47-.36-24.93-1.11-37.41-1.41-30.77-.71-61.53-1.8-92.32-2.1-8.29-.09-16.61-.67-24.93-.79-2,0-4,0-5.79-1.11-1.8-3.17,1.13-4.16,2.79-5.25,10.5-6.91,19.67-15.33,28.34-24.35.81-.84,1.61-1.68,2.43-2.51,2.21-2.24,2.37-3.91-1.14-4.83a30.18,30.18,0,0,1-4.72-1.61c-1.31-.58-3.43-.89-3-2.71.35-1.58,2.4-1.46,3.87-1.58a14.07,14.07,0,0,1,3.49,0c8.17,1.35,12.85-2.58,16.62-9.52,7-12.92,13.16-26.15,16.94-40.4,1.24-4.66,1-5-3.95-5.38-2.91-.25-7.35.25-7.74-2.8-.36-2.76,4.19-3.23,6.75-3.75,6.46-1.31,9-5.13,9.44-11.46s1.18-12.9,1.05-19.4c-.06-3.25-1.13-4.45-4.53-3.88A201.19,201.19,0,0,0,899.79,572a6.79,6.79,0,0,0-4.32,5.65,49.67,49.67,0,0,1-1,5.39c-.26,1.08-.34,2.57-1.86,2.55-1.12,0-1.39-1.26-1.79-2.15-2.46-5.49-2.44-5.45-7.69-2a119.38,119.38,0,0,0-37.54,38.06,14.09,14.09,0,0,0-1.75,12.3c1.15,3.79,2.35,7.64,2.15,11.72a2,2,0,0,1-1.44,1.52c-2.88-.6-3.5-3.32-4.94-5.27-.57-.77-.92-2-2.11-1.8s-1.2,1.44-1.59,2.33c-2,4.39-2.08,9.42-4.64,13.61-4.07-.7-3.44-5.34-6.07-7.25a.9.9,0,0,0-.91.25c-1.3,1.27-1.63,4.44-4,3.45-2-.84-1.43-3.57-.94-5.46,1.36-5.33-.78-9.23-4.32-13a100.87,100.87,0,0,0-24.83-19.08c-6.67-3.73-6.67-3.74-10.4,1.92a2.37,2.37,0,0,1-1.84-2.13c-.77-5.38-4.59-7.23-9.21-8.45-3.69-1-7.41-1.9-11.1-2.92-1.78-.5-3.5-1.1-4.65-2.71-2.88-7.48-3.33-15.42-4.18-23.25-.43-3.9-1.63-7.79-.77-11.78,2.4-3.31,1.64-6.82.77-10.41-.59-2.4-1.39-4.78-1.33-7.31,2.46-5,7.63-7.69,10.63-12.27a21.16,21.16,0,0,1,2.74-2.87c10.61-10.92,15.08-23.31,10.38-38.54-3.21-10.41-4.26-21.57-11.64-30.35-3.05-3.89-7.39-5.94-11.61-8.18-2.14-1.14-4.68-1.73-6.14-3.95a13,13,0,0,1,1.86-8,39.59,39.59,0,0,0,9.94-12.33c4.41-9,2.19-17.36-6.51-22.26a37.6,37.6,0,0,0-23.1-4.56,12.37,12.37,0,0,0-4.71,1.56c-5.31,3-5.89,8.72-1.35,13.09,2.3,1.6,2.42,3.78,1.72,6.21a45.61,45.61,0,0,0-1.82,8.79c-.52,6,1.59,8.83,7.4,10.36,4.51,1.18,4.71,2.74.94,7.51-6,3.09-11.58,6.59-15.23,12.49-5.91,7-11.76,14-18.41,20.3-5.13,4.87-7.7,5.15-13.52,1a102.44,102.44,0,0,1-18.9-18.37c-2.5-3-5-5.1-9.13-4.48-1.76-2.84-1.08-6.51-3.22-9.23-1.35-1.72-2.72-3.81-5.19-2.62-2.3,1.11-2.21,3.53-1.62,5.68.87,3.12,2.51,5.72,5.68,7.05,1.18.49,2.67.47,3.22,2-.61,4.53,1.54,7.8,4.51,11,7.11,7.61,13.13,16.19,20.6,23.5,7.73,7.55,14,8.27,23.14,2.67,1-.39,2.08-.76,2.75.59.59,6.92-1.61,13.5-2.49,20.24-1.49,11.56-2.8,23.14-4.43,34.68-.54,3.86,1.42,6.29,3.25,9a11,11,0,0,1,.67,4.41c-.6,15.45,1.37,30.84,1,46.28-.44,20.59,1.9,41.13.92,61.72-.38,3.65-.07,7.31-.2,11-.19,5.23-1.22,6.32-6.52,6.64-3,.18-6,.07-9,.07q-33.14,0-66.27,0c-2.8,0-5.68.34-8.25-1.22-1.72-1.82-.59-3.43.57-4.82,6.73-8,10.81-17,10.71-27.64a4.38,4.38,0,0,1,1.45-3.57c3.19-1.49,6.47-1.13,9.76-.51,2.07,2.07,3.79,2.62,5.25-.76a7,7,0,0,1,3.92-4.23c1.77-.58,3.64-.35,5.43-.72,3.44-.71,4.77-3.18,2.45-5.68-3.48-3.76-3.48-8-3.36-12.54.24-9.45-.53-18.91.42-28.34,4.84-4.55,6.95-9.85,6.81-16.79s-2.33-11.53-8.78-14c-5.41-6.57-11.42-12.28-20.24-13.91-11.19-2.34-22.49-4.08-33.72-6.14-2.86-.53-6-.59-7.94-3.47-1.59-5.39-.69-10.91-.79-16.37-.08-4.08-.5-7.91-3-11.32-2.22-3-2-6.59-2-10.09,0-34.76.61-69.54-.2-104.28-.64-27.93-.65-55.85-.79-83.77a31.06,31.06,0,0,1,.48-7.94c8.76-8.2,16.83-17.4,29.08-20.76,1.6-.44,3.18-1,4.87-.47,2.11,1,2.37,3.07,2.77,5,5.21,25.23,19.51,44.77,38.4,61.48a187.85,187.85,0,0,0,31.81,23.15c3.37,1.9,6.08,2.18,9.64.08,24.76-14.59,46-32.79,60.66-57.92a6,6,0,0,1,3.11-3.1c4.5-.32,6.88-3.21,9.09-6.82,9-14.73,22.53-23,39.59-23.25,17.7-.22,31.64,8,40.88,23.49,1.19,2,2.1,4.16,3.21,6.22,1.27,2.36,3,4.23,5.91,3.47s3.64-3.27,3.65-5.87a124.57,124.57,0,0,0-1.13-13.92,283.49,283.49,0,0,0-30.06-100.44A293.29,293.29,0,0,0,697.06,80.3a278.85,278.85,0,0,0-94.54-27.38c-6.13-.65-12.31-.63-18.38-1.77-1.62-.31-3.37-.18-4.54-1.67C578.65,46.57,576.94,43.68,579.46,40.72Z"/><path class="cls-1" d="M15.31,701.62a272.55,272.55,0,0,1-9.13-43.17c-2.11-15.08-1.91-30.16-1.83-45.26.13-22,3.85-43.53,9.59-64.7a266.36,266.36,0,0,1,21.36-54.7,291,291,0,0,1,37.37-55.1c26.88-31,59.15-54.74,96.36-71.79,9.79-4.49,19.66-9,30.28-11.33,3.65-.8,4-3,4-6.16q-.13-52,0-104c0-1.93-.65-4,.88-5.75,2.6,2.59,1.79,5.93,1.8,9q.08,88.2,0,176.38c0,2.5-.1,5,.14,7.49.51,5.27,3,7.79,8.22,8.28,1.82.17,3.66.12,5.49.12H338.28a57,57,0,0,0,6-.15c5.1-.52,8.19-3.4,9-8.46a42.82,42.82,0,0,0,.27-7q0-44.47,0-88.94c0-2.82-.23-5.67.57-8.44a3.42,3.42,0,0,1,1.79-2.21c6.46-2.66,12.53-6.29,19.5-7.67a4,4,0,0,1,1.7,1c5.44,5.42,7.45,5.15,11.64-1.53,8.94-14.25,21.59-22.73,38.57-23.16,17.83-.45,31.83,7.18,41.62,22.24,1,1.54,1.83,3.18,2.8,4.73,3.07,4.9,7.13,5,9.94,0A56.86,56.86,0,0,1,491,308.4c18.41-18.3,46.1-18.64,65.41-1.27,6.67,6,10,12.18,9.47,21.51-.86,14.11-.2,28.31-.25,42.48a27.4,27.4,0,0,0,1,7.9,48.3,48.3,0,0,1,.36,8q0,62.63,0,125.24c0,4.91-.25,9.59-3.46,13.7-1.72,2.2-1.44,5-1.57,7.69-.23,4.45.68,9-.86,13.35-1,1.78-2.78,1.65-4.38,1.37-10.06-1.77-20.22-3-30.1-5.77-2.64-1.61-3.21-4.49-4.29-7.05-1.08-11.45-.57-22.92-.31-34.38.09-4,2-4.62,5.12-1.94,4.15,3.58,6.94,8.54,11.64,11.59.83.54,1.52,1.29,2.35,1.85,1.92,1.3,4,3.11,6.31,1.55,2-1.3,1-3.63.79-5.57-.07-.66-.21-1.31-.28-2a8.71,8.71,0,0,0-1.59-5.41c-5-9.19-11.75-17.23-17.68-25.81a37.48,37.48,0,0,1-4.91-8.59c-.83-2.3-1.47-5.17-4.57-5.19-2.82,0-2.79,2.82-3.57,4.73a2.74,2.74,0,0,1-1.47,1.27c-3.54.75-7.06,1-10.53-.29-1.75-1.17-1.61-3.12-2-4.85-.62-2.89.19-4.27,3.52-4.13,5.63.24,7.21-1.53,8.63-7.15,1.07-4.21-.6-8.55,1.07-12.64,2.73-1.65,6.37-2.41,5.83-6.94-.45-3.81-2.92-6.61-7.82-8-6.17-1.71-12.4-2.38-18.67-.45-7.59,2.32-12.15,8.29-11.35,16.09,1.12,10.89-2,20.31-8.45,28.87-3.3,4.39-5.25,9.21-4.62,14.85a5.57,5.57,0,0,1-.88,4.29,1.38,1.38,0,0,1-1.49.48c-2.54-1.55-2.73-4.13-2.58-6.62.23-3.7-1.62-5.42-4.9-6.42a55.16,55.16,0,0,0-15.28-2.31c-9.83-.11-19.62-1.17-29.43-1.18q-91.48-.12-182.95,0a60.8,60.8,0,0,0-10.95.68c-4.79.86-9.48.41-14.34-.11-12.42-1.32-25-.64-37.44-.36-3.77.08-4.65,1.9-2.91,5.37a55,55,0,0,0,9.76,13.23c2.65,2.76,3.4,5.61,1.17,9-13,19.55-23.29,40.81-36.71,60.12a216.91,216.91,0,0,0-14.65,24.25c-3.48,5.91-4.87,12.67-7.59,18.89a11,11,0,0,1-3.74,2.42,6.81,6.81,0,0,0-4,6.37c-.07,6.49-.08,13,0,19.46a6.94,6.94,0,0,0,3.8,6.52,5.51,5.51,0,0,1,3.2,4.19,2.81,2.81,0,0,1-.26,1.48,6.1,6.1,0,0,1-2.53,1.47c-2.29.92-4.32,2.24-3.71,5.06s3.24,2.86,5.57,3,5-.27,7.34.72a7.25,7.25,0,0,1,2.61,2.88c4.29,6.83,5.86,7.08,12.11,1.91a13.91,13.91,0,0,1,8.9.15c2.44,2,2.31,5,2.64,7.75a41.68,41.68,0,0,0,12.16,24.94c1.67,1.69,4.68,3,3.33,6.4-2.05,1.47-4.44,1.28-6.75,1.29-8.83,0-17.66.08-26.49,0-3.64-.32-7.27-.52-10.84.6-8.69.86-17.4.29-26.1.4a24,24,0,0,0-9.84.57c-6.69.82-13.41.32-20.11.41a17.43,17.43,0,0,0-7.86.56c-5,.74-10.06.33-15.09.41a12.87,12.87,0,0,0-6,.56c-7-.12-14,2.09-21,.48Z"/><path class="cls-2" d="M565,377.36c-1-12.46-.16-24.94-.41-37.4,0-2,.05-4,0-6-.19-6,2.47-13.68-1-17.54-8.07-9-17.31-17.43-30.28-19.76-20.75-3.73-40.42,5.77-49.93,24.61-1.46,2.9-2.66,5.68-6.7,5.65s-5.22-2.72-6.73-5.63c-8.3-16-21.6-24.79-39.5-25.43-17.56-.62-31.12,7.24-40.35,22.21-5.69,9.25-9,9.47-14.75.6a6.64,6.64,0,0,1-3.25-3,45.54,45.54,0,0,0-12.93-12.23c-1.92-1.24-4.09-2.31-4.91-4.75a25.24,25.24,0,0,1,.19-11.24c2.34-2.62,4.69-.74,6.72.29A76.1,76.1,0,0,1,377.3,299c9.13-105.54,60.12-183.08,151.78-232.42-5.24,1-12,2-18.62,3.56-6.81,1.6-13.56,3.39-20.26,5.43a271.62,271.62,0,0,0-91.34,48.28,276.82,276.82,0,0,0-67.27,77.77c-2.85,4.92-5.19,10.07-7.83,15.08-1.57,3-3.09,5.91-6.81,2-.92-1-2.53-.6-3.85-.71-1.65-.14-3.39-.12-4.38-1.85-.8-2.53.65-4.53,1.69-6.55,13.49-26.16,29.84-50.3,50.77-71.15,4.47-4.46,9-8.9,13.38-13.43a20.32,20.32,0,0,1,7.66-5.33c22.9-19,47.69-34.93,75.13-46.62a290.52,290.52,0,0,1,99.5-23c1.83-.09,3.65-.3,5.47-.45a22.29,22.29,0,0,1,17.83,0c40,1.9,78.58,10.15,114.53,28.05C782.28,121.34,836.44,191,856,287.19c2.19,10.77,3.07,21.74,4,32.68a26.58,26.58,0,0,1,0,4c-.22,3.15-1.61,5.43-5,5.93-3.19.48-5.59-.76-6.78-3.8a46.73,46.73,0,0,0-11.81-17.71c-22.06-20.34-55.83-14.79-70.7,11.74-2.19,3.9-4.52,6.52-9.31,5.58-1.35-.81-1-2-.54-3.05,3-6.8,4.69-14.06,7.4-21,16.48-19.35,51.33-28.34,80.39-5.16q-14.75-90.3-79.05-153.5C721.7,100.79,670,75.16,611.8,66.49a296.26,296.26,0,0,1,68.68,49,278.47,278.47,0,0,1,52.1,69.09c2.77,5.14,5,10.55,7.38,15.84.82,1.79,1.81,3.8-.78,5.17-3.31.84-6.15-.47-9-2-1.84-1.32-2.71-3.33-3.63-5.28A253.08,253.08,0,0,0,670,120.94a276.37,276.37,0,0,0-60-42.83c-4.23-2.24-8.55-4.3-13.32-6.73,14.26,15.85,25.33,33.23,34.54,51.72a315.68,315.68,0,0,1,22.32,59.29c1.12,4.19,2.43,8.32,3.35,12.55.56,2.57.66,5-2,6.66-2.33,1.06-4.67,1.82-7.14.47-2.45-2.18-2.63-5.31-3.34-8.18-8-32.27-20.46-62.65-38.27-90.78-7.25-11.45-15.87-21.81-25-31.74-1-1.08-1.91-2.34-3.48-2.74-1.12,3.43-1.44,223.36-.22,230.09a67.52,67.52,0,0,1,19-12.2c3.81-1.57,7.58-3.62,12-2.31,3,3.79,3.78,7.9,1.79,12.42a44.92,44.92,0,0,0-26.58,15.89,7.78,7.78,0,0,1-6.31,3.29,6.31,6.31,0,0,1-4.63,1.48c-4.81-.36-5.88,2.27-5.78,6.43.16,6.47,0,12.94,0,19.4,0,9.12.06,18.24,0,27.36C566.85,372.89,567.31,375.54,565,377.36Z"/><path class="cls-1" d="M382.22,119.71c-18.17,16.39-35,34-48.9,54.24-9.13,13.27-17.63,26.91-24.08,41.74-4.95,4.6-11.78,3.35-15.09-2.76-5.49-10.11-17.12-12.45-25-5a15.76,15.76,0,0,0-4.08,6.18c-1,3-3.14,4-6.1,4.09-4,.06-8,.16-11.94,0-3.82-.15-5.39,1.34-5.33,5.22,0,3,.91,6.38-1.71,9-2.72,1.07-5.36,1.51-7.72-.8-3.65-8.5-8.33-16.52-10.52-25.69-7.06-29.58,4.36-56.72,27.19-75.61a127.44,127.44,0,0,1,56.43-27.07c20-4.11,39.55-3.26,58.47,4.92a61.35,61.35,0,0,1,14.63,9.37C379.62,118.42,380.52,119.71,382.22,119.71Z"/><path class="cls-3" d="M1076.16,706.63c0,.33,0,.66,0,1-25.69,1.34-51.37,2.72-77.11,3.31-9.61.22-19.27.11-28.87.76-18.11,1.21-36.29.1-54.35,1.17-19.48,1.16-39-.18-58.37.89-30.12,1.65-60.25.29-90.36.92-105.75,2.21-211.51.39-317.27,1-31.66.16-63.32.49-95-.12-36.78-.71-73.58-.15-110.33-1.15-20.64-.56-41.29.38-61.86-.92-15.81-1-31.64.21-47.36-1-12.49-1-25-.13-37.38-.89-17.74-1.08-35.5-1.27-53.25-2-13.39-.57-26.75-1.91-40.12-2.95A7,7,0,0,1,0,704.86c4.69-3.57,10.52-1,15.31-3.24l0,0c2.77,3.48,6.69,3.24,10.53,3.24h97.48q178.93,0,357.88,0a48,48,0,0,1,7.48.21c7.12-.22,14.25-.12,21.38-.08,1.23.06,2.43-.36,3.67-.25,7.33.52,14.69,0,22,.34a24.42,24.42,0,0,1,5-.22c42.51.26,85-.13,127.53,0a41.12,41.12,0,0,1,8.44.47c3.54,1.36,7.25.86,10.87.79,8.8-.19,17.63.71,26.41-.54,5.37-1,10.78-.66,16.18-.29,5.23,0,10.41,1.25,15.68.67,4.2-1.35,8.37.68,12.57.1a52.73,52.73,0,0,0,10.64-.89,46.3,46.3,0,0,1,8-.32c96.35.27,192.7-.18,289,0C1069.5,704.93,1073.16,704,1076.16,706.63Z"/><path class="cls-4" d="M232.28,231.55l7.73.15c3.05,5.13,1.58,8.16-4.21,8.38-4.93.2-9.86.06-14.79.06-2,0-4-.12-5.34,1.76-.9,2.25-.64,4.61-.64,6.93q0,83.66,0,167.33c0,8.77,0,8.78,8.85,8.79,29.64,0,59.28,0,88.9,0,3.41.42,5.59-1.79,7.68-3.88,7.18-7.14,14.83-13.77,22.29-20.61a4.88,4.88,0,0,0,1.84-4.33q-.09-73.29-.05-146.54c0-2.63.39-5.33-.8-7.84-1.5-1.74-3.53-1.61-5.54-1.62-5,0-10,.07-15-.06-3.09-.07-5.12-1.34-5.2-4.72s1.72-5,4.84-5.12c7.65-.34,15.33-.7,22.94.19,6.23.74,10.46,4.93,10.82,11.27.78,13.79.39,27.61.18,41.42a4.54,4.54,0,0,1-1.47,3.59q0,6.62,0,13.22c3,5.49,1.26,11.43,1.56,17.16.16,3.23.77,6.71-1.59,9.6q-.09,40.95-.2,81.89c0,7.66.06,15.32,0,23C355,438.63,351,442.81,344,442.82q-64.43.06-128.86,0c-7.2,0-11-4.17-11-11.83q0-94.9.06-189.8c0-.49,0-1,0-1.49,2.24-5.87,6.52-8.3,12.74-8C222,231.87,227.15,231.61,232.28,231.55Z"/><path class="cls-5" d="M580.15,49.67H562.32c1-12.56,1.68-25.17,4.92-37.43.65-2.46,1-6.12,4-6.14s3.34,3.7,4,6.14c2.58,9.31,3.17,18.94,4.25,28.48Z"/><path class="cls-6" d="M116,301.69c-4.49,0-9-.06-13.46,0-2.43,0-4-1-4-3.37s2-2.64,4-2.64h26.91c2.17,0,4.37.57,4.38,3s-2.16,3-4.34,3Z"/><path class="cls-7" d="M146.58,295.71c2.35,0,5.21-.41,5.28,2.92s-2.76,3.11-5.13,3.07h-2.5c-2,0-3.75-.48-3.79-2.92s1.58-3.06,3.65-3.07Z"/><path class="cls-8" d="M845.27,643.62c-.68-2.92-.94-6-2.12-8.71-3.49-8-.38-14.27,4-20.71a127.06,127.06,0,0,1,38.27-36c3.53-2.2,5.54-2.58,5.91,2.4a11.47,11.47,0,0,0,1.76,4.56c-2.11-11.89,6.1-14.79,14.4-18a224.17,224.17,0,0,1,44.68-12.16c3-.5,4.12.23,4.15,3.49a189.32,189.32,0,0,1-2.25,28.34c-.33,2.38-1.77,3.31-3.85,4-4.08,1.31-8.11,2.81-12.73,4.43,4.21,1.67,8,1.4,11.72,1.53,2.12.08,2.93.62,2.35,3a156.7,156.7,0,0,1-23.07,52.23c-1.58,2.3-3.89,2.35-6.18,2.4-4.4.11-8.79,0-13.32,1l13.18,4.5c-11.05,14.25-24.37,25.24-39,34.8-4.52,5.83-11.1,8.73-17.8,9.94a68.84,68.84,0,0,1-22.28-.08c-2.82-1.92-1-4.27-.32-6.25,4.41-13.51,10.6-26.25,17.56-38.58a278.85,278.85,0,0,1,47.87-62.41c10.09-9.9,21.3-18.57,32.07-27.7-27,17.23-48.17,40.28-66.59,66.11a257.64,257.64,0,0,0-33.21,63.54c-.64,1.79-.75,4-3,4.9a2.12,2.12,0,0,1-2.09-1.08c-1.28-3-.89-6.19-.81-9.3.32-11.94-.16-23.77-3.93-35.25-.55-1.7-1-3.54.33-5.19.89-5.72,2.82-11.15,4.7-16.6.76-2.18,1.78-2.71,3.2-.45,1.75,2.8,3.51,5.58,5.26,8.37C845.48,645.28,845.77,644.86,845.27,643.62Z"/><path class="cls-9" d="M748.3,545.62c1,4.1,1.76,8.25,3,12.27.82,2.64-.28,3.84-2.34,4.84-1.34,1.94-3.47,2.43-5.56,3-9.23,2.48-18.65,2.82-28.14,2.43-6.36-1-13.14.14-19-3.51-5.45-.86-4.21-4.87-3.8-8.33,2.2-18.45,4.54-36.89,7.65-55.22-1.47-6.23,1.6-11.89,2.34-17.84.26-2.11,1.08-4.15,1-6.32.37-5.92,3.83-10.46,6.8-15.22,3.49-5.85,8.17-10.25,14.94-12a3.73,3.73,0,0,1,1.25,2.58c1.11,4.87,2.13,5.18,6.65,2.67,3.11-1.73,5.36-5,9.24-5.35,6.63,2.72,13.28,5.43,18.11,11.09a3.32,3.32,0,0,1-2.08,1.17c-8.43,2-11.59,7-9.75,15.45a14,14,0,0,1,.3,1.94,35.18,35.18,0,0,0,6,17.25c-1.64,9.44-4.2,18.66-6.31,28a74.55,74.55,0,0,0-4.39,8.23,31.47,31.47,0,0,0-2,4.32C741.36,542.47,742.23,543.68,748.3,545.62Z"/><path class="cls-10" d="M640.18,653.69c-1,1.91-1.89,3.85-2.94,5.71-.63,1.1-1.08,2.91-2.57,2.66s-1-2.2-1.48-3.39c-2.07-2.41-2.24-5.51-3-8.37A53.18,53.18,0,0,0,585.91,611c-14.91-2-28.38,1.17-40.37,10.41-1.74,1.35-3.38,3.44-6.15,2.38-1.17-1.65-.88-3.53-.59-5.27,1.67-9.93.74-19.74-.92-29.56-.39-2.32-1.44-4.9.85-7,2.33-1.22,4.87-1,7.35-1q46.2,0,92.39,0c2.64,0,5.37-.29,7.76,1.28,2.94,7.23,2,14.61.77,22-.67,11.59-.18,23.19-.23,34.8,0,2.92-.66,4.73-3.89,5.15-2.12.27-4.86-.47-5.73,2.71S638.39,651.76,640.18,653.69Z"/><path class="cls-11" d="M610.18,296.63q-1-6-2-11.93c-2.26-3-2-6.66-2.28-10-1.29-17.87-1.59-35.78-1.23-53.69.07-3.51,1.51-6,4.8-7.42a198.38,198.38,0,0,1,33.81-11.74,10.76,10.76,0,0,1,4.92,0l7-1.25c5.79-4.12,12.71-3.82,19.18-4.17,16.1-.87,32.21-.58,48.08,3,2.78.63,5.48,1.29,7.7,3.2l8.73,2.33c6.23-.45,11.65,2.35,17.16,4.5,16.29,6.35,14.59,4.76,14.71,21.32.14,20.94.21,41.87-3.37,62.62a20.4,20.4,0,0,1-3,8.33q-3.95,12-7.9,23.91c-5.28,7.38-9.82,15.23-15.72,22.24-11.55,13.75-25.3,24.78-40.15,34.6-3.32,2.2-6.81,4.13-10.24,6.14a4.1,4.1,0,0,1-4.6.21c-26.16-14.68-48.57-33.44-64.08-59.49-5.28-8.88-8.24-18.79-10.46-28.88C611,299.14,610.54,297.89,610.18,296.63Z"/><path class="cls-12" d="M622.31,658.9c1,13.3-4.39,24.16-13.1,33.71-4.71,7.45-12.28,10.53-20.26,12.12-15.53,3.09-29.63-.2-41.47-11.27-9.24-9.39-14.34-20.46-13.65-33.86a44.91,44.91,0,0,1,44.67-43.7c21.22,0,40.68,15.06,44.51,36.78C623.39,654.84,623.83,657,622.31,658.9Z"/><path class="cls-5" d="M565,377.36c0-18.58.22-37.16,0-55.73-.07-4.68.95-6.83,5.91-6.1a57.39,57.39,0,0,0,6.44.28q.39,100.94.8,201.88c0,1.14-.11,2.82.54,3.33,6,4.73,4.62,11.3,4.63,17.53,0,4.34,0,8.67-.06,13a3.28,3.28,0,0,1-3.17,1,142.12,142.12,0,0,1-16.65-2.92,4.44,4.44,0,0,1-3.19-2.16c0-4.66.18-9.32,0-14s.34-8.65,4.1-11.73c1.72-1.4,1.09-3.38,1.08-5.13q-.11-41.69-.29-83.36Q565,405.31,565,377.36Z"/><path class="cls-13" d="M715.27,566.76a103.48,103.48,0,0,0,33.7-4c1,12.12,2.29,24.22,5.14,36.08,2.72,3.26,2.1,7.47,3.2,11.19,3,19.8,6.42,39.54,8.93,59.41,1.38,8.21,3,16.38,3.65,24.7a4.43,4.43,0,0,1-2.56,3.93c-3.5.53-7,1.24-10.57.64-1.39-.41-3-.06-4.14-1.39-1-1.82-.64-4-1.48-5.88-4.43-17.59-9.26-35-15.82-52-4.5-11.62-7.48-23.78-11.1-35.72-2.41-10.5-6-20.67-8.52-31.15C715.25,570.66,714.27,568.78,715.27,566.76Z"/><path class="cls-4" d="M715.27,566.76c3.56,12.28,7.71,24.4,10,37,1.18,3.92.75,7.92.28,11.84-2.38,19.81-3.61,39.74-5.74,59.57-.61,5.63-1.38,11.23-2.42,16.8-.84,2.49-1.11,5.38-4.31,6.24-4.8-.53-9.76,1.06-14.46-1-.27-4.84.33-9.67.07-14.51-.1-1.77.37-3.59-.4-5.31q-1-51.89-2-103.77c0-3,0-6,0-9Z"/><path class="cls-6" d="M828.14,375.85a3.58,3.58,0,0,1,3,1.32c1.42,1.4,2.83,2.82,4.25,4.23,7,7.05,7,7,15.9,2.43,1.74-.89,1.91-2,1.91-3.58,0-3.66.1-7.33,0-11-.1-3.08,1-4.68,4.29-4.61,5.49.12,11,.09,16.49,0,2.94-.05,4.35,1.17,4.22,4.15-.07,1.67,0,3.34,0,5,0,9.77,0,9.7,9.35,13.11a3.19,3.19,0,0,0,3.92-1c2.68-2.74,5.5-5.35,8.09-8.16,2.14-2.33,3.94-2.55,6.22-.12,3.65,3.88,7.43,7.65,11.3,11.31,2.28,2.15,2.7,4,.14,6.19-1.27,1.08-2.38,2.34-3.55,3.52-7,7-6.87,6.92-2.7,15.84.94,2,2.2,2.17,3.92,2.16,3.67,0,7.34.06,11,0,2.84-.07,4.39.95,4.35,4-.08,5.66-.06,11.33,0,17,0,2.71-1.16,4-3.89,4a53,53,0,0,1-5.5,0c-6-.8-10.31.3-12,7.32-.76,3.13-1.35,5,1.33,7.26s4.69,4.73,7.13,7c2.15,2,2.35,3.72.12,5.85-4,3.8-7.89,7.67-11.65,11.67-2.32,2.46-4.16,2.14-6.21-.21-1.31-1.5-3-2.69-4.18-4.29-3.39-4.66-6.86-5.76-12.5-2.89-3.64,1.86-4.78,3.43-4.73,7.27.19,13.08.06,13.14-13.18,13.06-13.43-.08-11.52,1.76-11.74-11.61,0-2.28,1.13-5.39-.72-6.68-2.93-2-6.6-3.06-10-4.35-1.05-.39-1.77.71-2.49,1.38s-1.18,1.17-1.77,1.76c-9.53,9.48-9.58,9.53-19.21-.23-8.9-9-8.91-6.42-.18-15.32,5.17-5.27,5.52-9.72,1.26-15.72-1-1.39-2.25-1.2-3.53-1.21-3.67,0-7.33-.08-11,0-2.83.07-4.39-.94-4.35-4,.08-5.66.06-11.33,0-17,0-2.7,1.15-4,3.89-4a50.22,50.22,0,0,1,5.49,0c6,.78,10.33-.28,12-7.33.75-3.11,1.36-5-1.32-7.25s-4.95-4.94-7.47-7.37c-1.78-1.72-2-3.29-.12-5.1,4.16-4.09,8.24-8.25,12.39-12.35A14.86,14.86,0,0,1,828.14,375.85Z"/><path class="cls-14" d="M767,697.44l1.77-2.64c1.72-2.06,4.14-1.71,6.39-1.79,5.41-.19,10.83.13,16.24,0,2.32-.15,4.19,1.06,5.9,2.34a34,34,0,0,0,24.85,6.87c1.65-.18,3.32.06,5,0,1.4-.15,2.8.08,4.2,0a6.34,6.34,0,0,1,4.85,1.39l2,0c1.35-1,2.71-1.26,4.06,0,6.95,0,13.89.23,20.83.1,5.9-.12,10.36-4,15.42-6.35,1.64-.75,3.16-1.76,4.74-2.65a3.06,3.06,0,0,0,2.71.94c11.29-.23,22.57.93,33.82.84,23.94-.18,47.84,1,71.76,1.41,17.72.27,35.45,1.15,53.18,1.82,10.58.4,21.14,1.3,31.71,1.94,1.8.11,3.47.43,3.62,2.57.2,3-2.17,2.25-3.86,2.42l-308,0C766.12,703.75,766.27,700.63,767,697.44Z"/><path class="cls-15" d="M646.06,582.64H538.5c-4.33-4.66-3.77-11-5.63-16.51-.69-2.08-1.45-4.54,1-6.3a9.77,9.77,0,0,1,4.39-.84c26,0,52-.33,78,.19,3,.06,5.95.68,8.95.6,8.41,1.91,15.18,6.06,19.15,14C646.57,576.42,648.26,579.15,646.06,582.64Z"/><path class="cls-16" d="M836.21,703.6l-5,.06c-1.91-1.57-2.54-3.87-3.36-6-7.91-20.8-20.68-38.5-35.08-55.18-10.67-12.35-22-24-36.08-32.52l-.68-.13a47.7,47.7,0,0,1-1.87-11c5,1.31,9.89,2.77,14.9,3.88,6,1.33,10.62,3.78,10.11,11.62,1.55-1.75,1.07-3.06,1.17-4.23.21-2.32,1.41-2.92,3.37-2,14.21,6.54,26.82,15.19,36.37,27.82,2,2.59,1.1,5.41.73,8.15-.24,1.88-1,3.71-.07,6.13l4.16-7.43L831,653.34C836.82,669.68,836.54,686.64,836.21,703.6Z"/><path class="cls-14" d="M698.32,677.4q.51,10.05,1,20.1c-2.59,5.32-8,5.07-12.62,6.43-1.63.14-3.3-.12-4.88.47-1.53.36-2.72,1.4-4.07,2.1l-.65.11-142.1-.1c-2-2.65-4.89-4.35-7.59-6.22-2.3-1.58-4.74-3.09-5.14-6.26.12-1.46.44-2.74,2.31-2.72,5.37,1.29,10.84.64,16.27.75a35,35,0,0,1,7.37.55c13.77,11.45,29.07,15.09,46.25,9,5.54-2,10.1-5.51,14.71-9,1.3,1.51,3.07,1,4.67,1,26.39,0,52.77-.06,79.16.12,4.23,0,5.54-1.3,5.19-5.39C697.92,684.72,698.27,681.05,698.32,677.4Z"/><path class="cls-17" d="M748.3,545.62c-2.39,1.64-4.12.66-5.9-1.19-2.27-2.37-3.15-4.79-1.27-7.75a22.56,22.56,0,0,0,2.65-4.49c1.17-2.19,2.51-4.28,3.72-6.45,2.53-4.27,5.06-8.54,7.5-12.86,3.59-6.35,1.75-12.38-1.39-18.27-1.9-4.93-5.1-9.39-5.44-14.89-2.88-7.64-1.85-11.82,3.39-17,2.72-2.71,5.82-1.77,8.86-2,6.52,7,8.33,16.08,10.67,24.87a142.49,142.49,0,0,1,3.71,21.07c.38,3.5-.72,6.55-2.26,9.51-5.28,10.18-13.13,18.33-21.08,26.38C750.42,543.54,749.35,544.58,748.3,545.62Z"/><path class="cls-18" d="M622.31,658.9c-.81-21.25-18.31-43.31-47.55-41.49C554.12,618.7,536,637,535.14,659.88a2.94,2.94,0,0,1-3.47-1.64c-.61-4.57,1.26-8.73,2.2-13,1.15-5.31,2-10.68,3.29-16,.48-2,.5-4.38,3-5.26a52.21,52.21,0,0,1,38.32-15.26c26.38.32,48.43,18,53.87,44.18.39,1.89,1.55,3.72.82,5.78Z"/><path class="cls-17" d="M710.23,461.71q-3,7.5-6,15c-1,7.76-3.78,15.08-5.44,22.68a9.4,9.4,0,0,0-.44,2.4c-7.32,5.79-15.59,5.72-22.53-.93-9.75-9.34-17.67-20.35-26.63-30.41-2.24-2.51-.48-4.65.24-6.94.16-1,.21-2.14,1.62-2.3,2.64-3.11,4.85-3,7.52.31a125.65,125.65,0,0,0,20,20.09c7,5.41,7.79,5.45,14.05-1C698.62,474.46,704.36,468,710.23,461.71Z"/><path class="cls-10" d="M625.17,559.78c-1.72,1.53-3.82.84-5.74.84q-43.15.09-86.31.06c-.34,0-.81.07-.92-.15-3.2-5.86-6.06-11.84-5.8-18.77l33.79,5.7,23,4.09q19.09,3.53,38.18,7.08A34.37,34.37,0,0,1,625.17,559.78Z"/><path class="cls-19" d="M717.83,418.17c-5.87-3.26-6.22-10.44-.67-14.56a15.38,15.38,0,0,1,8.88-2.86,43.58,43.58,0,0,1,19.89,3.78c9.64,4.38,15.08,15.28,8.47,26.07-2.67,4.35-5.08,9-10.1,11.28-4.11-1.87-4.19-5.55-4.1-9.27,0-1.91,1.14-3.89-.32-5.66a1.57,1.57,0,0,0-1.39.59c-1.22,1.21-1.92,3.79-4,3s-2.3-3.46-2.43-5.61c-.42-7-.44-7.23-7-5.69C722.29,419.83,720.15,418.92,717.83,418.17Z"/><path class="cls-20" d="M717.83,418.17a38.58,38.58,0,0,0,9.8-1c4.94-1.13,6.48.26,5.92,5.25A13.24,13.24,0,0,0,734.7,430c1.6,0,1.32-1.36,1.82-2.1,1-1.41,1.17-4.07,3.54-3.37s3.06,3.13,2.13,5.33c-1.92,4.56-.57,8.38,2.11,12-.66,2.56-1.33,5.12-2,7.68-3.2,2.37-6.28,4.94-9.64,7-5.13,3.22-7.21,2-7.45-3.94,0-1,0-2-.05-3,.73-1.1,1.5-2.17,2.16-3.31,1-1.77.7-2.52-1.57-2.76-7.4-.77-10.16-4.27-9.3-11.89a58.55,58.55,0,0,1,2.11-9.67C719,420.46,719.42,419.21,717.83,418.17Z"/><path class="cls-6" d="M641.21,392.92c-.86,3.14-2.89,4.05-5.44,3.71-4.32-.57-6.2.95-5.58,5.46.3,2.24,0,4.61-3.16,4.47-2.78-.13-3-2.36-2.75-4.39.59-4.38-1-6.07-5.5-5.59-2.18.23-4.51-.43-4.5-3.4s2.34-3.61,4.52-3.38c4.48.49,6.06-1.26,5.47-5.61-.27-2,0-4.26,2.78-4.37,3.13-.12,3.45,2.26,3.14,4.49-.64,4.56,1.34,5.89,5.61,5.49A5.09,5.09,0,0,1,641.21,392.92Z"/><path class="cls-7" d="M814.24,561.62c-4.15,0-8.29,0-12.43,0-2.4,0-4.48-1-4.35-3.65.1-2.29,2-3.26,4.27-3.26,8.78,0,17.56-.07,26.33,0,2.24,0,4.58.88,4.46,3.61-.11,2.38-2.3,3.16-4.37,3.22-4.64.13-9.28,0-13.91,0Z"/><path class="cls-21" d="M640.18,653.69c-5.21,1-4.93-2.29-5-5.87s.68-5.84,4.88-5.11c4.91.86,6.63-.89,6.42-6.14-.42-10.63-.05-21.29,0-31.94.33-.28.59-.21.8.16,0,10.94,0,21.87,0,32.81,0,2.7-.19,5.18,2.95,6.67,2.45,1.17,2.48,3.82,1.91,6.15s-2.53,3.29-4.94,3.26S642.5,653.68,640.18,653.69Z"/><path class="cls-22" d="M647.23,604.79a1.75,1.75,0,0,0-.81-.16l-.36-22c.2-3.1-1.29-5.86-1.74-8.84,7.59,1.82,9.88,4.71,9.9,12.51,0,2.33-.1,4.66,0,7C654.53,598.76,652.17,602.54,647.23,604.79Z"/><path class="cls-23" d="M892.22,195.71c4.48,0,9,0,13.46,0,2.05,0,3.94.42,4.05,2.65.12,2.48-1.87,3.33-4.06,3.34-9.31,0-18.61,0-27.92,0-2.14,0-3.58-.88-3.45-3.23.12-2.12,1.6-2.73,3.46-2.73Z"/><path class="cls-24" d="M651.07,461.21l-1.62,2.31a10.79,10.79,0,0,1-10.19-11c0-2.38.4-4.86,3-5.66s4.38.75,5.89,2.68C650.86,453,651.52,457,651.07,461.21Z"/><path class="cls-25" d="M846.44,554.73c1.31.08,4.18.55,4,3.34-.19,3.74-3.63,3.52-6.44,3.56-2.4,0-4.67-.9-4.58-3.38C839.6,554.75,842.58,554.58,846.44,554.73Z"/><path class="cls-26" d="M921.8,195.72c2.91,0,6-.47,5.86,2.8-.16,3.65-3.54,3.19-6.15,3.16-2.25,0-5.23.54-5.16-2.94C916.45,194.46,920.12,196.21,921.8,195.72Z"/><path class="cls-27" d="M698.37,501.79c-1.46-1-.85-2.16-.58-3.48,1.49-7.4,4.34-14.39,6.45-21.6,2,2.27-.08,4.39-.43,6.48-1,6-2.44,11.94-3.71,17.9Z"/><path class="cls-28" d="M845.27,643.62c.89.89,1.51,2.3.54,3-.69.49-1.22-1.11-1.63-1.94Z"/><path class="cls-10" d="M139.17,559.5c12.3-20.36,24.52-40.77,37-61,1.79-2.9,2.2-4.53-.52-7a51.92,51.92,0,0,1-10.83-14.25c-2.73-5.26-1.38-7.37,4.54-7.39,11,0,22-.37,33,.06,29.35,1.13,58.69-.6,88-.17s58.62.15,87.94.08c21.47,0,42.94.17,64.39,1.06,6.8.28,13.63.85,20.13,3.17,2.54.9,4.78,1.72,3.55,5.59-.86,2.69-.79,6,1.86,8.3a3.49,3.49,0,0,1,.94,3.65c-1.76,6.87-2.15,14-4.37,20.78-3.05,1.64-4.16-1.1-5.51-2.68a75.3,75.3,0,0,0-17.76-15.21,34.29,34.29,0,0,0-20.94-5.37c-3.82.26-7.66-.08-11.5.17-10.15.1-20.29.29-30.43-.07-2.44.23-4.87,0-7.31,0a92.1,92.1,0,0,1-9.83-.05c-1.65.11-3.31.09-5,.11-11.14.14-16.45,4.84-17.48,16.07-.71,7.76-.14,15.58-.25,23.37a50.33,50.33,0,0,1-.42,8.93c-.95,5.52-1.19,11.11-1.61,16.68-.2,2.69-.24,5.33-2.76,7.06a5.26,5.26,0,0,1-3.6.94c-49.3.2-98.61,0-147.91.08a25.31,25.31,0,0,1-6.45-.46c-1.68-.52-2.68-1.63-1.65-3.28,3.54-5.69,7.3-11.24,12.19-15.9a1.74,1.74,0,0,1,1.86-.15c1.84,8.06,8.73,9.32,15.17,11.19,1.6.66,3.29.44,4.94.44h95.21c1.65,0,3.33.2,4.86-.67A49.31,49.31,0,0,1,314,551c6.23-3.07,9.67-7.94,9.69-15q0-13,0-25.95c-.05-11.47-6.56-18.35-18.14-18.68-10.64-.3-21.29-.16-31.93,0-10.19,0-20.38.29-30.55-.14a62.77,62.77,0,0,1-6.72,0c-3.06-.09-5.66,1.25-8.23,2.68-12.26,7-19.92,18.42-28,29.41-3.55,4.82-6.11,10.29-10,14.84-4.35,3-6.51,7.84-9.93,11.63-3.21,3.56-5.42,7.94-9,11.23a6.18,6.18,0,0,1-2.3,1c-8.4.86-16.8.4-25.2.28C141.86,562.15,139.49,562.34,139.17,559.5Z"/><path class="cls-10" d="M138.25,658.62c-.56,1.81-.46,4.18-3.42,3.9-2.5-.24-5.43.94-7-2.23-1.11-2.21-2.26-4.4-3.4-6.59,2.29-3.43,1.1-7.32,1.43-11,2.48-10,5.51-19.73,10.79-28.66,6.39-10.81,12.41-21.86,20.59-31.52a6.39,6.39,0,0,1,2.42-1.09,36.3,36.3,0,0,1,8.45-.48q71.81,0,143.59,0c2.81,0,5.66-.26,8.41.61a4.49,4.49,0,0,1,1.58,1.06c1.4,2.09,1.07,4.47,1.07,6.78q0,24.69,0,49.39a27.13,27.13,0,0,0,6.5,18.33c1.22,1.41,3.19,2.71,1.61,5.06-1.48,1-3.18.89-4.84.89q-36.46,0-72.93,0a11.48,11.48,0,0,1-3.95-.46,3.88,3.88,0,0,1-2.18-2.66c-1.9-11.14-5.61-21.46-12.76-30.51-15.88-20.11-47.53-25.44-69.15-11.68-13.73,8.73-22.07,20.91-25.18,36.79C139.59,656,139.47,657.53,138.25,658.62Z"/><path class="cls-29" d="M526.4,541.76l6.72,18.92q2.68,11,5.38,22A120.62,120.62,0,0,1,540.18,624q-3.95,17.4-7.9,34.79a4,4,0,0,1,.68,3.73c-2,9-4.46,17.88-7,26.73a3.78,3.78,0,0,1-1.75,2.31c-.38,1.14-.75,2.28-1.13,3.43-4.4,3.38-8.17,3-11-1.19-.47-3-.06-6.12-.37-9.18-.45-7.27.31-14.49,1.07-21.7-.49-11.78.76-23.5,1.57-35.22.37-5.35.43-10.59-1.22-15.74-1.91-6-3.16-12.18-5.14-18.15-.86-3.83-2.34-7.54-2.67-11.51.71,7.07.25,14.16.39,21.26q0,6.12,0,12.23c-1.2,15.56-1.52,31.17-3,46.71-.06,10.31-1.54,20.52-2.09,30.8a6,6,0,0,1-.86,2.65c-3.13,3.08-6.82,2.45-10.56,1.61a4.24,4.24,0,0,1-2.31-3.74c-1.37-10.41-3.16-20.77-4.16-31.24-3.05-18.32-4.89-36.8-7.1-55.23a274.35,274.35,0,0,1-1.86-39.18,22.15,22.15,0,0,1,.34-6.08c.9-2.64.47-5.45,1.07-8.13.74-3.15,1.24-6.36,2.14-9.48,1.7-3.49,1.19-8.29,5.87-10.05,12-.91,23.95-.31,35.92-.35a6.94,6.94,0,0,1,4.21,1.36Z"/><path class="cls-30" d="M488.11,693.63l1.05,3.2c2.3,3.12,2.13,6.34.42,9.63-2,.06-4,.17-6,.17q-230.6,0-461.19,0c-3.67,0-7.32.34-7.08-5,7.34,0,14.61-1.67,22-1,1.5-1.15,3.51.23,5-1l16,0c2.21-1.27,4.81.35,7-1l21,0c2.9-1.28,6.11.37,9-1l27,0c3.24-1.34,6.78.42,10-1,9.55,0,19.11,0,28.67,0,1.77,0,3.64.46,5.3-.64,1.89-1.25,3.08.43,4.41,1.16,15.36,8.42,30.49,8.18,45.39-1.13,1.69-1.06,3.29-2.32,5.5-1.93,34.08-1.66,68.21-.34,102.27-1.35,51.74-1.54,103.47-.25,155.2-.78C482.13,691.91,485.44,691.24,488.11,693.63Z"/><path class="cls-12" d="M220.36,694.89c-17.79,12.66-35.81,12.94-54.08,1.08-12-9.55-17.35-22.31-17.93-37.36-1.31-10,3.09-18.33,8.75-25.8,11.33-15,31.48-20.94,49.34-15.29,18.12,5.73,30.27,21.71,31.25,41.07A44.7,44.7,0,0,1,227.93,689C225.92,691.57,224.1,694.52,220.36,694.89Z"/><path class="cls-31" d="M523.32,535.41H482.2a3.53,3.53,0,0,1-1.22-2.26c.09-8.49-1.56-16.87-1.73-25.34a11.71,11.71,0,0,0-.43-4.28c-.12-.65-.25-.29-.12-.1a4.79,4.79,0,0,1,.53,2.79,48.25,48.25,0,0,1-3.1,16.59c-1.9,3.25-4.49,5.32-8.51,4.92-5.11-2.94-6.36-8.05-3.68-15,.71-8.41,2.9-16.56,4.29-24.85.1-.48.19-.95.29-1.43,2.13-.75,3,1,4,2.18a42.24,42.24,0,0,0,2.86,3.43c9.4,8.94,19.39,6.36,23-6a52.05,52.05,0,0,0,2.5-14.67c0-1.65,0-3.34,1.06-4.77a1.41,1.41,0,0,1,1.45-.28l11.62.32c1.89-1,3.25.16,4.32,1.34,9.6,10.63,19.95,20.65,27.42,33a25.87,25.87,0,0,1,2.39,5,4.13,4.13,0,0,0,.07.49c.69,3.28,3.21,7.18-.39,9.61s-6.75-.88-9.69-3c-5.8-4.17-9.9-10.11-15.81-15.83Z"/><path class="cls-19" d="M502.25,466.79c0,6.12-.2,12.26-2.05,18.16s-3.65,12.28-10.76,13.59c-7.69,1.41-13.22-2.79-17.69-8.68-.93-1.23-1.11-3.28-3.23-3.4-1.11-8.59,1.77-15.71,7-22.54,5.06-6.59,6.94-14.53,6.21-23-1-11.55,3.93-17.86,15.35-19.73a37.18,37.18,0,0,1,16.73,1.26,12.78,12.78,0,0,1,6.65,4.14,8.75,8.75,0,0,1,1.31,8.91c-1.12,3.06-3.68,3.49-6.48,3.46-2,1.07-3.93.09-5.74-.64-3.14-1.25-4.57-.13-5.28,3-1.78,7.95-4.07,15.84-1.61,24.06A1.49,1.49,0,0,1,502.25,466.79Z"/><path class="cls-32" d="M236.36,658.86a43.55,43.55,0,0,0-36.8-41.38c-26.33-4.29-49.45,16.27-50.36,39.41,0,.58-.55,1.15-.85,1.72h-10.1c.25-20.69,17.72-41.86,39.56-47.92,33.35-9.24,65.36,12.68,69.93,47.88C244,661,240.2,660.78,236.36,658.86Z"/><path class="cls-10" d="M117.34,642.63l-.17-1c-2.9-11.05-1.19-22.3-1.37-33.47,0-2.42,1.31-4.38,2.35-6.43a56.62,56.62,0,0,1,7.18-19,8.78,8.78,0,0,1,5.1-1.59c7.39.1,14.8-.5,22.17.35a4.5,4.5,0,0,1,1.5.75c1.32,2.69-.91,4.3-2,6.16-7.31,12.22-15.82,23.73-21.23,37a60.2,60.2,0,0,0-3.24,10.93c-.51,2.52-.51,5.36-2.93,7.15C122.11,644.27,119.59,644.66,117.34,642.63Z"/><path class="cls-15" d="M154.28,582.65H125.33a151.78,151.78,0,0,1,13.84-23.16c1.41,1.73,3.37,1.12,5.13,1.13,8.66.06,17.32,0,26,0a1.93,1.93,0,0,1,0,1.88,224.33,224.33,0,0,1-14.22,19.36A2.44,2.44,0,0,1,154.28,582.65Z"/><path class="cls-6" d="M119.29,461.37c-.93-7.74,6.7-15.12,14.83-15.55s16,7.49,16.16,15.69-7.71,15.87-16,15.82S119.25,470,119.29,461.37Z"/><path class="cls-6" d="M438,400.69c-8.72-.05-14.33-6.35-14.87-15.25-.52-8.51,8.58-15.92,15.41-15.73,8.5.23,15.92,7.86,15.7,16.21C454.05,392.64,447,401.9,438,400.69Z"/><path class="cls-33" d="M355.31,326.69l0-26.76c8.63,4.16,15.6,10.07,20,18.74C368.73,321.56,362.44,325.16,355.31,326.69Z"/><path class="cls-20" d="M502.25,466.79c-4-9.85-.69-19.42,1.09-29,.45-2.39,2.19-2.67,4.18-1.9,2.61,1,5.19,2.08,7.78,3.13.07,3.92.73,7.77.06,11.77-1.37,8.15-4.5,10.5-12.84,8.37.3,2.5.59,4.85.87,7.2Z"/><path class="cls-34" d="M118.15,601.69c-1.65,13.27-.39,26.61-1,39.9-.65-.92-1.13-2.44-2-2.66-6-1.56-6.07-6.11-5.93-10.95.13-4.29,0-8.59,0-12.88C109.31,605.31,109.31,605.31,118.15,601.69Z"/><path class="cls-24" d="M546.41,501.6c-8.17-11.75-18.22-21.9-27.7-32.53-1-1.06-2.45-1.63-3.7-2.43-1-3.31.26-5.69,3.37-6.68,2.73-.87,4.71,1.14,5.41,3.34,3.22,10.12,10.94,17.31,16.42,25.95,2.39,3.78,4.71,7.62,7.06,11.43C547.66,501.63,547.23,501.8,546.41,501.6Z"/><path class="cls-21" d="M117.34,642.63l8,0a.5.5,0,0,1,.87.13c1.58,2.71.85,5.7,1,8.57.12,2-1.09,2.5-2.79,2.41-2.79,0-5.59-.07-8.39,0-3.52.06-6.47-1-6.56-5-.09-3.67,2.33-5.58,5.9-6C116,642.63,116.68,642.66,117.34,642.63Z"/><path class="cls-3" d="M132.31,696.64c-3.17,2-6.68.55-10,1C125.47,695.62,129,697.08,132.31,696.64Z"/><path class="cls-3" d="M95.31,697.64c-2.82,2-6,.58-9,1C89.13,696.67,92.32,698.05,95.31,697.64Z"/><path class="cls-35" d="M546.41,501.6l.86-.92a5.93,5.93,0,0,1,1.87,5.36A10.21,10.21,0,0,1,546.41,501.6Z"/><path class="cls-3" d="M65.32,698.64c-2.12,1.88-4.68.63-7,1C60.43,697.75,63,699,65.32,698.64Z"/><path class="cls-3" d="M42.32,699.64c-1.41,1.62-3.31.77-5,1C38.73,699,40.63,699.86,42.32,699.64Z"/><path class="cls-36" d="M355.32,286.71q-.09-21.18-.18-42.37c0-8.63-3.91-12.58-12.4-12.63-6.48,0-13,.07-19.45,0-2.52,0-4,.31-4,3.44s1.37,3.82,4.19,3.8c7.46,0,14.92.2,22.38.32-1.31,2.33-3.64,2-5.74,2.12-4,.16-8,.08-12,.05-3.2,0-6.22.13-8.81,2.52-1.66,1.53-4,1.45-6.18,1.46q-33.4.08-66.8,0c-2.7,0-5.34-.32-7.41-2.31-1.6-1.54-3.59-1.59-5.59-1.63-4.65-.09-9.3.08-13.95-.09-2.1-.08-4.43.21-5.74-2.12,6.62-.12,13.23-.29,19.84-.35,6.82-.07,6.82,0,6.48-7.18.05-3.82.22-7.65.1-11.47-.08-2.63.94-3.49,3.51-3.42,5.32.13,10.64,0,16,.06,2.1,0,3.14-.56,3.89-2.78,2.58-7.55,8.12-11.62,16.07-12,7.43-.34,13.48,4,16.6,11.91.82,2.07,1.75,3.09,3.91,2.82,3.06-.38,6.34,1,9.18-1.14,1.63,1.76,3.77,1.05,5.66,1,2.56-.1,4.53.27,4.74,3.85C365.47,132.39,436.6,80.44,534,64.77,439.09,115.22,387,193.85,378.44,301.9,371,295.17,363.89,289.76,355.32,286.71Z"/><path class="cls-37" d="M567,64.08V302.81c-12-12.48-26.21-18.85-42.58-19s-30.74,6.06-43.12,19.27c0-6.2-.54-11.28.11-16.19,1.35-10.19,1.44-20.45,2.67-30.65,2.63-21.72,6-43.26,11.63-64.43,5.7-21.57,13-42.63,22.92-62.59,9.42-18.88,20.39-36.87,34.92-52.47C557.61,72.42,561,67.5,567,64.08Z"/><path class="cls-36" d="M764.38,301.69c5.59-26.73,5-53.83,5-80.91,0-3.07-1-4.7-3.89-5.95-8.67-3.77-17.64-6.72-26.52-9.91,1.73-1.07.67-2.29.16-3.44a262.47,262.47,0,0,0-41.51-65.95A278.62,278.62,0,0,0,620.71,73l-13.55-7.5c24.75-5.15,107.78,31.77,141.54,61,53.12,46,85.68,102.85,96.33,172.36-7.6-6-15.61-10.86-24.95-13.07-20.69-4.91-38.7.27-54.15,14.74C765.45,300.9,764.9,301.28,764.38,301.69Z"/><path class="cls-36" d="M472.73,303c-25.42-27.12-63.32-24-85.6-1.18,2.62-35.65,10.35-68.9,24.84-100.44,28.17-61.29,74.6-104.07,135.43-132.31C490.78,136.89,475.73,217.81,472.73,303Z"/><path class="cls-36" d="M648.23,201.77c-12.55,3.78-25.12,7.45-37.2,12.69-3.68,1.6-4.85,3.58-4.87,7.41-.1,21,.24,41.92,2.05,62.83-12.82,1.87-23,8.81-32.7,17.83V65.25c4.56,1.4,7,5.17,9.75,8.21,16.84,18.42,29.83,39.39,40.32,62a331.1,331.1,0,0,1,21.61,63C647.46,199.58,647.88,200.67,648.23,201.77Z"/><path class="cls-36" d="M730.2,202.59c-16.89-3.8-33.91-6.1-51.3-5.06a223.94,223.94,0,0,0-23.66,3c1.13-1.67.85-3.32.39-5.22-6-24.78-14.23-48.84-25.59-71.67-8.75-17.56-19.13-34.19-32.28-48.93a16.61,16.61,0,0,1-3.46-5.94c6.84,3.44,13.78,6.68,20.48,10.36a272.84,272.84,0,0,1,89.76,79C714.61,172.14,722.63,187.21,730.2,202.59Z"/><path class="cls-38" d="M285.86,126.26a4.29,4.29,0,0,1,3.31,5c-.47,4.36,1.07,6.15,5.53,5.54,2.25-.3,4.59.07,4.44,3.18-.13,2.78-2.37,3-4.4,2.74-4.38-.59-6.06,1.06-5.57,5.5.28,2.49-.92,5-3.63,5.06-3,0-3.53-2.72-3.2-5.14.63-4.56-1.35-6-5.61-5.42-2.05.26-4.24,0-4.33-2.8-.1-3.13,2.29-3.42,4.51-3.11,4.54.62,6-1.33,5.41-5.6C281.94,128.47,283.07,126.7,285.86,126.26Z"/><path class="cls-14" d="M713.13,697.54c2.61-.74,1.78-3.49,3-5.07,6.59-1,13.23-.29,19.84-.44,5.47-.13,10.94.13,16.38-.58,1.25,1.8,1.1,3.84,1,5.87-1.36,3.66-5,4-7.89,5.43-4.58,1.65-9.68,1.4-14,3.87l-17,0-.63-.5A12.62,12.62,0,0,1,713.13,697.54Z"/><path class="cls-39" d="M512.77,693.86c3.13,3.2,6.78,1.41,10.28,1.09,2.64,3.25,6.33,5.14,9.73,7.36,1.64,1.07,3,2,2.25,4.2-7.28-.47-14.65,1.1-21.88-.83-2.09-3.43-1.52-7.24-1.59-11l.41-.7Z"/><path class="cls-40" d="M489.58,706.46l-.42-9.63c3.21-.52,6.61.84,9.68-1,4.19,1.06,7.48,3.84,11.1,6,1.73,1,3,2.65,1.07,4.74Z"/><path class="cls-41" d="M767,697.44c1.89,2.87.65,6.12,1.1,9.16-3.38,1-6.79.67-10.2.21-3.71-1.53-4.2-4.19-1.7-9.25C759.83,698.24,763.4,696.21,767,697.44Z"/><path class="cls-42" d="M511,706.54c1.07-2.59-.79-3.34-2.56-4.33-3.36-1.89-7.13-3.17-9.61-6.37.15-.73.31-1.47.46-2.21,4.33-2.38,8.64-2.49,12.93.07a39.54,39.54,0,0,1,.92,12Z"/><path class="cls-43" d="M756.22,697.56c.71,3.06-1.68,6.68,1.7,9.25a43.51,43.51,0,0,1-11.9,0c-2.88-1.31-2.07-3.19-.81-5.14l8-4.35C754.25,697.31,755.32,696.39,756.22,697.56Z"/><path class="cls-44" d="M745.21,701.67c.17,1.73-.53,3.59.81,5.14a50.57,50.57,0,0,1-14.69-.19,3.91,3.91,0,0,1,3.71-3.33C738.44,702.83,741.82,702.22,745.21,701.67Z"/><path class="cls-45" d="M714.35,706.6c-4,1.53-8.12.72-12.15.64-8.36-.18-16.75.88-25.07-.63a.39.39,0,0,1,.53.08,6.47,6.47,0,0,1,4.07-1.54c9.21-.29,18.43-.29,27.65-.11,1.64,0,3.32.21,4.48,1.65A.3.3,0,0,1,714.35,706.6Z"/><path class="cls-11" d="M213.69,239.23c7.32.08,14.64.13,22,.24,2,0,4.53-.71,4.59,2.83,0,2,1.86,1.53,3.07,1.53q36.48,0,72.94,0c.95,0,2.7-.32,2.73-.6.51-5.9,5-3.54,7.93-3.7,6.31-.33,12.64-.22,19-.3a30.92,30.92,0,0,1,.38,3.44q0,76.44,0,152.9c0,1-.16,2-.25,3-1.88,1.68-4.2,1.77-6.53,1.79-5.63,0-11.26-.06-16.88,0-5.16.08-5.54.5-5.64,5.79-.08,4.47,0,8.94,0,13.4a13.11,13.11,0,0,1-1.64,7.16c-1.47.14-2.95.41-4.42.41-31,0-62,0-93,.07-3,0-4.72-.08-4.71-4.07q.21-90.49.12-181A22.74,22.74,0,0,1,213.69,239.23Z"/><path class="cls-46" d="M315.31,426.73c0-8,.12-16-.1-24-.09-3.35,1.12-4.27,4.32-4.21,8.83.16,17.66,0,26.48,0A380.87,380.87,0,0,1,315.31,426.73Z"/><path class="cls-47" d="M842.23,703.59h-4.06c3.78-13.86,9.62-26.9,16.42-39.48a281.31,281.31,0,0,1,29.23-43.9c17-20.84,35.47-39.94,59.37-53.58-1.69,3.74-6.09,8-13.26,13.61C904.57,599.89,884,623.85,867.08,651A244.69,244.69,0,0,0,842.23,703.59Z"/><path class="cls-48" d="M754.39,494.84c4,5.35,5.72,11.1,2.32,17.34-2.67,4.91-5.72,9.61-8.6,14.4-1.71,0-1.51-.91-1-2q3.45-14.46,6.91-28.91A.53.53,0,0,1,754.39,494.84Z"/><path class="cls-49" d="M730.09,554.67c0-4.55,5.37-10.16,9.55-9.74a4.47,4.47,0,0,1,4.31,4.6c.12,4.21-5.46,10-9.54,10C731.33,559.46,730,557.61,730.09,554.67Z"/><path class="cls-50" d="M754.39,494.84a2.52,2.52,0,0,1-.32.84c-.31.11-.85.36-.89.3-3.1-5-5.63-10.14-5-16.27C749.49,485.07,753.7,489.23,754.39,494.84Z"/><path class="cls-51" d="M747.16,524.59c.32.66.63,1.33,1,2l-3.88,6.1a.68.68,0,0,1-1.14,0A25.57,25.57,0,0,1,747.16,524.59Z"/><path class="cls-52" d="M743.09,532.66l1.14,0c-.83,1.5-1.28,3.28-3.1,4A6.36,6.36,0,0,1,743.09,532.66Z"/><path class="cls-53" d="M762.2,244.77a328.23,328.23,0,0,1-3.3,47.28c-4,26.85-17.81,48-37.69,65.68a188.39,188.39,0,0,1-30.13,22.17c-1.92,1.12-3.45,1.9-5.82.48-19.78-11.86-37.13-26.4-51-44.93-12-16-16.66-34.6-18.89-54-2.15-18.72-2-37.55-2-56.37,0-2.74.84-4.15,3.38-5.23Q688,189.33,759.17,220c2.36,1,3.16,2.3,3.09,4.83C762.09,231.44,762.2,238.11,762.2,244.77Z"/><path class="cls-54" d="M607.4,660.68a28.31,28.31,0,0,1-28.68,28.79c-16.19,0-28.65-12.57-28.65-28.84a28.37,28.37,0,0,1,28.7-28.82C594.93,631.82,607.4,644.4,607.4,660.68Z"/><path class="cls-55" d="M524.18,691.53l8.1-32.77c1.23-.32,1.87.84,2.86,1.12-.72,13,4.74,23.43,13.11,32.73-7.51,2.2-15.16.65-22.74.76C525.07,693.37,524.63,692.17,524.18,691.53Z"/><path class="cls-16" d="M827.15,703.59c-13.14,1.93-24.74-1.65-35-9.85-2,0-4.32-.74-3.83-2.76.8-3.35,4-3.26,6.83-3.26-3.7.14-7.36-.78-11.11-.86-2.71-.05-4.49-1.78-6.41-3.41-4.82-4.06-7.77-9.81-12.63-13.81-1.93-12.41-3.88-24.81-5.76-37.22-1.14-7.52-2.17-15.07-3.24-22.61l.4-.24c3,.78,5,3.13,7.14,5.15C779.3,630,795,645.5,807.43,663.78c7.34,10.75,14.09,21.84,18.63,34.12C826.73,699.7,828.08,701.46,827.15,703.59Z"/><path class="cls-1" d="M752.31,691.45a2.44,2.44,0,0,1-2.78,2.19c-10.44,0-20.88,0-31.33-.09-.7,0-1.4-.71-2.11-1.08l9.21-88.69c3.58,8.18,5.18,17,8.1,25.4,6.77,19.41,13.91,38.71,18.35,58.84C752,689.15,752.13,690.31,752.31,691.45Z"/><path class="cls-1" d="M765,669.64c.77-2.62,1.66-1,2.47,0,2.74,3.3,5.78,6.42,8.12,10,4.17,6.37,10.69,6.25,17,6.89,1.22.12,2.44.2,4.06.33-2.35,2.47-5.67,1.94-8,4.14l3.43,2.8c-4.9,2-10,.46-15,.86-2.77.23-5.56.14-8.35.2Z"/><path class="cls-56" d="M713.86,706.69h-36.2c-.14-2.43,1.14-3.32,3.41-3.14,1.63-.9,3.5,0,5.15-.7,4.63-1.17,9.19-2.49,13.13-5.34a24.74,24.74,0,0,1,13.78,0C715,700.46,714.23,703.59,713.86,706.69Z"/><path class="cls-1" d="M830.1,452.58c-3.44-4.06-4.32-9.79-6.68-14.89-.44-.93-1.66-1-2.69-1l-4,0c-11.33,0-11.26,0-10.59-11.43.14-2.51.92-4,3.49-3.49,10.13,2,15.65-1.73,18.48-12,1.2-4.37,1.79-6.87-1.84-9.52a6,6,0,0,1-.71-.71c-7.4-7.39-7.26-7.26-.19-14.65,2.59-2.71,4.23-3,6.56,0,4.91,6.39,9.73,10.43,18.71,4.88,6.81-4.21,7.5-3,7.58-11.32.09-10.08-1.36-8.38,8.67-8.89,5.05-.26,7.22,1.17,6.3,6.32a12,12,0,0,0,0,2c0,8.83,0,8.83,8.16,11.71.47.16.95.29,1.43.44,2.67.83,4.57,4.23,7.52,3.31s4.67-4.13,7-6.25a30.7,30.7,0,0,0,3.16-3.19c1.48-1.78,2.57-1.82,4.41-.15,8.77,8,9,8,.6,16-3.45,3.28-5.54,6.1-1.65,10.29a7.06,7.06,0,0,1,1.08,2.24c3.71,9.42,3.71,9.42,13.76,9.43,6.53,0,6.53,0,6.54,6.44a25.53,25.53,0,0,0,0,3.5c.52,3.89-1,5.68-5,5-8.35-1.34-14.59.46-15.79,10.26a8.64,8.64,0,0,1-2.08,3.93c-1.67,2.06-1,3.58.62,5.18,2.29,2.18,4.49,4.46,6.72,6.7.59.59,1.14,1.22,1.77,1.76,2.41,2.07.33,3.42-1,4.27-3.16,2-4,7.44-9.23,6.41-.27-.05-.46-.46-.72-.67-3.83-3.07-6.33-9.55-11.07-9.18-4.44.35-8.94,3.94-13.73,5.33-2,.57-2.58,1.89-2.55,3.75,0,1.5,0,3,0,4.5,0,9.88-2.8,12-12.71,9.79-2-.44-2.51-1.66-2.22-3.2,2-10.26-1.71-16-12.22-18.85-4.23-1.14-6.58-1.69-9.12,1.78a3,3,0,0,1-.35.36c-8.22,8.2-8.15,8.14-16-.19-1.77-1.87-2-3,0-4.78,2.73-2.43,5.23-5.14,7.81-7.74A4.64,4.64,0,0,0,830.1,452.58Z"/><path class="cls-57" d="M827.15,703.59a184.23,184.23,0,0,0-21.89-40.54c-10.23-14.38-22-27.3-34.67-39.53-4.77-4.62-9.48-9.29-14.21-13.95.92-1.25,1.66-.32,2.47.19,12.65,8,22.88,18.51,32.83,29.51a251.53,251.53,0,0,1,25.1,33.34,121,121,0,0,1,14.4,31Z"/><path class="cls-45" d="M686.22,702.85c-1.56,1.4-3.37.94-5.15.7A9.67,9.67,0,0,1,686.22,702.85Z"/><path class="cls-15" d="M321.24,582.64H158.31c-.71-1.4-.05-2.59.72-3.64,4.54-6.23,8.71-12.73,13.91-18.46a1.27,1.27,0,0,1,1.34.1q75.41,0,150.81.05c2.07,0,4.36-.81,6.19,1a1.7,1.7,0,0,1-.41,1.83A29.82,29.82,0,0,0,322.31,581,2.48,2.48,0,0,1,321.24,582.64Z"/><path class="cls-58" d="M463.94,512.74c.1,2.74.11,5.49.31,8.22s.93,5.13,3.92,6c4.78,5.08,8.7,10.67,10.33,17.59-.72,3-1.43,6.07-2.14,9.11a7.67,7.67,0,0,1-5.28,2.37c-9.85.23-19.7.75-29.53-.27-2.14-.66-3.05-2.49-3.87-4.3-9-19.85-18.34-39.5-27.17-59.4-.59-1.34-1.4-2.73-.29-4.21,14.91-1.37,28.82.36,40.4,11.36C455.21,503.63,459.47,508.27,463.94,512.74Z"/><path class="cls-58" d="M337.19,537.7c0-8.79.26-17.59.08-26.37-.39-18.39,6.71-25.13,24-23.5a9.89,9.89,0,0,1,3.24,4.34c8.6,19.1,17.55,38,26.08,57.17.88,2,2.66,4.21-.16,6.2-5,1.38-10.2.59-15.3.68q-10.67.19-21.33,0c-6.57-.14-11.87-2.62-15.18-8.58A16.66,16.66,0,0,1,337.19,537.7Z"/><path class="cls-58" d="M202.43,554.53c-1.43-.32-2.85-.69-4.28-1-6.7-1.26-9.23-4-9.89-10.9-1.27-2-.4-3.5,1.22-4.78,7.6-13.2,16.2-25.68,26.93-36.59a49,49,0,0,1,10.89-8.48c3.75,3,4.46,7.7,6.29,11.68,7,15.08,14.19,30,20.71,45.33.67,1.58,3.64,4.09-.66,5.32-15.47,0-30.93,0-46.39,0C205.64,555.11,203.92,555.67,202.43,554.53Z"/><path class="cls-58" d="M274.3,489.82c10.64,0,21.28-.19,31.91,0,11.35.17,19.06,7.92,19.26,19.18.13,7.31,0,14.63,0,21.94,0,14.6-2.8,18.66-16.31,23.68-1.73,1.11-3.64.34-5.45.51-1.78-.71-2.09-2.49-2.74-4-8.39-18.78-17.31-37.31-25.56-56.16C274.73,493.35,273.55,491.79,274.3,489.82Z"/><path class="cls-11" d="M410.22,487.9q8.83,19.52,17.67,39c4.16,9.23,8.25,18.49,12.38,27.74a5.05,5.05,0,0,1-4,1.54c-8.86,0-17.72.59-26.57-.31-3.12-.88-4.22-3.62-5.36-6.18-8.39-18.87-17.21-37.55-25.71-56.37-.8-1.79-1.94-3.62-.35-5.59C388.91,487.55,399.56,487.29,410.22,487.9Z"/><path class="cls-11" d="M274.3,489.82q14.22,30.9,28.41,61.79a12.88,12.88,0,0,1,.58,2.89c-5.33,1.48-10.76.38-16.14.61-4.78.2-9.57,0-14.34,0-2.79,0-3.48-2.26-4.33-4.16-8.49-18.9-17.4-37.61-25.8-56.55-.65-1.46-1.69-3-.38-4.63Z"/><path class="cls-11" d="M391.3,554.56q-8.81-19.51-17.6-39-6.22-13.83-12.4-27.7a39.22,39.22,0,0,1,10,0c1.8.61,2.33,2.24,3.05,3.74,9,18.77,17.25,37.9,26.15,56.72,1,2.21,3,4.79,0,7.19C397.32,556.32,394.15,557,391.3,554.56Z"/><path class="cls-11" d="M255.29,554.46c-9.47-20.48-19.44-40.74-28-61.64,2.4-1.74,5-3,8-2.95,2.11.76,2.93,2.63,3.78,4.43,8.73,18.33,16.83,37,25.52,55.31.77,1.65,2.69,3.84-.27,5.53C261.34,554.76,258.22,556,255.29,554.46Z"/><path class="cls-58" d="M401.29,554.71c-3.69-11.17-9.5-21.41-14.15-32.16-5.05-11.66-10.56-23.13-15.86-34.69l7-.1c.24,4.48,3,8.05,4.69,11.91,8.22,18.42,16.84,36.66,25.32,55A5.06,5.06,0,0,1,401.29,554.71Z"/><path class="cls-58" d="M265.25,554.41q-15-32.26-29.93-64.54l7-.06q8.74,19.41,17.47,38.84,5.79,12.87,11.55,25.75A5.61,5.61,0,0,1,265.25,554.41Z"/><path class="cls-59" d="M265.25,554.41h6.07l32,.1,5.9.09c.21,1.93-1.31,1-2,1q-51.46.07-102.93,0a11.11,11.11,0,0,1-1.9-.25c-.08,0-.17-.27-.16-.4a1.45,1.45,0,0,1,.19-.45l52.86-.08Z"/><path class="cls-59" d="M189.48,537.89c-.41,1.59-.82,3.19-1.22,4.78-5.53,5.32-9.44,11.89-14,18l-1,0c-1.12.55-2.12.83-2-1,5.19-7,10.35-14,15.59-20.89C187.44,538,188,536.4,189.48,537.89Z"/><path class="cls-59" d="M171.29,559.66a2.23,2.23,0,0,0,2,1c-3.25,6.54-8.59,11.62-12.36,17.8-.86,1.4-1.77,2.77-2.65,4.16-.34.34-.67.68-1,1a3,3,0,0,1-3-1h0q8-11,16-22Z"/><path class="cls-59" d="M321.24,582.64c-.08-8.63,3.39-15.57,10-21l2-1a4.28,4.28,0,0,1,3.62-.46c1.48,1.9-.37,2.79-1.36,3.48-6.42,4.46-9.36,10.83-10.45,18.3a2.69,2.69,0,0,1-1,1.14,2.46,2.46,0,0,1-2.84-.46Z"/><path class="cls-59" d="M337.28,560.66h-4c2-1.43,1.9-3.5,2.05-5.68.39-5.78.46-11.61,1.86-17.28q1.11,4.39,2.21,8.79c.25,4.62,1.25,9.28-.59,13.82A1.12,1.12,0,0,1,337.28,560.66Z"/><path class="cls-10" d="M475,567.73c-.28,31.91,5.41,63.26,9,94.8-2.61,2.57-5.94,1.82-9,1.83q-62,.07-124,0c-31.65,0-63.3.06-95-.09-2.63,0-6.19,1.4-7.58-2.65l82.88-.06c1-2.07-.73-3-1.76-4.17a26,26,0,0,1-6.79-17.73q0-25.44,0-50.89c0-2.16-.17-4.37,1.46-6.14h0c2.7-2.31,6-1.69,9.09-1.69q64.15-.06,128.3,0c1.66,0,3.33,0,5,0,5.25-.17,5.5-.53,5.89-5.73C472.76,572.56,471.7,569.4,475,567.73Z"/><path class="cls-3" d="M248.45,661.65c1.67,1.69,3.79.82,5.67.82q114.92.09,229.84.07,2.07,15.54,4.15,31.09c-42.11,0-84.24-.5-126.34.16-38.42.6-76.83.59-115.25,1-7.08.08-14.22.78-21.35.79-1.62,0-3.35.47-4.81-.72,10.73-9.61,16.55-21.41,16-36l11.38-.28C248,659.6,248.21,660.63,248.45,661.65Z"/><path class="cls-59" d="M324.25,582.66c0,18.4.19,36.8-.06,55.19-.12,8.35,2.47,15.21,8.57,20.81.71.65,1.3,1.42,1.93,2.12-1.08,1.35-2.3.65-3.36.81-8.22-7.57-10.46-17.11-10.17-28,.44-17,.12-34,.12-51Z"/><path class="cls-59" d="M154.32,582.66c1.09,0,2.26-.15,3,1-9.87,14.79-20.08,29.39-26.48,46.14a59.62,59.62,0,0,0-2.45,10.13c-.27,1.44-.49,2.6-2.18,2.8a2.82,2.82,0,0,1-.87-.13c.93-13.08,6.65-24.41,13.26-35.33C143.62,598.94,149.06,590.85,154.32,582.66Z"/><path class="cls-15" d="M475,567.73c-1.54,2.82-.94,5.93-.63,8.78.59,5.31-1.58,6.28-6.45,6.25-31.42-.21-62.83-.11-94.25-.11H324.29c-.5-10.19,5.37-16.6,13-22l1,0c2.06-1.85,4.61-1.71,7.1-1.71q61.41,0,122.82.06c2.54,0,5.85-1,7.13,2.72Q475.14,564.73,475,567.73Z"/><path class="cls-15" d="M475.3,561.71c-1.81-1.83-4.11-1-6.17-1q-65.44-.08-130.88-.05c.51-4.71-1.05-9.58,1.15-14.15,3.81,6.08,9.3,8.48,16.44,8.29,11.82-.31,23.64-.17,35.46-.22a38,38,0,0,0,10,.15l7-.07c10.67.47,21.34.41,32,0,12-.23,24.1.83,36.09-1C476.23,556.4,476.49,559.15,475.3,561.71Z"/><path class="cls-15" d="M509.08,592.71c2.62,10.19,7.53,19.89,7,30.77-.65,13-1.48,26.07-2.22,39.11-3.81,2.48-7.68,2.21-11.59.28,1.87-15.61,2.28-31.34,3.65-47,.54-6.13.7-12.22.8-18.35C506.75,595.71,506.42,593.39,509.08,592.71Z"/><path class="cls-55" d="M502.31,662.46l11.55.13q-.4,11-.79,22.08c-1,2.91.37,6-.78,8.92l-.06.11-12.93-.07,2.25-31.08C501.76,662.12,502,662.11,502.31,662.46Z"/><path class="cls-59" d="M502.31,662.46l-.37.13-.39,0q1.36-23.46,2.74-46.92c.86-4.29.56-8.61.17-12.92-.31-8.49.16-17-.57-25.59,2.83,4.86,3.85,10.28,5.19,15.59-1.46,1.74-.77,3.82-.81,5.75-.41,20.31-2.7,40.49-4,60.73C504.18,660.77,503.18,661.5,502.31,662.46Z"/><path class="cls-60" d="M478.5,544.6q-5.16-8.79-10.33-17.59c3.08-.31,5.19-2.1,6.88-4.52,3.71.29,3.49,3.89,5,6,1.07,1.49,1.24,3.41,1.83,5.13.1.6.21,1.19.31,1.78Q480.36,540,478.5,544.6Z"/><path class="cls-59" d="M504.46,602.71a20.26,20.26,0,0,1-.17,12.92Q504.36,609.18,504.46,602.71Z"/><path class="cls-42" d="M512.29,693.59c.2-3-.88-6.07.78-8.92l-.3,9.19A1.42,1.42,0,0,0,512.29,693.59Z"/><path class="cls-54" d="M221.45,660.79a28.84,28.84,0,1,1-28.69-29A28.62,28.62,0,0,1,221.45,660.79Z"/><path class="cls-59" d="M481.89,533.63c-3.25-3.11-3.63-8-6.84-11.14q1.68-8.32,3.35-16.66c1.13-.74,1.31.32,1.73.93C481.41,515.67,482.71,524.58,481.89,533.63Z"/><path class="cls-61" d="M480.13,506.76l-1.73-.93c0-.84-.58-2.38.59-2.23C480.54,503.79,480.25,505.49,480.13,506.76Z"/><path class="cls-1" d="M143.32,461.79c0,5.61-3.09,8.83-8.42,8.89a9.29,9.29,0,0,1-9.6-9.25c.14-5.25,4-8.86,9.34-8.77C140.35,452.75,143.36,455.92,143.32,461.79Z"/><path class="cls-1" d="M438.46,376.66c5.77,0,8.81,3.15,8.82,9s-3.28,9-8.93,9a9.21,9.21,0,0,1-9.08-9.23C429.41,379.83,432.78,376.61,438.46,376.66Z"/><path class="cls-1" d="M290.41,219.27a10.59,10.59,0,1,1-21.18.44,10.59,10.59,0,1,1,21.18-.44Z"/><path class="cls-62" d="M253.72,270.1a6.78,6.78,0,0,1-1.63,3.56c-4.77,6.78-9.48,13.6-14.31,20.34-2.67,3.74-4.53,3.72-7.2,0-2.05-2.82-4-5.73-5.9-8.63-1.13-1.71-1.32-3.49.49-4.85,2-1.48,3.34-.22,4.62,1.27,1.57,1.82,2.33,5.49,4.65,5.13,1.78-.28,3.14-3.52,4.57-5.52,2.9-4,5.71-8.15,8.57-12.21,1-1.46,2.34-2.35,4.24-1.76A2.76,2.76,0,0,1,253.72,270.1Z"/><path class="cls-62" d="M253.84,315.25a24.18,24.18,0,0,1-1.52,2.81c-4.76,6.82-9.48,13.65-14.36,20.37-3,4.14-4.54,4.08-7.47,0-2-2.69-3.8-5.45-5.7-8.18-1.16-1.67-1.62-3.39.21-4.84s3.3-.48,4.73,1c1.72,1.77,2.29,5.81,5,5.08,2-.55,3.24-3.95,4.78-6.1,2.81-3.92,5.57-7.86,8.38-11.78.92-1.28,2.06-2.27,3.78-1.69A3.29,3.29,0,0,1,253.84,315.25Z"/><path class="cls-62" d="M226.77,371.31c2.16.21,2.95,1.74,3.92,3.09,3.64,5.06,3.65,5.05,7.3-.17,3.06-4.35,6.16-8.67,9.17-13.06,1.34-2,3-3.61,5.29-2.09,2.5,1.63,1.2,3.73-.1,5.59-4.88,6.94-9.69,13.92-14.65,20.8-2.45,3.4-4.49,3.34-7-.08a106.45,106.45,0,0,1-6.17-9.07C223,373.74,224,371.88,226.77,371.31Z"/><path class="cls-63" d="M308.62,293.84c-6.65,0-13.3,0-19.95,0-1.87,0-4.51.59-4.44-2.47.06-2.52,2.36-2.37,4.18-2.37q20.46,0,40.91,0c1.87,0,4.17,0,4.23,2.38.07,2.95-2.56,2.47-4.48,2.48C322.26,293.87,315.44,293.84,308.62,293.84Z"/><path class="cls-63" d="M309.31,380.54c6.81,0,13.63,0,20.44,0,1.66,0,3.7-.22,3.8,2.12.12,2.54-2,2.73-3.85,2.73-13.8,0-27.6,0-41.4,0-1.75,0-4.06,0-4.05-2.56,0-2.81,2.41-2.22,4.11-2.23C295.34,380.51,302.32,380.54,309.31,380.54Z"/><path class="cls-64" d="M309,338.59q-10.45,0-20.91,0c-1.68,0-3.66,0-3.79-2.21-.15-2.66,2-2.58,3.88-2.58q20.65,0,41.31,0c1.89,0,4.14,0,4.11,2.44s-2.32,2.37-4.19,2.37Z"/><path class="cls-65" d="M282.08,368.68H299c1.68,0,3.7-.11,3.81,2.14.1,2.05-1.64,2.72-3.44,2.72q-17.44,0-34.89,0c-1.85,0-3.38-.59-3.21-2.83s1.85-2,3.35-2C270.45,368.67,276.27,368.68,282.08,368.68Z"/><path class="cls-65" d="M282.18,326.7c-5.65,0-11.3,0-16.94,0-1.76,0-4.08.44-3.94-2.39.11-2.52,2.27-2.48,4.11-2.48q16.69,0,33.38,0c2,0,4.06.42,4,2.69,0,2.58-2.43,2.18-4.2,2.19C293.14,326.72,287.66,326.7,282.18,326.7Z"/><path class="cls-66" d="M282,281.83c-5.63,0-11.27,0-16.91,0-1.54,0-3.67.52-3.81-2s2-2.23,3.56-2.24q17.16,0,34.33,0c1.65,0,3.73-.1,3.61,2.25s-2.25,2-3.86,2C293.29,281.85,287.65,281.83,282,281.83Z"/><path class="cls-65" d="M319.79,326.7c-3.49,0-7,0-10.47,0-1.42,0-2.75-.33-2.9-2-.18-1.94,1.17-2.75,2.78-2.77q10.73-.11,21.44,0c1.58,0,3.07.74,2.93,2.66s-1.69,2.17-3.31,2.16C326.77,326.68,323.28,326.7,319.79,326.7Z"/><path class="cls-65" d="M319.54,373.55c-3.32,0-6.65,0-10,0-1.63,0-3.11-.51-3.17-2.4s1.38-2.45,3-2.46c7,0,14,0,20.95,0,1.68,0,3.15.43,3.19,2.31s-1.42,2.53-3.06,2.55C326.86,373.58,323.2,373.55,319.54,373.55Z"/><path class="cls-66" d="M320.22,281.82c-3.49,0-7,0-10.47,0-1.48,0-3.23.12-3.33-2s1.61-2.2,3.13-2.21c7,0,14,0,20.93,0,1.66,0,3.15.35,3.07,2.34-.08,2.19-1.92,1.89-3.36,1.9C326.86,281.86,323.54,281.83,320.22,281.82Z"/><path class="cls-67" d="M269.29,338.58c-2.32,0-4.64,0-7,0-1.49,0-2.68-.73-2.76-2.27a2.27,2.27,0,0,1,2.53-2.45q7.2-.09,14.4,0a2.28,2.28,0,0,1,2.49,2.49c-.07,1.59-1.27,2.23-2.75,2.25C273.93,338.61,271.61,338.59,269.29,338.58Z"/><path class="cls-68" d="M269,293.82c-2.15,0-4.3,0-6.45,0-1.43,0-2.75-.46-2.87-2.1a2.37,2.37,0,0,1,2.48-2.56c4.79-.13,9.59-.13,14.38,0a2.34,2.34,0,0,1,2.38,2.65c-.19,1.65-1.57,2-3,2C273.63,293.85,271.31,293.83,269,293.82Z"/><path class="cls-68" d="M269.21,380.55c2.32,0,4.64,0,7,0,1.45,0,2.74.54,2.75,2.19a2.47,2.47,0,0,1-2.59,2.51c-4.79.1-9.6.11-14.39-.07a2.3,2.3,0,0,1-2.24-2.75c.2-1.36,1.28-1.85,2.55-1.86,2.32,0,4.64,0,7,0Z"/><path class="cls-11" d="M679.52,316.7c-3.39.14-5.91-1.39-8.06-3.61-6.49-6.7-13-13.38-19.37-20.18-4.18-4.47-4.1-10.87-.06-14.81s10.35-3.83,14.79.45c3.12,3,6.13,6.13,9,9.39,2,2.35,3.27,2.75,5.45-.11,8.68-11.39,17.64-22.56,26.5-33.81,1.75-2.23,3.47-4.56,6.43-5.28,4.57-1.12,8.74-.39,11.57,3.67s2.83,8.36-.1,12.12c-12.57,16.17-25.32,32.21-38,48.26A9.34,9.34,0,0,1,679.52,316.7Z"/><path class="cls-69" d="M555.11,660.44a23.48,23.48,0,0,1,23.83-23.67c13.24.09,23.47,10.62,23.42,24.08a23.48,23.48,0,0,1-23.82,23.67C565.31,684.44,555.06,673.9,555.11,660.44Z"/><path class="cls-6" d="M865.93,410.67c10.54,0,18.34,8.05,18.26,18.76s-8.07,18.33-19.33,18.25c-10.05-.07-17.71-8.22-17.68-18.79S855.15,410.64,865.93,410.67Z"/><path class="cls-70" d="M216.39,660.75a23.66,23.66,0,0,1-23.74,23.76,24.16,24.16,0,0,1-24-23.71c-.18-13.06,11-24.11,24.21-24A23.72,23.72,0,0,1,216.39,660.75Z"/><path class="cls-71" d="M578.64,672.67c-6.8,0-12.45-5.7-12.24-12.28a12.2,12.2,0,0,1,12.26-11.77c7,0,12.44,5.2,12.46,12A12.2,12.2,0,0,1,578.64,672.67Z"/><path class="cls-1" d="M865.43,442.69c-7.84-.07-13.28-5.67-13.25-13.65s5.74-13.51,14-13.37c7.74.13,13.1,5.85,13,13.89C879.1,437.35,873.44,442.75,865.43,442.69Z"/><path class="cls-72" d="M192.32,672.59a11.94,11.94,0,1,1,.2-23.88,12.07,12.07,0,0,1,12.33,11.82C205,667.28,199.39,672.64,192.32,672.59Z"/><path class="cls-73" d="M578.56,669.65c-5.49-.08-8.5-3.51-8.34-9.49.14-5.51,3.38-8.64,8.82-8.51a9.32,9.32,0,0,1,9.15,9.78C588,665.85,583.45,669.72,578.56,669.65Z"/><path class="cls-74" d="M186.28,660c.25-3,2.12-5.26,6.14-5.39s6.76,2.28,6.81,6.13c.06,4.07-2.83,5.87-6.17,6.62C190.19,668,186.39,664.05,186.28,660Z"/><path class="cls-75" d="M578.66,654.6c3.86.45,6.19,2.28,6.46,5.95a5.86,5.86,0,0,1-6.3,6.07c-3.62-.22-5.89-1.69-5.63-5.86C573.43,657,575.36,655.12,578.66,654.6Z"/><path class="cls-74" d="M579.37,656.66c2.2.42,3.77,1.62,3.74,3.9,0,2.78-1.85,4.05-4.54,4.05s-3.47-1.53-3.29-3.86C575.47,658.26,576.91,656.94,579.37,656.66Z"/></g></g></svg>